<?xml version="1.0" standalone="yes"?>
<svg xmlns="http://www.w3.org/2000/svg" width="268" height="267">
<path style="fill:#f6f8f7; stroke:none;" d="M51 41L52 42L51 41z"/>
<path style="fill:#ffffff; stroke:none;" d="M51 58L91 58L91 132C91 136.077 89.0549 154.342 93 155L94 163L98 163L96 165L108 172C110.57 175.726 115.734 176.883 120 176L128.516 181.056L129 195L130 231L134 231L136 230L137 195L137.465 180.889L153 175C165.537 176.827 176.327 163.123 178.294 152.075C183.626 122.121 178.292 88.4055 179 58L212 58L212 41L91 41L62 41L52.0779 42.564L51 58z"/>
<path style="fill:#080808; stroke:none;" d="M50 42L51 43L50 42z"/>
<path style="fill:#f1f6f4; stroke:none;" d="M52 42L53 43L52 42z"/>
<path style="fill:#f6f8f7; stroke:none;" d="M208 42L209 46L210 46L211 42L208 42z"/>
<path style="fill:#080808; stroke:none;" d="M48 45L48 46L51 46L48 45z"/>
<path style="fill:#f6f8f7; stroke:none;" d="M51 45L52 46L51 45M211 46L212 47L211 46M52 56L53 57L52 56M93 56L95 58L93 56M177 56L178 57L177 56M180 56L181 57L180 56M209 56L210 57L209 56M91 57L92 58L91 57z"/>
<path style="fill:#080808; stroke:none;" d="M49 59L50 60L49 59M88 59L90 61L88 59z"/>
<path style="fill:#f6f8f7; stroke:none;" d="M176 59L178 61L176 59z"/>
<path style="fill:#080808; stroke:none;" d="M180 59L181 60L180 59M209 59L210 60L209 59z"/>
<path style="fill:#f6f8f7; stroke:none;" d="M95 61L96 62L95 61M178 63L179 64L178 63M175.333 90.6667L175.667 91.3333L175.333 90.6667z"/>
<path style="fill:#f1f6f4; stroke:none;" d="M175 92L175 96L176 96L175 92z"/>
<path style="fill:#f6f8f7; stroke:none;" d="M176 144L177 145L176 144M176 146L177 147L176 146z"/>
<path style="fill:#080808; stroke:none;" d="M180 147L181 148L180 147z"/>
<path style="fill:#f6f8f7; stroke:none;" d="M176.667 148.333L177.333 148.667L176.667 148.333M178 149L179 150L178 149z"/>
<path style="fill:#080808; stroke:none;" d="M180 150L181 151L180 150z"/>
<path style="fill:#f6f8f7; stroke:none;" d="M176 152L177 153L176 152z"/>
<path style="fill:#080808; stroke:none;" d="M179 153L180 154L179 153z"/>
<path style="fill:#f6f8f7; stroke:none;" d="M94 154L95 155L94 154M92.3333 155.667L92.6667 156.333L92.3333 155.667M176 155L177 156L176 155M177 156L176 158L177 156z"/>
<path style="fill:#080808; stroke:none;" d="M180 156L181 157L180 156M88.6667 157.333L89.3333 157.667L88.6667 157.333z"/>
<path style="fill:#f6f8f7; stroke:none;" d="M95 158L96 159L95 158z"/>
<path style="fill:#080808; stroke:none;" d="M179 158L180 159L179 158z"/>
<path style="fill:#f6f8f7; stroke:none;" d="M99 160L100 161L99 160M167 160L167 161L170 161L170 160L167 160M173.333 160.667L173.667 161.333L173.333 160.667M94 161L95 162L94 161M97 161L100 163L100 162L97 161M171 161L169 163L169 164L171 161M175 161L176 162L175 161M95 162L98 164L98 163L95 162M101 163L102 164L101 163M173 163L172 165L173 163z"/>
<path style="fill:#080808; stroke:none;" d="M174 163L176 165L174 163M95 164L96 165L95 164z"/>
<path style="fill:#f6f8f7; stroke:none;" d="M98 165L98 166L102 166L102 165L98 165M168 165L168 168L171 165L168 165z"/>
<path style="fill:#080808; stroke:none;" d="M96 166L97 167L96 166z"/>
<path style="fill:#f6f8f7; stroke:none;" d="M114 168L115 169L114 168M158 168L156 169L156 170L158 168M162 168L163 169L162 168M166 168L164 169L164 170L166 168z"/>
<path style="fill:#080808; stroke:none;" d="M96 169L97 170L96 169z"/>
<path style="fill:#f6f8f7; stroke:none;" d="M103 169L104 170L103 169M105.667 169.333L106.333 169.667L105.667 169.333M108 169L109 170L108 169M116 169L117 170L116 169M118 169L119 170L118 169M154 169L151 170L152 173L156 173L156 172L156 171L154 172L154 169M160 169L158 171L158 172L160 173L160 169z"/>
<path style="fill:#080808; stroke:none;" d="M172 169L174 171L172 169M170 170L171 171L170 170M101 171L102 172L101 171z"/>
<path style="fill:#f6f8f7; stroke:none;" d="M106 171L107 172L106 171M109 171L110 172L109 171M111 171L112 172L111 171z"/>
<path style="fill:#080808; stroke:none;" d="M97 172L98 173L97 172M103 172L104 173L103 172z"/>
<path style="fill:#f6f8f7; stroke:none;" d="M107 172L108 173L107 172M114 172L115 174L112 173L112 174L117 175L114 172z"/>
<path style="fill:#080808; stroke:none;" d="M105 173L106 174L105 173z"/>
<path style="fill:#f6f8f7; stroke:none;" d="M157 173L158 174L157 173M111 174L112 175L111 174M152 174L153 175L152 174z"/>
<path style="fill:#080808; stroke:none;" d="M161 175L161 176L164 176L161 175M167 174L168 175L167 174M170 174L171 175L170 174z"/>
<path style="fill:#f6f8f7; stroke:none;" d="M153 175L154 176L153 175M119 176L120 177L119 176M125 176L126 177L125 176M127 176L127 177L130 177L130 176L127 176M137 176L136 178L137 176M147 176L148 177L147 176z"/>
<path style="fill:#080808; stroke:none;" d="M112 177L113 178L112 177z"/>
<path style="fill:#f6f8f7; stroke:none;" d="M123 177L124 178L123 177M133 177L135 179L135 180L133 182L136 180L136 179L133 177M140 177L141 178L140 177M143 177L142 179L143 177M146 177L147 178L146 177z"/>
<path style="fill:#080808; stroke:none;" d="M116 178L117 179L116 178z"/>
<path style="fill:#f6f8f7; stroke:none;" d="M126 178L127 179L126 178M130 178L131 179L130 178z"/>
<path style="fill:#080808; stroke:none;" d="M146 178L145 180L146 178M149 178L150 179L149 178M121 179L122 180L121 179M128 179L129 180L128 179M137 179L138 180L137 179M113 180L114 181L113 180M118 180L119 181L118 180z"/>
<path style="fill:#f6f8f7; stroke:none;" d="M130 180L131 181L130 180z"/>
<path style="fill:#080808; stroke:none;" d="M115 181L116 182L115 181z"/>
<path style="fill:#f6f8f7; stroke:none;" d="M136 181L137 182L136 181z"/>
<path style="fill:#080808; stroke:none;" d="M142 181L144 183L142 181M127 182L128 183L127 182z"/>
<path style="fill:#f6f8f7; stroke:none;" d="M129 182L130 183L129 182M135 182L134 184L135 182M133 224L134 225L133 224M130 225L131 226L130 225z"/>
<path style="fill:#080808; stroke:none;" d="M139 226L140 227L139 226z"/>
<path style="fill:#f6f8f7; stroke:none;" d="M131 227L132 228L131 227z"/>
<path style="fill:#080808; stroke:none;" d="M128 229L129 230L128 229z"/>
<path style="fill:#f6f8f7; stroke:none;" d="M134.333 229.667L134.667 230.333L134.333 229.667M131.667 230.333L132.333 230.667L131.667 230.333z"/>
</svg>
