<?xml version="1.0" standalone="yes"?>
<svg xmlns="http://www.w3.org/2000/svg" width="268" height="268">
<path style="fill:#fefefe; stroke:none;" d="M51 41L51 58L91 58L91 130C91 139.836 88.5847 153.284 93.9946 162C101.324 173.809 116.173 177.37 129 179L129 199L137 199L137 179C150.803 178.715 168.67 173.942 175.914 160.999C181.08 151.77 179 138.156 179 128L179 58L212 58L212 41L51 41M115 104L122 117C111.7 116.992 111.417 111.511 104 106L104 117L96 117L96 90C101.884 90 110.341 88.468 115.811 90.8935C122.251 93.7489 120.089 101.433 115 104z"/>
<path style="fill:#3e4a59; stroke:none;" d="M113 90L114 91L113 90z"/>
<path style="fill:#777066; stroke:none;" d="M114 90L115 91L114 90z"/>
<path style="fill:#8a9196; stroke:none;" d="M130 90L131 91L130 90z"/>
<path style="fill:#777066; stroke:none;" d="M131 90L132 91L131 90z"/>
<path style="fill:#3e4a59; stroke:none;" d="M132 90L133 91L132 90M138.667 90.3333L139.333 90.6667L138.667 90.3333z"/>
<path style="fill:#8a9196; stroke:none;" d="M140 90L141 91L140 90z"/>
<path style="fill:#fefefe; stroke:none;" d="M175 90L175 96L167 96L167 117L158 117L158 96L150 96L150 90L175 90z"/>
<path style="fill:#3e4a59; stroke:none;" d="M174 90L174 96L175 96L174 90M116 91L117 92L116 91z"/>
<path style="fill:#8a9196; stroke:none;" d="M117 91L118 92L117 91z"/>
<path style="fill:#777066; stroke:none;" d="M128 91L129 92L128 91z"/>
<path style="fill:#3e4a59; stroke:none;" d="M142 91L143 92L142 91z"/>
<path style="fill:#8a9196; stroke:none;" d="M144 92L145 93L144 92z"/>
<path style="fill:#777066; stroke:none;" d="M119 94L120 95L119 94z"/>
<path style="fill:#3e4a59; stroke:none;" d="M125 94L126 95L125 94M145 94L146 95L145 94M119.333 95.6667L119.667 96.3333L119.333 95.6667M132 95L133 96L132 95z"/>
<path style="fill:#8a9196; stroke:none;" d="M137 95L139 97L137 95z"/>
<path style="fill:#fefefe; stroke:none;" d="M104 96L104 100L112 99L104 96z"/>
<path style="fill:#8a9196; stroke:none;" d="M110 96L112 98L110 96M124 96L125 97L124 96M146.333 96.6667L146.667 97.3333L146.333 96.6667z"/>
<path style="fill:#777066; stroke:none;" d="M158 96L158 117L159 117L158 96z"/>
<path style="fill:#8a9196; stroke:none;" d="M166 96L166 115L167 115L166 96z"/>
<path style="fill:#777066; stroke:none;" d="M124 97L125 98L124 97z"/>
<path style="fill:#3e4a59; stroke:none;" d="M142 97L142 98L145 98L142 97z"/>
<path style="fill:#777066; stroke:none;" d="M145 97L146 98L145 97z"/>
<path style="fill:#3e4a59; stroke:none;" d="M119.333 98.6667L119.667 99.3333L119.333 98.6667z"/>
<path style="fill:#8a9196; stroke:none;" d="M124.333 98.6667L124.667 99.3333L124.333 98.6667M133 98L134 99L133 98M110 99L111 100L110 99z"/>
<path style="fill:#3e4a59; stroke:none;" d="M136 99L137 100L136 99z"/>
<path style="fill:#8a9196; stroke:none;" d="M137 99L138 100L137 99M119 100L120 101L119 100z"/>
<path style="fill:#3e4a59; stroke:none;" d="M140 100L141 101L140 100z"/>
<path style="fill:#8a9196; stroke:none;" d="M141 100L142 101L141 100z"/>
<path style="fill:#3e4a59; stroke:none;" d="M118 101L119 102L118 101z"/>
<path style="fill:#8a9196; stroke:none;" d="M125 101L127 103L125 101M143 101L144 102L143 101z"/>
<path style="fill:#3e4a59; stroke:none;" d="M144 102L145 103L144 102M116 103L117 104L116 103M128 103L129 104L128 103z"/>
<path style="fill:#777066; stroke:none;" d="M114 104L115 105L114 104z"/>
<path style="fill:#3e4a59; stroke:none;" d="M130 104L131 105L130 104M146 104L147 105L146 104M114 105L115 106L114 105z"/>
<path style="fill:#8a9196; stroke:none;" d="M132 105L133 106L132 105z"/>
<path style="fill:#777066; stroke:none;" d="M133 105L134 106L133 105z"/>
<path style="fill:#3e4a59; stroke:none;" d="M134 105L135 106L134 105z"/>
<path style="fill:#8a9196; stroke:none;" d="M106 106L108 108L106 106M136 106L137 107L136 106z"/>
<path style="fill:#3e4a59; stroke:none;" d="M137 106L138 107L137 106z"/>
<path style="fill:#777066; stroke:none;" d="M147 106L148 107L147 106z"/>
<path style="fill:#8a9196; stroke:none;" d="M123 107L123 110L124 110L123 107z"/>
<path style="fill:#777066; stroke:none;" d="M124 107L124 108L127 108L124 107z"/>
<path style="fill:#3e4a59; stroke:none;" d="M127.667 107.333L128.333 107.667L127.667 107.333z"/>
<path style="fill:#8a9196; stroke:none;" d="M131 107L132 108L131 107M147 107L148 108L147 107z"/>
<path style="fill:#777066; stroke:none;" d="M108 108L109 109L108 108z"/>
<path style="fill:#3e4a59; stroke:none;" d="M117 108L118 109L117 108z"/>
<path style="fill:#777066; stroke:none;" d="M131 108L132 109L131 108z"/>
<path style="fill:#8a9196; stroke:none;" d="M139 108L140 109L139 108z"/>
<path style="fill:#3e4a59; stroke:none;" d="M147 108L148 109L147 108M131 109L132 110L131 109z"/>
<path style="fill:#8a9196; stroke:none;" d="M147 109L148 110L147 109z"/>
<path style="fill:#777066; stroke:none;" d="M109 110L110 111L109 110z"/>
<path style="fill:#3e4a59; stroke:none;" d="M118 110L119 111L118 110z"/>
<path style="fill:#777066; stroke:none;" d="M132 110L133 111L132 110z"/>
<path style="fill:#3e4a59; stroke:none;" d="M139 110L138 112L139 110z"/>
<path style="fill:#8a9196; stroke:none;" d="M119 111L120 112L119 111z"/>
<path style="fill:#777066; stroke:none;" d="M124 111L125 112L124 111z"/>
<path style="fill:#3e4a59; stroke:none;" d="M133 111L134 112L133 111z"/>
<path style="fill:#8a9196; stroke:none;" d="M134 111L135 112L134 111M137 111L138 112L137 111z"/>
<path style="fill:#3e4a59; stroke:none;" d="M146 111L147 112L146 111z"/>
<path style="fill:#8a9196; stroke:none;" d="M110 112L111 113L110 112z"/>
<path style="fill:#3e4a59; stroke:none;" d="M119 112L120 113L119 112z"/>
<path style="fill:#8a9196; stroke:none;" d="M146 112L147 113L146 112M120 113L121 114L120 113z"/>
<path style="fill:#777066; stroke:none;" d="M145 113L146 114L145 113z"/>
<path style="fill:#8a9196; stroke:none;" d="M111 114L112 115L111 114z"/>
<path style="fill:#3e4a59; stroke:none;" d="M120 114L121 115L120 114z"/>
<path style="fill:#8a9196; stroke:none;" d="M126 114L127 115L126 114M144 114L145 115L144 114z"/>
<path style="fill:#3e4a59; stroke:none;" d="M112 115L113 116L112 115z"/>
<path style="fill:#8a9196; stroke:none;" d="M121 115L122 116L121 115z"/>
<path style="fill:#3e4a59; stroke:none;" d="M128 115L129 116L128 115M142 115L143 116L142 115z"/>
<path style="fill:#777066; stroke:none;" d="M166 115L167 116L166 115z"/>
<path style="fill:#3e4a59; stroke:none;" d="M121 116L122 117L121 116z"/>
<path style="fill:#8a9196; stroke:none;" d="M130 116L131 117L130 116z"/>
<path style="fill:#777066; stroke:none;" d="M131 116L132 117L131 116z"/>
<path style="fill:#3e4a59; stroke:none;" d="M132 116L133 117L132 116M138.667 116.333L139.333 116.667L138.667 116.333z"/>
<path style="fill:#8a9196; stroke:none;" d="M140 116L141 117L140 116M166 116L167 117L166 116z"/>
</svg>
