<?xml version="1.0" standalone="yes"?>
<svg xmlns="http://www.w3.org/2000/svg" width="266" height="266">
<path style="fill:#060606; stroke:none;" d="M210 40L211 41L210 40z"/>
<path style="fill:#ffffff; stroke:none;" d="M50 41L50 42L52 43L50 58L90 58L90 123C90 133.427 88.1761 145.82 90.5293 156C92.9246 166.362 108.036 178.268 119 176L128 179L128 199L136 199L136 178C143.963 179.966 162.268 176.738 165 168L166 168L167 170L171 163C179.692 160.257 178 144.351 178 137L178 58L211 58L211 42C198.593 36.7937 176.515 41 163 41L50 41z"/>
<path style="fill:#060606; stroke:none;" d="M49 42L50 43L49 42z"/>
<path style="fill:#f8f8f8; stroke:none;" d="M50.6667 42.3333L51.3333 42.6667L50.6667 42.3333M209.667 42.3333L210.333 42.6667L209.667 42.3333M208 43L210 47L208 43z"/>
<path style="fill:#060606; stroke:none;" d="M211 43L212 44L211 43z"/>
<path style="fill:#f8f8f8; stroke:none;" d="M55 44L54 46L55 44z"/>
<path style="fill:#ffffff; stroke:none;" d="M208 44L209 45L208 44z"/>
<path style="fill:#0a0a0a; stroke:none;" d="M49 45L50 46L49 45z"/>
<path style="fill:#f8f8f8; stroke:none;" d="M50 45L51 46L50 45z"/>
<path style="fill:#060606; stroke:none;" d="M211 46L212 47L211 46M214 46L215 47L214 46z"/>
<path style="fill:#f8f8f8; stroke:none;" d="M208 56L209 57L208 56M55 57L56 58L55 57z"/>
<path style="fill:#060606; stroke:none;" d="M215 57L216 58L215 57M55 58L56 59L55 58M183 58L184 59L183 58M208 59L208 62L209 62L208 59M211 59L212 60L211 59M54 60L55 61L54 60z"/>
<path style="fill:#f8f8f8; stroke:none;" d="M176 60L177 61L176 60z"/>
<path style="fill:#060606; stroke:none;" d="M50 61L51 62L50 61M89 61L90 62L89 61M178 61L179 62L178 61z"/>
<path style="fill:#0a0a0a; stroke:none;" d="M210 61L211 62L210 61z"/>
<path style="fill:#060606; stroke:none;" d="M211 61L212 62L211 61z"/>
<path style="fill:#f8f8f8; stroke:none;" d="M176 62L177 63L176 62z"/>
<path style="fill:#060606; stroke:none;" d="M179 146L180 147L179 146M181 146L182 147L181 146M183 147L182 149L183 147z"/>
<path style="fill:#f8f8f8; stroke:none;" d="M176 148L177 149L176 148z"/>
<path style="fill:#060606; stroke:none;" d="M179 148L180 149L179 148z"/>
<path style="fill:#f8f8f8; stroke:none;" d="M177 149L178 150L177 149z"/>
<path style="fill:#060606; stroke:none;" d="M179 150L180 151L179 150M177 152L178 153L177 152M179 152L180 153L179 152M88 154L89 155L88 154z"/>
<path style="fill:#f8f8f8; stroke:none;" d="M91 154L92 155L91 154z"/>
<path style="fill:#060606; stroke:none;" d="M179 154L180 155L179 154z"/>
<path style="fill:#0a0a0a; stroke:none;" d="M178 155L179 156L178 155z"/>
<path style="fill:#060606; stroke:none;" d="M182 155L183 156L182 155z"/>
<path style="fill:#0a0a0a; stroke:none;" d="M89 156L88 158L89 156z"/>
<path style="fill:#060606; stroke:none;" d="M90 156L91 157L90 156z"/>
<path style="fill:#f8f8f8; stroke:none;" d="M93 156L94 157L93 156M176 156L177 157L176 156z"/>
<path style="fill:#060606; stroke:none;" d="M177 156L178 157L177 156M182 157L183 158L182 157M90 158L91 159L90 158z"/>
<path style="fill:#f8f8f8; stroke:none;" d="M94 158L95 159L94 158M172 158L173 159L172 158z"/>
<path style="fill:#0a0a0a; stroke:none;" d="M178 158L179 159L178 158z"/>
<path style="fill:#060606; stroke:none;" d="M177 159L178 160L177 159z"/>
<path style="fill:#f8f8f8; stroke:none;" d="M93 160L94 161L93 160M99 160L96 164L98 163L97 166L98 166L99 160M166.667 160.333L167.333 160.667L166.667 160.333M169 160L171 162L169 160z"/>
<path style="fill:#060606; stroke:none;" d="M175 161L176 162L175 161M90 162L91 163L90 162z"/>
<path style="fill:#f8f8f8; stroke:none;" d="M94 162L95 163L94 162M169 163L168 167L169 163M171.667 163.333L172.333 163.667L171.667 163.333z"/>
<path style="fill:#060606; stroke:none;" d="M173 163L173 164L176 165L173 163M92 164L94 166L92 164M89 165L90 166L89 165z"/>
<path style="fill:#0a0a0a; stroke:none;" d="M94 165L96 167L94 165z"/>
<path style="fill:#f8f8f8; stroke:none;" d="M102 165L103 166L102 165z"/>
<path style="fill:#060606; stroke:none;" d="M91 166L92 167L91 166z"/>
<path style="fill:#f8f8f8; stroke:none;" d="M99.6667 166.333L100.333 166.667L99.6667 166.333z"/>
<path style="fill:#060606; stroke:none;" d="M170 166L171 167L170 166M172 166L173 167L172 166M175 166L176 167L175 166M96 167L97 168L96 167z"/>
<path style="fill:#f8f8f8; stroke:none;" d="M109 168L110 169L109 168M161 168L164 170L164 169L161 168M165.333 168.667L165.667 169.333L165.333 168.667z"/>
<path style="fill:#060606; stroke:none;" d="M96 169L97 170L96 169M99 169L100 170L99 169z"/>
<path style="fill:#f8f8f8; stroke:none;" d="M100 169L101 170L100 169M102 169L104 171L102 169M105 169L106 170L105 169M153 169L152 172L153 172L153 169M155.667 169.333L156.333 169.667L155.667 169.333z"/>
<path style="fill:#060606; stroke:none;" d="M101 170L102 171L101 170z"/>
<path style="fill:#f8f8f8; stroke:none;" d="M109 170L111 172L109 170M112 170L113 171L112 170z"/>
<path style="fill:#060606; stroke:none;" d="M96 173L97 174L99 171L96 173z"/>
<path style="fill:#f8f8f8; stroke:none;" d="M159 171L160 172L159 171z"/>
<path style="fill:#060606; stroke:none;" d="M167 171L168 172L167 171M102 172L103 173L102 172z"/>
<path style="fill:#f8f8f8; stroke:none;" d="M106 172L108 174L106 172z"/>
<path style="fill:#060606; stroke:none;" d="M163 172L164 173L163 172M99 173L100 174L99 173M104 173L105 174L104 173z"/>
<path style="fill:#f8f8f8; stroke:none;" d="M114 173L115 174L114 173M155 173L156 174L155 173M157 173L158 174L157 173z"/>
<path style="fill:#060606; stroke:none;" d="M101 174L101 175L104 176L101 174M105 175L105 176L109 175L105 175z"/>
<path style="fill:#f8f8f8; stroke:none;" d="M110 174L111 175L110 174z"/>
<path style="fill:#060606; stroke:none;" d="M160 175L160 176L165 175L160 175M166.667 174.333L167.333 174.667L166.667 174.333M110 175L111 176L110 175M156 175L157 176L156 175z"/>
<path style="fill:#f8f8f8; stroke:none;" d="M118 176L119 177L118 176M124 176L124 177L127 177L127 176L124 176M138 176L137 178L138 176M146 176L147 177L146 176z"/>
<path style="fill:#060606; stroke:none;" d="M112.667 177.333L113.333 177.667L112.667 177.333z"/>
<path style="fill:#f8f8f8; stroke:none;" d="M120 177L121 178L120 177M123 177L124 178L123 177z"/>
<path style="fill:#060606; stroke:none;" d="M120 178L121 183L122 183L121 180L128 180L128 179L120 178M123.667 178.333L124.333 178.667L123.667 178.333z"/>
<path style="fill:#f8f8f8; stroke:none;" d="M136 178L137 179L136 178M138 178L139 179L138 178M141 178L142 179L141 178z"/>
<path style="fill:#060606; stroke:none;" d="M150 178L148 181L152 180L152 179L150 178M112 179L113 180L112 179M114 179L115 180L114 179M118 179L119 180L118 179M138 179L139 180L138 179M146 179L145 181L146 179M151 179L150 180L151 179z"/>
<path style="fill:#0a0a0a; stroke:none;" d="M112 180L113 181L112 180M117 180L118 181L117 180z"/>
<path style="fill:#060606; stroke:none;" d="M141 180L142 181L141 180M113.667 181.333L114.333 181.667L113.667 181.333M116 181L117 182L116 181M127 181L126 183L127 181M136 181L137 182L136 181M138 181L139 182L138 181z"/>
<path style="fill:#0a0a0a; stroke:none;" d="M118 182L119 183L118 182M142 182L143 183L142 182z"/>
<path style="fill:#060606; stroke:none;" d="M143 182L145 184L143 182M148 182L147 184L148 182M150 182L151 183L150 182M137 183L138 184L137 183M140 183L141 184L140 183z"/>
</svg>
