<?xml version="1.0" standalone="yes"?>
<svg xmlns="http://www.w3.org/2000/svg" width="479" height="443">
<path style="fill:#303030; stroke:none;" d="M229 46L229 47L235 47L229 46z"/>
<path style="fill:#5d5d5d; stroke:none;" d="M235 46L235 47L243 47L235 46z"/>
<path style="fill:#303030; stroke:none;" d="M243 46L243 47L248 47L243 46M216.667 47.3333L217.333 47.6667L216.667 47.3333z"/>
<path style="fill:#5d5d5d; stroke:none;" d="M218 47L219 48L218 47z"/>
<path style="fill:#9d9d9d; stroke:none;" d="M219.667 47.3333L220.333 47.6667L219.667 47.3333z"/>
<path style="fill:#fefefe; stroke:none;" d="M34 250L60 251C60 228.222 64.0254 206.231 72.4498 185C119.003 67.6789 274.223 35.297 364 123.015C380.182 138.825 394.065 158.165 402.999 179C412.909 202.109 418 225.869 418 251L444 250C441.556 236.836 442.222 223.276 439.551 210C432.514 175.023 415.744 141.476 391.83 115C307.971 22.1557 155.202 25.1285 77.6651 125C58.4115 149.8 44.6493 179.183 38.4491 210C35.778 223.276 36.4439 236.836 34 250z"/>
<path style="fill:#9d9d9d; stroke:none;" d="M258 47L259 48L258 47z"/>
<path style="fill:#5d5d5d; stroke:none;" d="M259 47L260 48L259 47z"/>
<path style="fill:#303030; stroke:none;" d="M260 47L261 48L260 47M209 48L210 49L209 48z"/>
<path style="fill:#5d5d5d; stroke:none;" d="M210 48L211 49L210 48z"/>
<path style="fill:#9d9d9d; stroke:none;" d="M211 48L212 49L211 48z"/>
<path style="fill:#5d5d5d; stroke:none;" d="M267 48L268 49L267 48z"/>
<path style="fill:#303030; stroke:none;" d="M268 48L269 49L268 48M203 49L204 50L203 49z"/>
<path style="fill:#9d9d9d; stroke:none;" d="M204 49L205 50L204 49M273 49L274 50L273 49z"/>
<path style="fill:#5d5d5d; stroke:none;" d="M274 49L275 50L274 49z"/>
<path style="fill:#303030; stroke:none;" d="M197 50L198 51L197 50z"/>
<path style="fill:#5d5d5d; stroke:none;" d="M198 50L199 51L198 50z"/>
<path style="fill:#9d9d9d; stroke:none;" d="M278.667 50.3333L279.333 50.6667L278.667 50.3333z"/>
<path style="fill:#303030; stroke:none;" d="M193 51L194 52L193 51z"/>
<path style="fill:#9d9d9d; stroke:none;" d="M194 51L195 52L194 51M283 51L284 52L283 51z"/>
<path style="fill:#303030; stroke:none;" d="M284 51L285 52L284 51z"/>
<path style="fill:#5d5d5d; stroke:none;" d="M189 52L190 53L189 52M288 52L289 53L288 52z"/>
<path style="fill:#303030; stroke:none;" d="M185 53L186 54L185 53z"/>
<path style="fill:#5d5d5d; stroke:none;" d="M292 53L293 54L292 53z"/>
<path style="fill:#9d9d9d; stroke:none;" d="M182 54L183 55L182 54M295 54L296 55L295 54z"/>
<path style="fill:#303030; stroke:none;" d="M178 55L179 56L178 55M299 55L300 56L299 55M175 56L176 57L175 56z"/>
<path style="fill:#5d5d5d; stroke:none;" d="M302 56L303 57L302 56z"/>
<path style="fill:#303030; stroke:none;" d="M172 57L173 58L172 57z"/>
<path style="fill:#5d5d5d; stroke:none;" d="M305 57L306 58L305 57M169 58L170 59L169 58z"/>
<path style="fill:#303030; stroke:none;" d="M308 58L309 59L308 58z"/>
<path style="fill:#9d9d9d; stroke:none;" d="M167 59L168 60L167 59M310 59L311 60L310 59z"/>
<path style="fill:#5d5d5d; stroke:none;" d="M164 60L165 61L164 60M313 60L314 61L313 60z"/>
<path style="fill:#9d9d9d; stroke:none;" d="M162 61L163 62L162 61M315 61L316 62L315 61z"/>
<path style="fill:#303030; stroke:none;" d="M159 62L160 63L159 62z"/>
<path style="fill:#5d5d5d; stroke:none;" d="M318 62L319 63L318 62z"/>
<path style="fill:#9d9d9d; stroke:none;" d="M157 63L158 64L157 63M155 64L156 65L155 64z"/>
<path style="fill:#303030; stroke:none;" d="M152 65L153 66L152 65M325 65L326 66L325 65M150 66L151 67L150 66M327 66L328 67L327 66M148 67L149 68L148 67z"/>
<path style="fill:#5d5d5d; stroke:none;" d="M329 67L330 68L329 67z"/>
<path style="fill:#303030; stroke:none;" d="M146 68L147 69L146 68M331 68L332 69L331 68M144 69L145 70L144 69M333 69L334 70L333 69M335 70L336 71L335 70M337 71L338 72L337 71z"/>
<path style="fill:#9d9d9d; stroke:none;" d="M139 72L140 73L139 72z"/>
<path style="fill:#5d5d5d; stroke:none;" d="M224 72L224 73L227 73L224 72z"/>
<path style="fill:#303030; stroke:none;" d="M227 72L228 73L227 72M250.667 72.3333L251.333 72.6667L250.667 72.3333z"/>
<path style="fill:#5d5d5d; stroke:none;" d="M252 72L253 73L252 72z"/>
<path style="fill:#9d9d9d; stroke:none;" d="M253.667 72.3333L254.333 72.6667L253.667 72.3333M338 72L339 73L338 72z"/>
<path style="fill:#5d5d5d; stroke:none;" d="M137 73L138 74L137 73z"/>
<path style="fill:#9d9d9d; stroke:none;" d="M214.667 73.3333L215.333 73.6667L214.667 73.3333z"/>
<path style="fill:#303030; stroke:none;" d="M216.667 73.3333L217.333 73.6667L216.667 73.3333M261 73L262 74L261 73z"/>
<path style="fill:#5d5d5d; stroke:none;" d="M262 73L263 74L262 73z"/>
<path style="fill:#9d9d9d; stroke:none;" d="M263 73L264 74L263 73z"/>
<path style="fill:#5d5d5d; stroke:none;" d="M340 73L341 74L340 73z"/>
<path style="fill:#303030; stroke:none;" d="M135 74L136 75L135 74z"/>
<path style="fill:#5d5d5d; stroke:none;" d="M208 74L209 75L208 74z"/>
<path style="fill:#303030; stroke:none;" d="M209 74L210 75L209 74M268 74L269 75L268 74z"/>
<path style="fill:#9d9d9d; stroke:none;" d="M269 74L270 75L269 74z"/>
<path style="fill:#303030; stroke:none;" d="M342 74L343 75L342 74z"/>
<path style="fill:#9d9d9d; stroke:none;" d="M202 75L203 76L202 75z"/>
<path style="fill:#5d5d5d; stroke:none;" d="M203 75L204 76L203 75z"/>
<path style="fill:#303030; stroke:none;" d="M204 75L205 76L204 75M273 75L274 76L273 75z"/>
<path style="fill:#5d5d5d; stroke:none;" d="M274 75L275 76L274 75z"/>
<path style="fill:#9d9d9d; stroke:none;" d="M132 76L133 77L132 76M198 76L199 77L198 76z"/>
<path style="fill:#303030; stroke:none;" d="M199 76L200 77L199 76z"/>
<path style="fill:#5d5d5d; stroke:none;" d="M278 76L279 77L278 76z"/>
<path style="fill:#9d9d9d; stroke:none;" d="M279 76L280 77L279 76z"/>
<path style="fill:#5d5d5d; stroke:none;" d="M345 76L346 77L345 76z"/>
<path style="fill:#303030; stroke:none;" d="M130 77L131 78L130 77z"/>
<path style="fill:#5d5d5d; stroke:none;" d="M194 77L195 78L194 77z"/>
<path style="fill:#9d9d9d; stroke:none;" d="M283 77L284 78L283 77z"/>
<path style="fill:#303030; stroke:none;" d="M347 77L348 78L347 77z"/>
<path style="fill:#9d9d9d; stroke:none;" d="M129 78L130 79L129 78M190 78L191 79L190 78z"/>
<path style="fill:#5d5d5d; stroke:none;" d="M191 78L192 79L191 78z"/>
<path style="fill:#303030; stroke:none;" d="M286 78L287 79L286 78z"/>
<path style="fill:#9d9d9d; stroke:none;" d="M287 78L288 79L287 78M348 78L349 79L348 78z"/>
<path style="fill:#303030; stroke:none;" d="M127 79L128 80L127 79z"/>
<path style="fill:#5d5d5d; stroke:none;" d="M187 79L188 80L187 79M290 79L291 80L290 79M350 79L351 80L350 79z"/>
<path style="fill:#303030; stroke:none;" d="M184 80L185 81L184 80z"/>
<path style="fill:#5d5d5d; stroke:none;" d="M293 80L294 81L293 80M124 81L125 82L124 81M181 81L182 82L181 81M296 81L297 82L296 81M353 81L354 82L353 81M178 82L179 83L178 82M299 82L300 83L299 82z"/>
<path style="fill:#9d9d9d; stroke:none;" d="M175 83L176 84L175 83z"/>
<path style="fill:#5d5d5d; stroke:none;" d="M302 83L303 84L302 83z"/>
<path style="fill:#303030; stroke:none;" d="M356 83L357 84L356 83z"/>
<path style="fill:#9d9d9d; stroke:none;" d="M120 84L121 85L120 84z"/>
<path style="fill:#303030; stroke:none;" d="M173 84L174 85L173 84M304 84L305 85L304 84z"/>
<path style="fill:#9d9d9d; stroke:none;" d="M357 84L358 85L357 84M170 85L171 86L170 85M307 85L308 86L307 85z"/>
<path style="fill:#5d5d5d; stroke:none;" d="M117 86L118 87L117 86z"/>
<path style="fill:#303030; stroke:none;" d="M168 86L169 87L168 86z"/>
<path style="fill:#5d5d5d; stroke:none;" d="M309 86L310 87L309 86M360 86L361 87L360 86z"/>
<path style="fill:#303030; stroke:none;" d="M166 87L167 88L166 87z"/>
<path style="fill:#9d9d9d; stroke:none;" d="M361 87L362 88L361 87M163 88L164 89L163 88M314 88L315 89L314 88z"/>
<path style="fill:#303030; stroke:none;" d="M113 89L114 90L113 89z"/>
<path style="fill:#5d5d5d; stroke:none;" d="M161 89L162 90L161 89z"/>
<path style="fill:#9d9d9d; stroke:none;" d="M316 89L317 90L316 89z"/>
<path style="fill:#5d5d5d; stroke:none;" d="M364 89L365 90L364 89z"/>
<path style="fill:#9d9d9d; stroke:none;" d="M112 90L113 91L112 90M159 90L160 91L159 90M318 90L319 91L318 90M365 90L366 91L365 90M157 91L158 92L157 91M320 91L321 92L320 91M155 92L156 93L155 92M322 92L323 93L322 92z"/>
<path style="fill:#5d5d5d; stroke:none;" d="M108 93L107 95L108 93z"/>
<path style="fill:#9d9d9d; stroke:none;" d="M153 93L154 94L153 93z"/>
<path style="fill:#5d5d5d; stroke:none;" d="M369 93L370 94L369 93z"/>
<path style="fill:#9d9d9d; stroke:none;" d="M370 94L371 95L370 94z"/>
<path style="fill:#5d5d5d; stroke:none;" d="M150 95L151 96L150 95M327 95L328 96L327 95z"/>
<path style="fill:#9d9d9d; stroke:none;" d="M148 96L149 97L148 96z"/>
<path style="fill:#5d5d5d; stroke:none;" d="M329 96L330 97L329 96z"/>
<path style="fill:#303030; stroke:none;" d="M145 98L146 99L145 98M332 98L333 99L332 98M375 98L378 101L375 98M101 99L102 100L101 99z"/>
<path style="fill:#9d9d9d; stroke:none;" d="M143 99L144 100L143 99z"/>
<path style="fill:#5d5d5d; stroke:none;" d="M334 99L335 100L334 99M100 100L98 103L100 100z"/>
<path style="fill:#303030; stroke:none;" d="M142 100L143 101L142 100z"/>
<path style="fill:#5d5d5d; stroke:none;" d="M140 101L141 102L140 101M337 101L338 102L337 101M378 101L380 103L378 101z"/>
<path style="fill:#9d9d9d; stroke:none;" d="M97 103L96 105L97 103z"/>
<path style="fill:#5d5d5d; stroke:none;" d="M137 103L138 104L137 103M340 103L341 104L340 103z"/>
<path style="fill:#9d9d9d; stroke:none;" d="M380 103L389 112L380 103M343 105L344 106L343 105z"/>
<path style="fill:#303030; stroke:none;" d="M133 106L134 107L133 106M344 106L345 107L344 106z"/>
<path style="fill:#9d9d9d; stroke:none;" d="M93 107L91 110L93 107M130 108L131 109L130 108z"/>
<path style="fill:#5d5d5d; stroke:none;" d="M347 108L349 110L347 108M129 109L130 110L129 109M90 110L89 112L90 110z"/>
<path style="fill:#303030; stroke:none;" d="M88 112L89 113L88 112z"/>
<path style="fill:#9d9d9d; stroke:none;" d="M125 112L126 113L125 112M352 112L353 113L352 112z"/>
<path style="fill:#5d5d5d; stroke:none;" d="M389 112L390 113L389 112M87 113L88 114L87 113z"/>
<path style="fill:#303030; stroke:none;" d="M124 113L123 115L124 113M353 113L354 114L353 113M390 113L392 115L390 113M86 114L87 115L86 114z"/>
<path style="fill:#9d9d9d; stroke:none;" d="M118 118L119 119L118 118M359 118L361 120L359 118M394 118L395 119L394 118M82 119L83 120L82 119z"/>
<path style="fill:#5d5d5d; stroke:none;" d="M117 119L114 123L117 119M395 119L397 121L395 119M81 120L82 121L81 120M361 120L364 123L361 120z"/>
<path style="fill:#303030; stroke:none;" d="M80 121L81 122L80 121M397 121L398 122L397 121M113 123L110 127L113 123M364 123L368 127L364 123z"/>
<path style="fill:#9d9d9d; stroke:none;" d="M399 124L400 125L399 124z"/>
<path style="fill:#5d5d5d; stroke:none;" d="M77 125L78 126L77 125M400 125L401 126L400 125M109 127L108 129L109 127M368 127L371 130L368 127M74 129L75 130L74 129z"/>
<path style="fill:#9d9d9d; stroke:none;" d="M107 129L106 131L107 129z"/>
<path style="fill:#5d5d5d; stroke:none;" d="M403 129L404 130L403 129z"/>
<path style="fill:#303030; stroke:none;" d="M73 130L74 131L73 130z"/>
<path style="fill:#9d9d9d; stroke:none;" d="M371 130L372 131L371 130M72 132L73 133L72 132M405 132L406 133L405 132z"/>
<path style="fill:#303030; stroke:none;" d="M71 133L72 134L71 133M406 133L407 134L406 133M375 135L377 137L375 135z"/>
<path style="fill:#5d5d5d; stroke:none;" d="M69 136L70 137L69 136z"/>
<path style="fill:#303030; stroke:none;" d="M101 136L102 137L101 136z"/>
<path style="fill:#5d5d5d; stroke:none;" d="M408 136L409 137L408 136M100 137L101 138L100 137M377 137L378 138L377 137M67 139L68 140L67 139M410 139L411 140L410 139z"/>
<path style="fill:#303030; stroke:none;" d="M97 141L98 142L97 141z"/>
<path style="fill:#5d5d5d; stroke:none;" d="M380 141L381 142L380 141M65 142L66 143L65 142M96 142L97 143L96 142z"/>
<path style="fill:#9d9d9d; stroke:none;" d="M381 142L382 143L381 142z"/>
<path style="fill:#303030; stroke:none;" d="M412 142L413 143L412 142z"/>
<path style="fill:#9d9d9d; stroke:none;" d="M64 144L65 145L64 144M413 144L414 145L413 144z"/>
<path style="fill:#303030; stroke:none;" d="M94 145L95 146L94 145z"/>
<path style="fill:#5d5d5d; stroke:none;" d="M383 145L384 146L383 145z"/>
<path style="fill:#9d9d9d; stroke:none;" d="M93 146L94 147L93 146M384 146L385 147L384 146z"/>
<path style="fill:#5d5d5d; stroke:none;" d="M62 147L63 148L62 147z"/>
<path style="fill:#303030; stroke:none;" d="M415 147L416 148L415 147z"/>
<path style="fill:#9d9d9d; stroke:none;" d="M61 149L62 150L61 149z"/>
<path style="fill:#5d5d5d; stroke:none;" d="M91 149L92 150L91 149M386 149L387 150L386 149z"/>
<path style="fill:#9d9d9d; stroke:none;" d="M416 149L417 150L416 149z"/>
<path style="fill:#303030; stroke:none;" d="M59 152L60 153L59 152z"/>
<path style="fill:#5d5d5d; stroke:none;" d="M89 152L90 153L89 152M388 152L389 153L388 152z"/>
<path style="fill:#303030; stroke:none;" d="M418 152L419 153L418 152M58 154L59 155L58 154z"/>
<path style="fill:#5d5d5d; stroke:none;" d="M419 154L420 155L419 154M87 155L88 156L87 155z"/>
<path style="fill:#9d9d9d; stroke:none;" d="M390 155L391 156L390 155z"/>
<path style="fill:#303030; stroke:none;" d="M57 156L58 157L57 156M420 156L421 157L420 156M56 158L57 159L56 158z"/>
<path style="fill:#9d9d9d; stroke:none;" d="M85 158L86 159L85 158z"/>
<path style="fill:#303030; stroke:none;" d="M86 158L87 159L86 158z"/>
<path style="fill:#9d9d9d; stroke:none;" d="M392 158L393 159L392 158z"/>
<path style="fill:#5d5d5d; stroke:none;" d="M421 158L422 159L421 158M55 160L56 161L55 160M84 160L85 161L84 160M393 160L394 161L393 160M422 160L423 161L422 160M54 162L55 163L54 162z"/>
<path style="fill:#303030; stroke:none;" d="M83 162L84 163L83 162M394 162L395 163L394 162z"/>
<path style="fill:#5d5d5d; stroke:none;" d="M423 162L424 163L423 162M53 164L54 165L53 164z"/>
<path style="fill:#303030; stroke:none;" d="M424 164L425 165L424 164z"/>
<path style="fill:#9d9d9d; stroke:none;" d="M81 165L82 166L81 165M396 165L397 166L396 165z"/>
<path style="fill:#303030; stroke:none;" d="M52 166L53 167L52 166M425 166L426 167L425 166z"/>
<path style="fill:#9d9d9d; stroke:none;" d="M80 167L81 168L80 167z"/>
<path style="fill:#5d5d5d; stroke:none;" d="M397 167L398 168L397 167M79 169L80 170L79 169M398 169L399 170L398 169z"/>
<path style="fill:#9d9d9d; stroke:none;" d="M426 169L427 170L426 169M50 171L51 172L50 171z"/>
<path style="fill:#5d5d5d; stroke:none;" d="M78 171L79 172L78 171M399 171L400 172L399 171z"/>
<path style="fill:#9d9d9d; stroke:none;" d="M427 171L428 172L427 171z"/>
<path style="fill:#5d5d5d; stroke:none;" d="M49 173L50 174L49 173M77 173L78 174L77 173M400 173L401 174L400 173M428 173L429 174L428 173z"/>
<path style="fill:#9d9d9d; stroke:none;" d="M76 175L77 176L76 175z"/>
<path style="fill:#5d5d5d; stroke:none;" d="M401 175L402 176L401 175z"/>
<path style="fill:#9d9d9d; stroke:none;" d="M48 176L49 177L48 176M429 176L430 177L429 176M75 177L76 178L75 177M402 177L403 178L402 177z"/>
<path style="fill:#303030; stroke:none;" d="M47 178L48 179L47 178M430 178L431 179L430 178M74 180L75 181L74 180M403 180L404 181L403 180z"/>
<path style="fill:#9d9d9d; stroke:none;" d="M46 181L47 182L46 181z"/>
<path style="fill:#5d5d5d; stroke:none;" d="M431 181L432 182L431 181M73 182L74 183L73 182M404 182L405 183L404 182M45 184L46 185L45 184z"/>
<path style="fill:#9d9d9d; stroke:none;" d="M72 184L73 185L72 184M405 184L406 185L405 184z"/>
<path style="fill:#5d5d5d; stroke:none;" d="M432 184L433 185L432 184z"/>
<path style="fill:#303030; stroke:none;" d="M72 185L73 186L72 185M405 185L406 186L405 185z"/>
<path style="fill:#9d9d9d; stroke:none;" d="M44 187L45 188L44 187z"/>
<path style="fill:#5d5d5d; stroke:none;" d="M71 187L72 188L71 187M406 187L407 188L406 187z"/>
<path style="fill:#9d9d9d; stroke:none;" d="M433 187L434 188L433 187M407 189L408 190L407 189z"/>
<path style="fill:#5d5d5d; stroke:none;" d="M43 190L44 191L43 190z"/>
<path style="fill:#303030; stroke:none;" d="M70 190L71 191L70 190M407 190L408 191L407 190z"/>
<path style="fill:#5d5d5d; stroke:none;" d="M434 190L435 191L434 190z"/>
<path style="fill:#9d9d9d; stroke:none;" d="M408 192L409 193L408 192z"/>
<path style="fill:#5d5d5d; stroke:none;" d="M42 193L43 194L42 193z"/>
<path style="fill:#303030; stroke:none;" d="M69 193L70 194L69 193M408 193L409 194L408 193z"/>
<path style="fill:#5d5d5d; stroke:none;" d="M435 193L436 194L435 193z"/>
<path style="fill:#9d9d9d; stroke:none;" d="M68 195L69 196L68 195M409 195L410 196L409 195z"/>
<path style="fill:#303030; stroke:none;" d="M68 196L69 197L68 196z"/>
<path style="fill:#9d9d9d; stroke:none;" d="M41 197L42 198L41 197z"/>
<path style="fill:#5d5d5d; stroke:none;" d="M436 197L437 198L436 197z"/>
<path style="fill:#9d9d9d; stroke:none;" d="M67 198L68 199L67 198M410 198L411 199L410 198z"/>
<path style="fill:#303030; stroke:none;" d="M67 199L68 200L67 199M410 199L411 200L410 199M40 200L41 201L40 200M437 200L438 201L437 200z"/>
<path style="fill:#9d9d9d; stroke:none;" d="M40 201L41 202L40 201M437 201L438 202L437 201M66 202L67 203L66 202z"/>
<path style="fill:#5d5d5d; stroke:none;" d="M411 202L412 203L411 202z"/>
<path style="fill:#9d9d9d; stroke:none;" d="M39 205L40 206L39 205M65 205L66 206L65 205M412 205L413 206L412 205M438 205L439 206L438 205z"/>
<path style="fill:#303030; stroke:none;" d="M65 206L66 207L65 206M412 206L413 207L412 206z"/>
<path style="fill:#5d5d5d; stroke:none;" d="M38 209L39 210L38 209M439 209L440 210L439 209M64 210L65 211L64 210M413 210L414 211L413 210z"/>
<path style="fill:#303030; stroke:none;" d="M37 214L38 215L37 214z"/>
<path style="fill:#9d9d9d; stroke:none;" d="M63 214L64 215L63 214M414 214L415 215L414 214z"/>
<path style="fill:#303030; stroke:none;" d="M440 214L441 215L440 214z"/>
<path style="fill:#9d9d9d; stroke:none;" d="M37 215L38 216L37 215z"/>
<path style="fill:#303030; stroke:none;" d="M63 215L64 216L63 215M414 215L415 216L414 215z"/>
<path style="fill:#9d9d9d; stroke:none;" d="M440 215L441 216L440 215M62 219L63 220L62 219M415 219L416 220L415 219z"/>
<path style="fill:#5d5d5d; stroke:none;" d="M36 220L37 221L36 220z"/>
<path style="fill:#303030; stroke:none;" d="M62 220L63 221L62 220z"/>
<path style="fill:#5d5d5d; stroke:none;" d="M415 220L416 221L415 220M441 220L442 221L441 220z"/>
<path style="fill:#9d9d9d; stroke:none;" d="M36 221L37 222L36 221M441 221L442 222L441 221M61 225L62 226L61 225M416 225L417 226L416 225z"/>
<path style="fill:#5d5d5d; stroke:none;" d="M61 226L62 227L61 226M416 226L417 227L416 226z"/>
<path style="fill:#303030; stroke:none;" d="M35 227L36 228L35 227M61 227L62 228L61 227M416 227L417 228L416 227M442 227L443 228L442 227z"/>
<path style="fill:#5d5d5d; stroke:none;" d="M35 228L36 229L35 228M442 228L443 229L442 228z"/>
<path style="fill:#9d9d9d; stroke:none;" d="M35.3333 229.667L35.6667 230.333L35.3333 229.667M442.333 229.667L442.667 230.333L442.333 229.667M60 233L61 234L60 233M417 233L418 234L417 233z"/>
<path style="fill:#5d5d5d; stroke:none;" d="M60 234L61 235L60 234M417 234L418 235L417 234z"/>
<path style="fill:#303030; stroke:none;" d="M60 235L60 238L61 238L60 235M417 235L417 238L418 238L417 235M34.3333 238.667L34.6667 239.333L34.3333 238.667M443.333 238.667L443.667 239.333L443.333 238.667z"/>
<path style="fill:#5d5d5d; stroke:none;" d="M34 240L34 244L35 244L34 240M443 240L443 244L444 244L443 240z"/>
<path style="fill:#9d9d9d; stroke:none;" d="M34 244L34 248L35 248L34 244M443 244L443 248L444 248L443 244M34 250L35 251L34 250M443 250L444 251L443 250z"/>
<path style="fill:#303030; stroke:none;" d="M39 277L40 278L39 277z"/>
<path style="fill:#9d9d9d; stroke:none;" d="M40.6667 277.333L41.3333 277.667L40.6667 277.333z"/>
<path style="fill:#fefefe; stroke:none;" d="M42 277.439C-8.16633 285.336 4.07972 360.056 54 352.699C101.619 345.681 89.4999 269.962 42 277.439z"/>
<path style="fill:#9d9d9d; stroke:none;" d="M53 277L54 278L53 277z"/>
<path style="fill:#303030; stroke:none;" d="M54 277L55 278L54 277M35 278L36 279L35 278z"/>
<path style="fill:#9d9d9d; stroke:none;" d="M36 278L37 279L36 278z"/>
<path style="fill:#303030; stroke:none;" d="M58 278L59 279L58 278z"/>
<path style="fill:#9d9d9d; stroke:none;" d="M33 279L34 280L33 279z"/>
<path style="fill:#5d5d5d; stroke:none;" d="M220 279L214 286L220 279z"/>
<path style="fill:#303030; stroke:none;" d="M221 279L224 282L221 279M256 279L255 281L256 279z"/>
<path style="fill:#9d9d9d; stroke:none;" d="M257 279L259 281L257 279z"/>
<path style="fill:#303030; stroke:none;" d="M30 280L31 281L30 280M63 280L64 281L63 280z"/>
<path style="fill:#fefefe; stroke:none;" d="M221 315L221 316L203 333L203 334C206.923 337.923 215.104 349.724 220.961 349.797C227.389 349.877 231.823 338.198 237.31 335.721C242.677 333.298 253.081 347.085 256 351L275 334C271.328 328.787 259.632 321.664 258.77 315.428C257.554 306.627 279.568 303.558 270.847 293C269.376 291.219 267.631 289.631 266 288C264.11 286.11 262.242 283.861 260 282.377C251.596 276.811 246.652 294.944 239 294.944C231.549 294.944 228.529 281.207 221 281.207C217.831 281.207 215.022 284.992 213 287.001C210.497 289.486 205.347 293.124 205.167 296.985C204.905 302.615 216.942 311.9 221 315z"/>
<path style="fill:#303030; stroke:none;" d="M28 281L29 282L28 281M65 281L66 282L65 281z"/>
<path style="fill:#5d5d5d; stroke:none;" d="M259 281L260 282L259 281z"/>
<path style="fill:#fefefe; stroke:none;" d="M425 310L424 310C421.12 305.911 413.49 295.207 408 295.207C402.162 295.207 393.9 307.1 390 311L390 312L424 346L425 346L472 299C468.885 294.579 459.871 282.207 454 282.207C450.497 282.207 447.227 286.778 445 289C438.258 295.728 430.492 302.204 425 310z"/>
<path style="fill:#5d5d5d; stroke:none;" d="M224 282L225 283L224 282z"/>
<path style="fill:#9d9d9d; stroke:none;" d="M260 282L264 286L260 282z"/>
<path style="fill:#5d5d5d; stroke:none;" d="M25 283L26 284L25 283M68 283L69 284L68 283z"/>
<path style="fill:#303030; stroke:none;" d="M225 283L230 288L225 283M252 283L247 289L252 283M71 285L72 286L71 285M21 286L20 288L21 286z"/>
<path style="fill:#5d5d5d; stroke:none;" d="M72 286L76 290L72 286z"/>
<path style="fill:#9d9d9d; stroke:none;" d="M213 286L214 287L213 286z"/>
<path style="fill:#5d5d5d; stroke:none;" d="M264 286L266 288L264 286z"/>
<path style="fill:#303030; stroke:none;" d="M265 286L266 287L265 286z"/>
<path style="fill:#5d5d5d; stroke:none;" d="M212 287L213 288L212 287M19 288L20 289L19 288z"/>
<path style="fill:#9d9d9d; stroke:none;" d="M211 288L209 291L211 288M266 288L267 289L266 288z"/>
<path style="fill:#303030; stroke:none;" d="M18 289L17 291L18 289M231 289L232 290L231 289z"/>
<path style="fill:#5d5d5d; stroke:none;" d="M267 289L268 290L267 289z"/>
<path style="fill:#303030; stroke:none;" d="M76 290L77 291L76 290z"/>
<path style="fill:#5d5d5d; stroke:none;" d="M232 290L233 291L232 290z"/>
<path style="fill:#9d9d9d; stroke:none;" d="M268 290L272 294L268 290z"/>
<path style="fill:#5d5d5d; stroke:none;" d="M208 291L205 295L208 291z"/>
<path style="fill:#303030; stroke:none;" d="M233 291C237.183 296.724 240.817 296.724 245 291C239.923 294.247 238.077 294.247 233 291z"/>
<path style="fill:#9d9d9d; stroke:none;" d="M15 293L16 294L15 293M78 293L79 294L78 293z"/>
<path style="fill:#303030; stroke:none;" d="M14 294L15 295L14 294M79 294L80 295L79 294z"/>
<path style="fill:#5d5d5d; stroke:none;" d="M272 294L275 297L272 294z"/>
<path style="fill:#303030; stroke:none;" d="M273 294L274 295L273 294z"/>
<path style="fill:#9d9d9d; stroke:none;" d="M204 295L205 296L204 295z"/>
<path style="fill:#5d5d5d; stroke:none;" d="M13 296L14 297L13 296M80 296L81 297L80 296M203 296L204 297L203 296z"/>
<path style="fill:#9d9d9d; stroke:none;" d="M203 297L207 301L203 297M274 297L275 298L274 297z"/>
<path style="fill:#5d5d5d; stroke:none;" d="M12 298L13 299L12 298M81 298L82 299L81 298M11 300L12 301L11 300z"/>
<path style="fill:#303030; stroke:none;" d="M82 300L83 301L82 300z"/>
<path style="fill:#9d9d9d; stroke:none;" d="M44 302L45 303L44 302z"/>
<path style="fill:#5d5d5d; stroke:none;" d="M45 302L46 303L45 302z"/>
<path style="fill:#303030; stroke:none;" d="M46.6667 302.333L47.3333 302.667L46.6667 302.333z"/>
<path style="fill:#5d5d5d; stroke:none;" d="M48 302L49 303L48 302z"/>
<path style="fill:#9d9d9d; stroke:none;" d="M49 302L50 303L49 302z"/>
<path style="fill:#303030; stroke:none;" d="M122 302L122 303L126 303L122 302M173 302L174 303L173 302z"/>
<path style="fill:#5d5d5d; stroke:none;" d="M174.667 302.333L175.333 302.667L174.667 302.333z"/>
<path style="fill:#303030; stroke:none;" d="M176 302L177 303L176 302z"/>
<path style="fill:#9d9d9d; stroke:none;" d="M208 302L210 304L208 302M269 302L270 303L269 302z"/>
<path style="fill:#303030; stroke:none;" d="M301 302L302 303L301 302z"/>
<path style="fill:#5d5d5d; stroke:none;" d="M302.667 302.333L303.333 302.667L302.667 302.333z"/>
<path style="fill:#303030; stroke:none;" d="M304 302L305 303L304 302M352 302L353 303L352 302z"/>
<path style="fill:#5d5d5d; stroke:none;" d="M353 302L353 303L356 303L353 302M10 303L11 304L10 303z"/>
<path style="fill:#9d9d9d; stroke:none;" d="M41 303L42 304L41 303M52 303L53 304L52 303z"/>
<path style="fill:#5d5d5d; stroke:none;" d="M83 303L84 304L83 303z"/>
<path style="fill:#303030; stroke:none;" d="M118 303L119 304L118 303z"/>
<path style="fill:#fefefe; stroke:none;" d="M119.004 303.742C104.272 309.444 113.476 332.829 127.999 326.99C143.05 320.939 134.283 297.829 119.004 303.742z"/>
<path style="fill:#5d5d5d; stroke:none;" d="M128 303L129 304L128 303z"/>
<path style="fill:#303030; stroke:none;" d="M169 303L170 304L169 303z"/>
<path style="fill:#fefefe; stroke:none;" d="M170.004 303.742C155.629 309.31 164.8 332.213 178.985 327.029C194.461 321.375 185.685 297.668 170.004 303.742z"/>
<path style="fill:#303030; stroke:none;" d="M297 303L298 304L297 303z"/>
<path style="fill:#fefefe; stroke:none;" d="M298.004 303.742C283.075 309.525 293.394 332.702 307.96 326.516C322.57 320.312 312.988 297.938 298.004 303.742z"/>
<path style="fill:#9d9d9d; stroke:none;" d="M349 303L350 304L349 303z"/>
<path style="fill:#fefefe; stroke:none;" d="M350.004 303.653C335.186 308.357 343.054 331.739 357.996 327.003C373.554 322.072 365.549 298.718 350.004 303.653z"/>
<path style="fill:#5d5d5d; stroke:none;" d="M359 303L360 304L359 303M130 304L131 305L130 304z"/>
<path style="fill:#9d9d9d; stroke:none;" d="M347 304L348 305L347 304M38 305L37 307L38 305M55 305L56 306L55 305z"/>
<path style="fill:#303030; stroke:none;" d="M115 305L113 308L115 305M183 305L185 307L183 305z"/>
<path style="fill:#5d5d5d; stroke:none;" d="M362 305L363 306L362 305z"/>
<path style="fill:#303030; stroke:none;" d="M9 306L10 307L9 306z"/>
<path style="fill:#5d5d5d; stroke:none;" d="M56 306L57 307L56 306z"/>
<path style="fill:#303030; stroke:none;" d="M84 306L85 307L84 306M165 306L166 307L165 306z"/>
<path style="fill:#9d9d9d; stroke:none;" d="M265 306L266 307L265 306z"/>
<path style="fill:#303030; stroke:none;" d="M293 306L294 307L293 306M312 306L313 307L312 306z"/>
<path style="fill:#9d9d9d; stroke:none;" d="M363 306L364 307L363 306M9 307L10 308L9 307M84 307L85 308L84 307M213 307L217 311L213 307z"/>
<path style="fill:#303030; stroke:none;" d="M364 307L365 308L364 307z"/>
<path style="fill:#9d9d9d; stroke:none;" d="M134 308L135 309L134 308M343 308L344 309L343 308z"/>
<path style="fill:#5d5d5d; stroke:none;" d="M35 309L36 310L35 309M58 309L59 310L58 309z"/>
<path style="fill:#9d9d9d; stroke:none;" d="M112 309L113 310L112 309z"/>
<path style="fill:#303030; stroke:none;" d="M163 309L164 310L163 309M186 309L187 310L186 309M291 309L292 310L291 309M314 309L315 310L314 309z"/>
<path style="fill:#9d9d9d; stroke:none;" d="M365 309L366 310L365 309z"/>
<path style="fill:#303030; stroke:none;" d="M424 309L425 310L424 309z"/>
<path style="fill:#5d5d5d; stroke:none;" d="M135 310L136 311L135 310z"/>
<path style="fill:#9d9d9d; stroke:none;" d="M261 310L258 314L261 310z"/>
<path style="fill:#5d5d5d; stroke:none;" d="M342 310L343 311L342 310z"/>
<path style="fill:#303030; stroke:none;" d="M111 311L112 312L111 311M366 311L367 312L366 311M34.3333 312.667L34.6667 313.333L34.3333 312.667M59.3333 312.667L59.6667 313.333L59.3333 312.667z"/>
<path style="fill:#9d9d9d; stroke:none;" d="M111 312L112 313L111 312z"/>
<path style="fill:#5d5d5d; stroke:none;" d="M162 312L163 313L162 312z"/>
<path style="fill:#303030; stroke:none;" d="M187 312L188 313L187 312z"/>
<path style="fill:#5d5d5d; stroke:none;" d="M290 312L291 313L290 312z"/>
<path style="fill:#303030; stroke:none;" d="M315 312L316 313L315 312z"/>
<path style="fill:#9d9d9d; stroke:none;" d="M366 312L367 313L366 312z"/>
<path style="fill:#303030; stroke:none;" d="M136 313L137 314L136 313z"/>
<path style="fill:#9d9d9d; stroke:none;" d="M162 313L163 314L162 313z"/>
<path style="fill:#5d5d5d; stroke:none;" d="M187 313L188 314L187 313z"/>
<path style="fill:#303030; stroke:none;" d="M262 313L263 314L262 313z"/>
<path style="fill:#9d9d9d; stroke:none;" d="M290 313L291 314L290 313z"/>
<path style="fill:#5d5d5d; stroke:none;" d="M315 313L316 314L315 313z"/>
<path style="fill:#303030; stroke:none;" d="M341 313L342 314L341 313M8.33333 314.667L8.66667 315.333L8.33333 314.667z"/>
<path style="fill:#5d5d5d; stroke:none;" d="M136.333 314.667L136.667 315.333L136.333 314.667z"/>
<path style="fill:#9d9d9d; stroke:none;" d="M187 314L188 315L187 314M315 314L316 315L315 314z"/>
<path style="fill:#5d5d5d; stroke:none;" d="M341.333 314.667L341.667 315.333L341.333 314.667z"/>
<path style="fill:#303030; stroke:none;" d="M220 315L218 318L220 315M136.333 316.667L136.667 317.333L136.333 316.667z"/>
<path style="fill:#9d9d9d; stroke:none;" d="M162 316L163 317L162 316M187 316L188 317L187 316z"/>
<path style="fill:#303030; stroke:none;" d="M258 316L262 320L258 316z"/>
<path style="fill:#9d9d9d; stroke:none;" d="M290 316L291 317L290 316M315 316L316 317L315 316z"/>
<path style="fill:#303030; stroke:none;" d="M341.333 316.667L341.667 317.333L341.333 316.667M34 317L35 318L34 317M59 317L60 318L59 317z"/>
<path style="fill:#5d5d5d; stroke:none;" d="M162 317L163 318L162 317M187 317L188 318L187 317M290 317L291 318L290 317M315 317L316 318L315 317z"/>
<path style="fill:#9d9d9d; stroke:none;" d="M34 318L35 319L34 318M59 318L60 319L59 318z"/>
<path style="fill:#5d5d5d; stroke:none;" d="M111 318L112 319L111 318M217 318L218 319L217 318M366 318L367 319L366 318z"/>
<path style="fill:#303030; stroke:none;" d="M216 319L215 321L216 319M35 320L36 321L35 320M58 320L59 321L58 320M135 320L136 321L135 320z"/>
<path style="fill:#5d5d5d; stroke:none;" d="M163 320L164 321L163 320z"/>
<path style="fill:#9d9d9d; stroke:none;" d="M186 320L187 321L186 320z"/>
<path style="fill:#5d5d5d; stroke:none;" d="M291 320L292 321L291 320z"/>
<path style="fill:#9d9d9d; stroke:none;" d="M314 320L315 321L314 320z"/>
<path style="fill:#303030; stroke:none;" d="M342 320L343 321L342 320z"/>
<path style="fill:#9d9d9d; stroke:none;" d="M365 320L366 321L365 320z"/>
<path style="fill:#303030; stroke:none;" d="M263 321L264 322L263 321z"/>
<path style="fill:#9d9d9d; stroke:none;" d="M9 322L10 323L9 322z"/>
<path style="fill:#5d5d5d; stroke:none;" d="M36 322L37 323L36 322M57 322L58 323L57 322z"/>
<path style="fill:#9d9d9d; stroke:none;" d="M84 322L85 323L84 322M113 322L114 323L113 322z"/>
<path style="fill:#303030; stroke:none;" d="M134 322L135 323L134 322M164 322L165 323L164 322M185 322L186 323L185 322z"/>
<path style="fill:#5d5d5d; stroke:none;" d="M264 322L265 323L264 322z"/>
<path style="fill:#303030; stroke:none;" d="M292 322L293 323L292 322M313 322L314 323L313 322M343 322L344 323L343 322z"/>
<path style="fill:#9d9d9d; stroke:none;" d="M364 322L365 323L364 322z"/>
<path style="fill:#303030; stroke:none;" d="M9 323L10 324L9 323M84 323L85 324L84 323z"/>
<path style="fill:#5d5d5d; stroke:none;" d="M133 323L134 324L133 323z"/>
<path style="fill:#9d9d9d; stroke:none;" d="M165 323L167 325L165 323M184 323L185 324L184 323z"/>
<path style="fill:#303030; stroke:none;" d="M212 323L204 332L212 323M265 323L270 328L265 323z"/>
<path style="fill:#9d9d9d; stroke:none;" d="M293 323L295 325L293 323M312 323L313 324L312 323z"/>
<path style="fill:#5d5d5d; stroke:none;" d="M344 323L346 325L344 323z"/>
<path style="fill:#9d9d9d; stroke:none;" d="M132 324L133 325L132 324z"/>
<path style="fill:#5d5d5d; stroke:none;" d="M39 325L40 326L39 325z"/>
<path style="fill:#303030; stroke:none;" d="M54 325L55 326L54 325z"/>
<path style="fill:#9d9d9d; stroke:none;" d="M116 325L117 326L116 325z"/>
<path style="fill:#303030; stroke:none;" d="M131 325L132 326L131 325z"/>
<path style="fill:#5d5d5d; stroke:none;" d="M167 325L168 326L167 325M182 325L183 326L182 325M295 325L296 326L295 325M310 325L311 326L310 325z"/>
<path style="fill:#303030; stroke:none;" d="M346 325L347 326L346 325z"/>
<path style="fill:#5d5d5d; stroke:none;" d="M361 325L362 326L361 325z"/>
<path style="fill:#9d9d9d; stroke:none;" d="M10 326L11 327L10 326z"/>
<path style="fill:#303030; stroke:none;" d="M41 326L42 327L41 326z"/>
<path style="fill:#9d9d9d; stroke:none;" d="M83 326L84 327L83 326M129 326L130 327L129 326M169 326L170 327L169 326M180 326L181 327L180 326M297 326L298 327L297 326M308 326L309 327L308 326z"/>
<path style="fill:#5d5d5d; stroke:none;" d="M348 326L349 327L348 326M43 327L44 328L43 327M50 327L51 328L50 327z"/>
<path style="fill:#303030; stroke:none;" d="M83 327L84 328L83 327z"/>
<path style="fill:#5d5d5d; stroke:none;" d="M120 327L121 328L120 327M127 327L128 328L127 327z"/>
<path style="fill:#303030; stroke:none;" d="M171 327L172 328L171 327M178 327L179 328L178 327M299 327L300 328L299 327z"/>
<path style="fill:#9d9d9d; stroke:none;" d="M300 327L301 328L300 327M305 327L306 328L305 327z"/>
<path style="fill:#303030; stroke:none;" d="M306 327L307 328L306 327M350 327L351 328L350 327z"/>
<path style="fill:#9d9d9d; stroke:none;" d="M351 327L352 328L351 327M356 327L357 328L356 327z"/>
<path style="fill:#5d5d5d; stroke:none;" d="M357 327L358 328L357 327M11 329L12 330L11 329M82 329L83 330L82 329z"/>
<path style="fill:#303030; stroke:none;" d="M271 329L275 333L271 329z"/>
<path style="fill:#9d9d9d; stroke:none;" d="M12 331L13 332L12 331M81 331L82 332L81 331z"/>
<path style="fill:#5d5d5d; stroke:none;" d="M203 332L204 333L203 332z"/>
<path style="fill:#9d9d9d; stroke:none;" d="M80 333L81 334L80 333M240 334L242 336L240 334z"/>
<path style="fill:#5d5d5d; stroke:none;" d="M14 335L15 336L14 335M79 335L80 336L79 335z"/>
<path style="fill:#9d9d9d; stroke:none;" d="M236 335L237 336L236 335M234 337L235 338L234 337z"/>
<path style="fill:#303030; stroke:none;" d="M16 338L17 339L16 338M77 338L78 339L77 338z"/>
<path style="fill:#9d9d9d; stroke:none;" d="M17 339L18 340L17 339M76 339L77 340L76 339M245 339L250 344L245 339M229 342L230 343L229 342M22 344L23 345L22 344M71 344L72 345L71 344z"/>
<path style="fill:#303030; stroke:none;" d="M22.6667 345.333L23.3333 345.667L22.6667 345.333z"/>
<path style="fill:#5d5d5d; stroke:none;" d="M70 345L71 346L70 345z"/>
<path style="fill:#9d9d9d; stroke:none;" d="M225 346L226 347L225 346z"/>
<path style="fill:#5d5d5d; stroke:none;" d="M26 347L27 348L26 347z"/>
<path style="fill:#9d9d9d; stroke:none;" d="M67 347L68 348L67 347M253 347L254 348L253 347M30 349L31 350L30 349M255 349L256 350L255 349M61 350L62 351L61 350z"/>
<path style="fill:#303030; stroke:none;" d="M62 350L63 351L62 350z"/>
<path style="fill:#5d5d5d; stroke:none;" d="M34 351L35 352L34 351z"/>
<path style="fill:#303030; stroke:none;" d="M59 351L60 352L59 351z"/>
<path style="fill:#9d9d9d; stroke:none;" d="M38 352L39 353L38 352M55 352L56 353L55 352z"/>
<path style="fill:#303030; stroke:none;" d="M43.6667 353.333L44.3333 353.667L43.6667 353.333z"/>
<path style="fill:#5d5d5d; stroke:none;" d="M45 353L45 354L49 354L45 353z"/>
<path style="fill:#303030; stroke:none;" d="M49 353L49 354L52 354L49 353z"/>
</svg>
