<?xml version="1.0" encoding="UTF-8" standalone="no"?>
<!-- Created with Inkscape (http://www.inkscape.org/) -->

<svg
   width="100mm"
   height="100mm"
   viewBox="0 0 100 100"
   version="1.1"
   id="svg4001"
   xml:space="preserve"
   inkscape:version="1.2.2 (732a01da63, 2022-12-09)"
   sodipodi:docname="ERCF_encodercal.svg"
   xmlns:inkscape="http://www.inkscape.org/namespaces/inkscape"
   xmlns:sodipodi="http://sodipodi.sourceforge.net/DTD/sodipodi-0.dtd"
   xmlns="http://www.w3.org/2000/svg"
   xmlns:svg="http://www.w3.org/2000/svg"><sodipodi:namedview
     id="namedview4003"
     pagecolor="#ffffff"
     bordercolor="#000000"
     borderopacity="0.28235294"
     inkscape:showpageshadow="2"
     inkscape:pageopacity="0.0"
     inkscape:pagecheckerboard="true"
     inkscape:deskcolor="#d1d1d1"
     inkscape:document-units="mm"
     showgrid="false"
     inkscape:zoom="1.5862247"
     inkscape:cx="127.97682"
     inkscape:cy="198.58473"
     inkscape:window-width="1665"
     inkscape:window-height="1017"
     inkscape:window-x="1912"
     inkscape:window-y="-8"
     inkscape:window-maximized="1"
     inkscape:current-layer="layer1" /><defs
     id="defs3998"><rect
       x="142.47666"
       y="51.064644"
       width="77.542608"
       height="209.302"
       id="rect5706" /><rect
       x="143.10709"
       y="44.760367"
       width="84.477313"
       height="230.73654"
       id="rect5700" /><symbol
       id="DownArrow"><title
         id="title5768">Down Arrow</title><path
         d="M 36,63 14,41 V 26 L 30,42 V 10 H 42 V 42 L 58,26 v 15 z"
         style="stroke:none"
         id="path5770" /></symbol><symbol
       id="Buffer"><title
         id="title3529">Buffer</title><path
         d="M 25,30 75,50 25,70 V 50 Z"
         id="path3531" /></symbol></defs><g
     inkscape:label="Calque 1"
     inkscape:groupmode="layer"
     id="layer1"><path
       id="path11440"
       style="fill:#ececec;stroke:none;stroke-width:0.443922"
       d="m 28.113229,42.534261 -0.796988,4.927598 a 18.906354,18.906354 0 0 0 -2.890549,0.771745 l -3.136366,-3.717165 -4.414837,2.447201 1.670791,4.637608 a 18.906354,18.906354 0 0 0 -2.227448,2.222232 l -4.612094,-1.664754 -2.5997383,4.326497 3.8192243,3.226353 a 18.906354,18.906354 0 0 0 -0.759676,2.801661 l -4.815387,0.862554 -0.088066,5.046666 4.849407,0.871609 a 18.906354,18.906354 0 0 0 0.782171,2.99398 l -3.7854782,3.193706 2.4469262,4.414836 4.705373,-1.695207 a 18.906354,18.906354 0 0 0 2.26174,2.268049 l -1.594795,4.418951 4.326771,2.599465 3.09055,-3.658729 a 18.906354,18.906354 0 0 0 3.006598,0.806315 l 0.862556,4.815661 5.04694,0.08807 0.882856,-4.911958 a 18.906354,18.906354 0 0 0 2.997546,-0.810429 l 3.020865,3.580539 4.414563,-2.447201 -1.621955,-4.502629 a 18.906354,18.906354 0 0 0 2.331973,-2.358035 l 4.370392,1.577236 2.599739,-4.32677 -3.679581,-3.108109 a 18.906354,18.906354 0 0 0 0.758852,-2.920179 l 4.70647,-0.843076 0.08807,-5.04694 -4.837613,-0.869418 A 18.906354,18.906354 0 0 0 48.468884,59.551357 L 52.166022,56.432 49.719097,52.017162 45.03238,53.705512 a 18.906354,18.906354 0 0 0 -2.069421,-2.054606 l 1.676002,-4.643369 -4.32677,-2.599465 -3.243912,3.840074 A 18.906354,18.906354 0 0 0 34.132736,47.46186 l -0.971747,-4.927598 z m 2.411259,12.840394 a 11.025016,11.025016 0 0 1 11.049164,10.992922 v 0.0321 A 11.025016,11.025016 0 0 1 30.556587,77.424694 11.025016,11.025016 0 0 1 19.523611,66.415585 11.025016,11.025016 0 0 1 30.524488,55.374651 Z" /><text
       xml:space="preserve"
       style="font-weight:bold;font-size:42.7919px;font-family:sans-serif;-inkscape-font-specification:'sans-serif Bold';fill:#ffff00;stroke:none;stroke-width:1.50109"
       x="3.8284879"
       y="36.944645"
       id="text11819"><tspan
         sodipodi:role="line"
         id="tspan11817"
         style="font-size:42.7919px;stroke-width:1.50109;fill:#ffff00"
         x="3.8284879"
         y="36.944645">CAL.</tspan></text><path
       id="path11939"
       style="fill:#800080;stroke:none;stroke-width:0.891"
       d="M 81.398649 49.206299 L 81.398649 49.221802 A 6.7554269 6.7554269 0 0 0 75.060535 55.971261 A 6.7554269 6.7554269 0 0 0 81.398649 62.701599 L 81.398649 62.717102 L 81.820846 62.717102 L 94.075395 62.717102 L 94.075395 49.206299 L 81.801208 49.206299 L 81.398649 49.206299 z " /><path
       id="path11939-8"
       style="fill:#800080;stroke:none;stroke-width:0.891"
       d="m 81.565423,67.971299 v 0.0155 a 6.7554269,6.7554269 0 0 0 -6.338114,6.749459 6.7554269,6.7554269 0 0 0 6.338114,6.730338 v 0.0155 H 81.98762 94.242169 V 67.971299 H 81.967982 Z" /><rect
       style="fill:#800080;stroke:none;stroke-width:0.708865"
       id="rect12094"
       width="18.844011"
       height="3.2774003"
       x="43.36002"
       y="80.498459"
       transform="matrix(0.9311956,-0.3645199,0.18040147,0.98359306,0,0)" /><rect
       style="fill:#800080;stroke:none;stroke-width:0.730418"
       id="rect12094-7"
       width="20.584829"
       height="3.185457"
       x="67.904427"
       y="-46.29314"
       transform="matrix(0.9465138,0.32266333,0.20609039,-0.97853296,0,0)" /><path
       style="fill:#800080;stroke:none;stroke-width:0.891"
       d="M 74.893498,57.045825 C 65.219059,55.544622 64.385055,55.044218 64.385055,55.044218 l 3.836416,10.675244 z"
       id="path12118" /></g></svg>
