<?xml version="1.0" encoding="UTF-8" standalone="no"?>
<!-- Created with Inkscape (http://www.inkscape.org/) -->

<svg
   width="100mm"
   height="100mm"
   viewBox="0 0 100 100"
   version="1.1"
   id="svg4001"
   xml:space="preserve"
   inkscape:version="1.2.2 (732a01da63, 2022-12-09)"
   sodipodi:docname="ERCF_mainteject.svg"
   xmlns:inkscape="http://www.inkscape.org/namespaces/inkscape"
   xmlns:sodipodi="http://sodipodi.sourceforge.net/DTD/sodipodi-0.dtd"
   xmlns:xlink="http://www.w3.org/1999/xlink"
   xmlns="http://www.w3.org/2000/svg"
   xmlns:svg="http://www.w3.org/2000/svg"><sodipodi:namedview
     id="namedview4003"
     pagecolor="#ffffff"
     bordercolor="#000000"
     borderopacity="0.28235294"
     inkscape:showpageshadow="2"
     inkscape:pageopacity="0.0"
     inkscape:pagecheckerboard="true"
     inkscape:deskcolor="#d1d1d1"
     inkscape:document-units="mm"
     showgrid="false"
     inkscape:zoom="1.5862247"
     inkscape:cx="127.97682"
     inkscape:cy="198.58473"
     inkscape:window-width="1665"
     inkscape:window-height="1017"
     inkscape:window-x="1912"
     inkscape:window-y="-8"
     inkscape:window-maximized="1"
     inkscape:current-layer="layer1" /><defs
     id="defs3998"><rect
       x="142.47666"
       y="51.064644"
       width="77.542608"
       height="209.302"
       id="rect5706" /><rect
       x="143.10709"
       y="44.760367"
       width="84.477313"
       height="230.73654"
       id="rect5700" /><symbol
       id="DownArrow"><title
         id="title5768">Down Arrow</title><path
         d="M 36,63 14,41 V 26 L 30,42 V 10 H 42 V 42 L 58,26 v 15 z"
         style="stroke:none"
         id="path5770" /></symbol><symbol
       id="Buffer"><title
         id="title3529">Buffer</title><path
         d="M 25,30 75,50 25,70 V 50 Z"
         id="path3531" /></symbol><symbol
       id="Merge"><title
         id="title6984">Merge</title><desc
         id="desc6986">Combine two or more sets of items into one set. (ISO)</desc><path
         d="m 35,35 h 80 l -40,70 z"
         style="stroke-width:2"
         id="path6988" /></symbol><symbol
       id="Extract"><title
         id="title7028">Extract</title><desc
         id="desc7030">Removal of one or more specific sets of times from a set. (ISO)</desc><path
         d="m 35,115 40,-70 40,70 z"
         style="stroke-width:2"
         id="path7032" /></symbol></defs><g
     inkscape:label="Calque 1"
     inkscape:groupmode="layer"
     id="layer1"><use
       xlink:href="#Extract"
       style="fill:#ff0000;stroke:none"
       id="use16587"
       transform="matrix(0.33275472,0,0,0.42449508,23.915992,-17.731191)" /><rect
       style="fill:#ff0000;fill-opacity:1;stroke:none;stroke-width:2.091;stroke-dasharray:none;stroke-opacity:1"
       id="rect16610"
       width="11.175644"
       height="41.19976"
       x="43.368172"
       y="28.522915" /><path
       id="path16664"
       style="fill:#ff0000;fill-opacity:1;stroke:none;stroke-width:2.32015;stroke-dasharray:none;stroke-opacity:1"
       d="m 76.394701,64.666399 a 13.510853,13.510853 0 0 0 -13.510804,13.510803 13.510853,13.510853 0 0 0 13.510804,13.510803 13.510853,13.510853 0 0 0 9.174117,-3.608048 v -2.730583 h -8.34006 V 85.17109 a 7.310667,7.310667 0 0 1 -0.741557,0.03927 7.310667,7.310667 0 0 1 -7.310664,-7.310664 7.310667,7.310667 0 0 1 7.310664,-7.310665 7.310667,7.310667 0 0 1 1.031462,0.08217 h 8.050155 v -2.402438 a 13.510853,13.510853 0 0 0 -9.174117,-3.602364 z" /><path
       id="path16664-9"
       style="fill:#ff0000;fill-opacity:1;stroke:none;stroke-width:2.32015;stroke-dasharray:none;stroke-opacity:1"
       d="M 22.851756,91.688005 A 13.510853,13.510853 0 0 0 36.36256,78.177202 13.510853,13.510853 0 0 0 22.851756,64.666399 13.510853,13.510853 0 0 0 13.677639,68.274447 v 2.730583 h 8.34006 v 0.178284 a 7.310667,7.310667 0 0 1 0.741557,-0.03927 7.310667,7.310667 0 0 1 7.310664,7.310664 7.310667,7.310667 0 0 1 -7.310664,7.310665 7.310667,7.310667 0 0 1 -1.031462,-0.08217 h -8.050155 v 2.402437 a 13.510853,13.510853 0 0 0 9.174117,3.602365 z" /><rect
       style="fill:#ff0000;fill-opacity:1;stroke:none;stroke-width:2.091;stroke-dasharray:none;stroke-opacity:1"
       id="rect16751"
       width="33.526936"
       height="10.508442"
       x="32.859734"
       y="72.891884" /></g></svg>
