<?xml version="1.0" encoding="UTF-8" standalone="no"?>
<!-- Created with Inkscape (http://www.inkscape.org/) -->

<svg
   width="100mm"
   height="100mm"
   viewBox="0 0 100 100"
   version="1.1"
   id="svg4001"
   xml:space="preserve"
   inkscape:version="1.2.2 (732a01da63, 2022-12-09)"
   sodipodi:docname="ERCF_grip.svg"
   xmlns:inkscape="http://www.inkscape.org/namespaces/inkscape"
   xmlns:sodipodi="http://sodipodi.sourceforge.net/DTD/sodipodi-0.dtd"
   xmlns="http://www.w3.org/2000/svg"
   xmlns:svg="http://www.w3.org/2000/svg"><sodipodi:namedview
     id="namedview4003"
     pagecolor="#ffffff"
     bordercolor="#000000"
     borderopacity="0.28235294"
     inkscape:showpageshadow="2"
     inkscape:pageopacity="0.0"
     inkscape:pagecheckerboard="true"
     inkscape:deskcolor="#d1d1d1"
     inkscape:document-units="mm"
     showgrid="false"
     inkscape:zoom="1.5862247"
     inkscape:cx="204.889"
     inkscape:cy="189.75874"
     inkscape:window-width="1665"
     inkscape:window-height="1017"
     inkscape:window-x="1912"
     inkscape:window-y="-8"
     inkscape:window-maximized="1"
     inkscape:current-layer="layer1" /><defs
     id="defs3998"><rect
       x="156.34607"
       y="56.108065"
       width="65.56448"
       height="192.28045"
       id="rect5338" /></defs><g
     inkscape:label="Calque 1"
     inkscape:groupmode="layer"
     id="layer1"><rect
       style="fill:none;stroke-width:0.165763"
       id="rect4644"
       width="100.70579"
       height="73.80645"
       x="30.423773"
       y="-27.790655"
       transform="rotate(90)" /><rect
       style="fill:none;stroke-width:0.264583"
       id="rect4646"
       width="156.12904"
       height="140.87097"
       x="30.423773"
       y="-33.82291"
       transform="rotate(90)" /><rect
       style="fill:none;stroke-width:0.264583"
       id="rect4648"
       width="160.03223"
       height="139.09677"
       x="29.359253"
       y="-37.726139"
       transform="rotate(90)" /><g
       id="g13505"
       transform="matrix(0.38314206,0,0,0.38314206,-1.6418654,-1.1480869)"><path
         style="fill:#ffff00;stroke-width:3.36756"
         d="m 74.326165,12.121864 0.318996,68.903226 13.39785,-8.293907 11.164874,-3.189964 10.526885,-0.637993 7.33691,0.318996 -0.31899,-57.100358 z"
         id="path13410" /><path
         style="fill:#ffff00;stroke-width:3.36756"
         d="m 73.369176,208.94265 v 46.57348 l 43.702504,-0.63799 -0.63799,-108.45879 -2.55197,-16.58781 -2.55197,-11.80287 -2.23298,-8.6129 -4.78494,2.55197 -4.465952,5.42294 -1.275986,4.46595 -0.318996,8.9319 v 7.01792 l -0.956989,3.82796 -3.508961,5.74193 -0.956989,1.59499 4.784946,6.06093 1.594982,5.74193 -0.637993,6.06094 -2.232974,7.01792 -4.784947,4.14695 -6.060932,2.87097 -3.827957,0.63799 3.189965,7.33692 0.318996,6.69892 -2.551971,4.46595 -3.189964,4.14696 z"
         id="path13412" /><path
         style="fill:#ffaaaa;stroke-width:3.61086"
         d="M 68.903225,93.488415 C 64.791716,94.512797 47.317802,93.146953 47.317802,93.146953 l -5.482013,5.121914 -0.685251,6.146303 0.342625,7.17067 5.482013,5.80484 4.796761,-0.34146 6.852516,-1.02438 4.891277,-5.14439 3.331741,-7.1482 z"
         id="path13414"
         sodipodi:nodetypes="ccccccccccc" /><path
         style="fill:#ffaaaa;stroke-width:3.36756"
         d="m 56.143369,122.81362 -10.526882,0.95699 -2.870967,2.87097 -0.95699,6.37993 0.637993,7.01792 2.232975,3.50896 3.827957,1.91398 30.942653,-0.638 5.422939,-1.91398 4.465949,-2.87096 2.870968,-2.23298 0.637993,-4.14695 -0.956989,-3.82796 -1.594982,-1.91398 -4.46595,2.23298 -6.698925,1.91398 H 72.09319 l -5.422939,-0.638 -7.655914,-1.91398 -3.189964,-1.27598 z"
         id="path13416" /><path
         style="fill:#ffaaaa;stroke-width:3.36756"
         d="m 44.340502,153.11828 -3.189964,7.65591 -0.318997,1.59499 0.637993,4.78494 2.870968,4.78495 4.146953,0.63799 22.329749,1.27599 13.078853,-0.638 3.827957,-1.59498 2.870968,-5.42294 0.318996,-5.42294 -2.551971,-5.10394 -4.46595,-3.50896 -7.97491,-0.319 -9.569893,-0.63799 h -9.569892 l -7.336918,0.95699 z"
         id="path13418" /><path
         style="fill:#ffaaaa;stroke-width:3.36756"
         d="m 56.781362,180.55197 -5.103943,2.87097 -2.232975,5.10394 -0.637992,7.01792 2.232975,4.78495 4.146953,1.59498 11.164874,-0.319 5.103943,-1.27598 4.146954,-3.18997 1.275985,-5.42293 -0.318996,-4.14696 -1.594982,-4.46595 -4.784947,-2.23297 -8.293906,-0.95699 z"
         id="path13420" /><path
         style="fill:#ffaaaa;stroke-width:3.36756"
         d="m 66.670251,124.08961 8.293907,-0.638 10.845878,-2.55197 14.992834,-16.90681 5.42294,-4.146952 3.50896,0.637992 4.14695,1.91398 3.18996,4.46595 1.59499,4.46595 2.87096,18.18279 c 0,0 2.23298,4.14696 2.23298,5.74194 0,1.59498 3.82796,7.65591 3.82796,7.65591 l 5.42294,6.06094 7.01792,4.14695 5.42294,2.23297 4.46595,0.319 3.82795,0.63799 v 8.9319 h -7.01792 l -7.01792,-2.87096 -10.20789,-6.06094 -4.14695,-2.87096 v 48.80645 l 16.90681,-0.638 16.26882,-9.88888 74.00717,-1.27599 v -81.98208 l -57.73835,1.59498 -7.33692,-0.95699 -8.29391,-3.50896 -5.42294,-5.741932 -7.33692,-13.078853 -4.78494,-6.379928 -5.10394,-3.827957 h -13.71685 l -12.75986,0.318996 H 99.526882 l -8.293907,1.594982 -7.97491,6.379929 -5.741936,6.698924 -3.827957,7.974911 -4.784946,11.164878 z"
         id="path13422" /></g></g></svg>
