<?xml version="1.0" encoding="UTF-8" standalone="no"?>
<svg
   width="64"
   height="64"
   viewBox="0 0 64 64"
   version="1.1"
   id="svg10"
   sodipodi:docname="ercfextruder7.svg"
   inkscape:version="1.2.1 (9c6d41e410, 2022-07-14)"
   xml:space="preserve"
   xmlns:inkscape="http://www.inkscape.org/namespaces/inkscape"
   xmlns:sodipodi="http://sodipodi.sourceforge.net/DTD/sodipodi-0.dtd"
   xmlns="http://www.w3.org/2000/svg"
   xmlns:svg="http://www.w3.org/2000/svg"
   xmlns:rdf="http://www.w3.org/1999/02/22-rdf-syntax-ns#"
   xmlns:cc="http://creativecommons.org/ns#"
   xmlns:dc="http://purl.org/dc/elements/1.1/"><metadata
     id="metadata16"><rdf:RDF><cc:Work
         rdf:about=""><dc:format>image/svg+xml</dc:format><dc:type
           rdf:resource="http://purl.org/dc/dcmitype/StillImage" /><dc:title>folder</dc:title></cc:Work></rdf:RDF></metadata><defs
     id="defs14" /><sodipodi:namedview
     pagecolor="#bfbfbf"
     bordercolor="#666666"
     borderopacity="1"
     objecttolerance="10"
     gridtolerance="10"
     guidetolerance="10"
     inkscape:pageopacity="0"
     inkscape:pageshadow="2"
     inkscape:window-width="1350"
     inkscape:window-height="1230"
     id="namedview12"
     showgrid="false"
     inkscape:pagecheckerboard="false"
     inkscape:zoom="30.625038"
     inkscape:cx="35.934649"
     inkscape:cy="27.346904"
     inkscape:window-x="2392"
     inkscape:window-y="1112"
     inkscape:window-maximized="0"
     inkscape:current-layer="layer6"
     inkscape:snap-bbox="true"
     inkscape:snap-bbox-edge-midpoints="true"
     inkscape:document-rotation="0"
     inkscape:showpageshadow="2"
     inkscape:deskcolor="#bfbfbf"
     showguides="true"><sodipodi:guide
       position="32.065266,-7.7060324"
       orientation="1,0"
       id="guide620"
       inkscape:locked="false" /><sodipodi:guide
       position="15.29794,33.746977"
       orientation="1,0"
       id="guide622"
       inkscape:locked="false" /><sodipodi:guide
       position="48.669327,38.873501"
       orientation="1,0"
       id="guide624"
       inkscape:locked="false" /></sodipodi:namedview><!-- Generator: Sketch 52.5 (67469) - http://www.bohemiancoding.com/sketch --><title
     id="title2">folder</title><desc
     id="desc4">Created with Sketch.</desc><ellipse
     id="Oval"
     stroke="#ffffff"
     stroke-width="2"
     cx="32"
     cy="26.143875"
     style="fill:#ffffff;fill-opacity:1;fill-rule:evenodd;stroke-width:3;stroke-miterlimit:4;stroke-dasharray:none"
     rx="15.174833"
     ry="15.226054" /><path
     style="fill:none;fill-opacity:1;stroke:#ffffff;stroke-width:3;stroke-linecap:round;stroke-linejoin:round;stroke-miterlimit:4;stroke-dasharray:none;stroke-opacity:1"
     d="M 20.327052,56.986395 10.210495,55.034337 V 44.102811 l 2.723688,-3.904116 V 19.897289 l -2.723688,-4.68494 V 5.8424699 L 14.490576,3.5 h 6.614672 l 2.33459,3.1232932 H 40.560162 L 42.894752,3.5 h 6.614672 l 4.280081,2.3424699 v 9.3698791 l -2.723688,4.68494 v 20.301406 l 2.723688,3.904116 V 55.034337 L 43.672948,56.986395 40.560162,53.472691 H 23.439838 l -3.112786,3.513704"
     id="path943" /><path
     style="fill:#000000;fill-opacity:0;stroke:#ffffff;stroke-width:3;stroke-linecap:round;stroke-linejoin:round;stroke-miterlimit:4;stroke-dasharray:none;stroke-opacity:1"
     d="M 24.996231,58.377 H 39.003769"
     id="path945" /><path
     style="fill:#000000;fill-opacity:0;stroke:#ffffff;stroke-width:3;stroke-linecap:round;stroke-linejoin:round;stroke-miterlimit:4;stroke-dasharray:none;stroke-opacity:1"
     d="M 29.66541,58.377 32,61.500293 34.334589,58.377"
     id="path947" /><g
     inkscape:groupmode="layer"
     id="layer5"
     inkscape:label="Carrot"
     transform="matrix(1.7075971,0,0,1.7075971,-17.640016,-26.802662)"><g
       id="g187"
       transform="matrix(0.3131954,0,0,0.35203474,19.497611,-9.9419659)"><path
         style="fill:#a0a0a0;stroke-width:0.088965"
         d="m 12.883583,134.28483 c -0.215652,-0.11385 -0.512197,-0.37735 -0.65899,-0.58555 -0.263688,-0.37401 -0.26724,-0.39455 -0.295604,-1.70953 -0.02618,-1.21373 -0.008,-1.40703 0.206572,-2.1946 0.267685,-0.98258 0.634717,-2.07943 0.819184,-2.44808 0.205437,-0.41055 0.707898,-0.91056 1.086662,-1.08136 0.337266,-0.15209 0.385585,-0.15261 0.959504,-0.0105 1.254234,0.31059 2.256261,0.75769 3.375383,1.50607 0.787838,0.52684 1.024812,0.88007 1.024812,1.5276 0,0.62546 -0.217671,0.88468 -1.482875,1.76593 -1.106496,0.7707 -1.691139,1.29297 -2.833727,2.53144 -0.285349,0.30929 -0.645219,0.63942 -0.799713,0.73363 -0.380232,0.23185 -0.921285,0.21831 -1.401208,-0.0351 z m 6.679048,-6.05135 c -0.172125,-0.0616 -0.632519,-0.35493 -1.023098,-0.65191 -0.748707,-0.56927 -1.531248,-1.00789 -1.797007,-1.00723 -0.08726,1.8e-4 -0.492759,-0.10579 -0.90112,-0.23559 -0.551674,-0.17534 -0.820303,-0.31612 -1.045339,-0.54783 -0.359621,-0.37029 -0.386223,-0.65827 -0.131036,-1.4185 0.0945,-0.28155 0.277608,-0.9723 0.406894,-1.53501 0.332381,-1.44665 0.627487,-2.31759 1.118586,-3.30124 0.513901,-1.02932 0.915415,-1.63985 1.201872,-1.82755 0.290196,-0.19014 1.069151,-0.16771 1.942896,0.056 1.006138,0.25756 1.812708,0.73412 3.800588,2.24557 2.775169,2.11005 3.396769,3.12602 2.833567,4.63131 -0.218686,0.58449 -0.468766,0.82516 -1.360824,1.30964 -0.381613,0.20725 -0.975431,0.63524 -1.319595,0.95107 -0.839209,0.77015 -2.224167,1.45298 -2.935229,1.44717 -0.26301,-0.002 -0.61903,-0.0543 -0.791155,-0.11586 z m 7.316308,-5.48878 c -0.256436,-0.10297 -0.57997,-0.46134 -0.880097,-0.97487 -0.568036,-0.97192 -0.799128,-1.31982 -1.175496,-1.76964 -0.965404,-1.15382 -2.230004,-1.91259 -4.33608,-2.60167 -0.954642,-0.31234 -1.202986,-0.43168 -1.490714,-0.71632 l -0.345244,-0.34155 0.04581,-0.64384 c 0.06194,-0.87042 0.309799,-1.38874 1.562909,-3.2683 1.626879,-2.44018 2.389881,-3.07138 3.707946,-3.06743 0.639612,0.002 1.306813,0.21011 3.058934,0.95448 1.320407,0.56096 3.45456,2.13567 4.407626,3.25222 0.714618,0.83719 1.20753,2.08144 1.20753,3.04815 0,0.77886 -0.183628,1.16584 -1.08273,2.2818 -0.358649,0.44515 -0.85226,1.07142 -1.096913,1.39172 -0.407686,0.53374 -2.432571,2.33277 -2.785696,2.47499 -0.210686,0.0849 -0.558761,0.0762 -0.797789,-0.0197 z m 6.620507,-8.39413 c -1.291883,-0.48379 -1.611514,-2.07855 -0.658056,-3.28329 0.288032,-0.36395 1.857124,-1.76502 2.86997,-2.56266 1.303644,-1.02664 3.604824,-2.39162 4.489884,-2.66323 0.123895,-0.038 0.505502,-0.17589 0.848018,-0.30637 2.57668,-0.9816 2.966901,-1.06783 5.471349,-1.20912 1.919502,-0.10829 2.614641,-0.0702 3.459273,0.18955 1.702721,0.52364 3.000781,2.0196 2.81683,3.24628 -0.208095,1.38767 -1.764199,2.96503 -3.187372,3.23091 -0.564633,0.10548 -3.081215,0.0661 -4.978113,-0.078 -2.287245,-0.17369 -3.193653,-0.0354 -4.738513,0.72303 -1.270369,0.62366 -1.658527,0.8704 -2.722209,1.73042 -1.009382,0.81611 -1.490552,1.02252 -2.496781,1.07109 -0.591924,0.0286 -0.92939,0.003 -1.17428,-0.0886 z m -3.146698,-2.90552 c -0.867946,-0.1713 -1.481023,-0.61648 -1.63465,-1.18701 -0.242923,-0.90215 0.146952,-1.99226 1.610092,-4.50191 1.081777,-1.85552 1.19333,-2.05806 1.641459,-2.98033 1.228786,-2.52888 2.394202,-6.881082 2.381752,-8.894549 -0.0075,-1.216962 0.173024,-1.563196 1.048582,-2.010837 0.312151,-0.159593 0.589759,-0.212956 1.260198,-0.242245 0.767141,-0.03351 0.968588,-0.0066 1.868266,0.249505 1.780141,0.50676 2.385045,0.943488 2.947818,2.128263 0.509492,1.072606 0.42138,2.127197 -0.338776,4.054721 -1.063855,2.697612 -1.973711,4.181102 -4.318096,7.040522 -1.290538,1.57405 -2.016753,2.53352 -2.535651,3.3501 -1.151586,1.81223 -1.410906,2.17965 -1.784894,2.52895 -0.569662,0.53205 -1.158826,0.65966 -2.1461,0.46482 z M 25.0311,109.0031 c -0.339754,-0.14923 -0.947425,-0.80137 -1.190251,-1.27735 -0.240546,-0.47151 -0.243973,-1.34696 -0.0092,-2.3407 0.0963,-0.40754 0.214258,-1.14132 0.262132,-1.63063 0.04787,-0.48931 0.156784,-1.5052 0.242021,-2.25753 0.168467,-1.48694 0.114237,-2.532424 -0.194387,-3.74761 -0.316039,-1.244385 -1.367946,-2.674709 -2.385607,-3.243817 -0.724585,-0.405211 -0.842541,-0.641511 -0.681575,-1.365395 0.145489,-0.654279 0.444483,-1.235256 0.817324,-1.588141 0.380017,-0.359678 1.315836,-0.865058 1.936839,-1.045971 1.462996,-0.426207 3.185054,0.127092 4.318224,1.38745 0.495535,0.551155 0.689331,0.909788 0.907749,1.679855 0.146468,0.516395 0.162505,0.968021 0.162505,4.576362 0,3.181547 -0.03228,4.323047 -0.15726,5.560317 -0.379655,3.7586 -0.543534,4.19251 -1.845517,4.88646 -0.966763,0.51528 -1.647223,0.64205 -2.183036,0.4067 z"
         id="path201" /><path
         style="fill:#e38634;stroke-width:0.088965"
         d="m 13.021598,134.23564 c -0.444982,-0.20212 -0.807445,-0.62147 -0.929743,-1.07565 -0.156631,-0.58168 -0.05357,-2.70301 0.166531,-3.42779 0.597621,-1.9679 0.76615,-2.38112 1.143477,-2.80373 0.207122,-0.23198 0.517643,-0.48871 0.690047,-0.57052 0.292624,-0.13886 0.350389,-0.13891 0.868926,-8.1e-4 1.925214,0.51293 3.917408,1.61013 4.214483,2.32113 0.182953,0.43787 0.152369,0.93821 -0.07818,1.27892 -0.110095,0.16271 -0.460394,0.47423 -0.778444,0.69228 -1.360644,0.93284 -2.226343,1.65938 -2.935846,2.46394 -1.108249,1.25673 -1.575843,1.47895 -2.361254,1.12219 z m 6.598569,-6.11015 c -0.189411,-0.0694 -0.689839,-0.38208 -1.112063,-0.69477 -0.938875,-0.69532 -1.288994,-0.86953 -2.146637,-1.06817 -0.826405,-0.19139 -1.402133,-0.46933 -1.635767,-0.78967 -0.201723,-0.27659 -0.22827,-0.0966 0.351048,-2.37961 0.180039,-0.70949 0.427045,-1.61026 0.548902,-2.00171 0.278733,-0.89538 1.162238,-2.64493 1.585193,-3.13906 0.307664,-0.35944 0.34205,-0.375 0.825651,-0.37369 0.598116,0.002 1.783545,0.28459 2.283917,0.5452 1.303601,0.67894 3.93516,2.69576 4.920436,3.77102 0.769417,0.83968 0.955823,1.50189 0.682166,2.42339 -0.18855,0.63492 -0.473764,0.93443 -1.354507,1.42241 -0.418655,0.23196 -1.005283,0.65432 -1.303615,0.93858 -0.388342,0.37003 -0.819746,0.65434 -1.518698,1.00086 -1.062466,0.52674 -1.45639,0.59071 -2.126026,0.34522 z m 7.148162,-5.57721 c -0.188015,-0.12747 -0.527088,-0.58793 -0.933548,-1.26775 -0.932117,-1.55902 -1.983245,-2.55641 -3.435503,-3.2599 -0.596423,-0.28891 -1.781436,-0.74303 -2.167832,-0.83076 -0.565636,-0.12842 -1.071837,-0.4117 -1.280004,-0.71629 -0.182354,-0.26683 -0.205708,-0.38308 -0.164976,-0.82124 0.05391,-0.57994 0.482377,-1.57227 1.012689,-2.3454 0.188829,-0.27529 0.646541,-0.95614 1.017138,-1.513 0.857206,-1.28805 1.551369,-1.93668 2.354953,-2.20048 0.71727,-0.23546 0.886009,-0.23603 1.577982,-0.005 2.058854,0.68654 2.788432,1.02052 3.991004,1.827 1.751987,1.17493 2.766944,2.20307 3.313255,3.35628 0.790746,1.66918 0.690692,2.46944 -0.491788,3.93346 -0.314224,0.38904 -0.770176,0.98173 -1.013226,1.3171 -0.274181,0.37832 -0.8729,0.9787 -1.577425,1.58179 -1.437915,1.2309 -1.647612,1.32081 -2.202719,0.94447 z m 6.962277,-8.24964 c -0.769107,-0.18242 -1.263465,-0.7945 -1.336561,-1.65483 -0.06298,-0.74128 0.258859,-1.29242 1.34388,-2.30134 2.388155,-2.22065 4.575809,-3.66281 6.822029,-4.49726 0.415912,-0.15451 0.936357,-0.35395 1.156545,-0.4432 1.789435,-0.72538 2.692031,-0.88721 5.317723,-0.95343 1.804688,-0.0455 2.147329,-0.0321 2.668951,0.10478 1.186996,0.31138 2.349051,1.16165 2.766687,2.02437 0.213774,0.4416 0.252204,1.1921 0.08594,1.67839 -0.285979,0.83644 -1.337071,1.97716 -2.190295,2.37707 l -0.508709,0.23843 -2.224125,-8.9e-4 c -1.223269,-4.4e-4 -2.827827,-0.0364 -3.565684,-0.08 -2.097684,-0.1237 -3.167331,0.11353 -4.885994,1.08362 -0.939504,0.5303 -1.412522,0.85466 -1.989054,1.36395 -1.042334,0.92077 -2.354652,1.32275 -3.461336,1.06026 z m -3.235209,-2.9351 c -0.607717,-0.10883 -1.16357,-0.38253 -1.437111,-0.70762 -0.214982,-0.25549 -0.241715,-0.35956 -0.241715,-0.94095 0,-0.51715 0.0548,-0.78981 0.262343,-1.30541 0.257069,-0.63861 0.59345,-1.32133 0.956701,-1.94171 1.815783,-3.1011 2.335456,-4.13038 2.897184,-5.73824 0.987878,-2.827661 1.449204,-4.868978 1.548133,-6.850308 0.03038,-0.608486 0.104554,-1.168961 0.172481,-1.303332 0.06555,-0.129664 0.310383,-0.347077 0.54408,-0.483141 0.387221,-0.22545 0.520844,-0.2507 1.506762,-0.284726 0.980654,-0.03384 1.159588,-0.01456 1.912748,0.206101 1.666665,0.488307 2.223784,0.900866 2.758905,2.043028 0.584656,1.247889 0.345279,2.585354 -0.960457,5.366323 -0.214108,0.456008 -0.389287,0.850315 -0.389287,0.876225 0,0.11811 -1.066211,1.84173 -1.571174,2.53994 -0.308527,0.42659 -1.163098,1.50752 -1.899047,2.40205 -1.208223,1.46858 -2.068326,2.66753 -3.209042,4.4733 -0.461195,0.73008 -1.000073,1.34304 -1.331304,1.51433 -0.315192,0.16299 -1.014542,0.2247 -1.5202,0.13414 z m -5.301984,-2.43368 c -0.3995,-0.14539 -1.00915,-0.74657 -1.247677,-1.23035 -0.253037,-0.5132 -0.261146,-1.19455 -0.02589,-2.17577 0.09517,-0.39693 0.215893,-1.15758 0.268277,-1.69033 0.05238,-0.53275 0.159408,-1.44905 0.237833,-2.03622 0.255598,-1.9137 0.04758,-3.851005 -0.544501,-5.071008 -0.384559,-0.792397 -1.331024,-1.856518 -2.034792,-2.287739 -0.742288,-0.454824 -0.827207,-0.640065 -0.638288,-1.392355 0.257923,-1.027071 0.712356,-1.539185 1.876273,-2.114423 l 0.696174,-0.344069 h 1.118548 c 1.092729,0 1.13288,0.007 1.739432,0.304003 0.709136,0.347212 1.774266,1.345667 2.036174,1.908712 0.08812,0.189447 0.239657,0.72991 0.33674,1.201028 0.164083,0.79625 0.173447,1.113474 0.132957,4.504144 -0.02877,2.408997 -0.09024,4.070487 -0.181045,4.893077 -0.07562,0.68503 -0.177828,1.64585 -0.227133,2.13516 -0.123801,1.22859 -0.39138,2.05536 -0.785503,2.42707 -0.350233,0.33031 -0.985691,0.67371 -1.704089,0.92087 -0.548968,0.18888 -0.653777,0.19367 -1.053486,0.0482 z"
         id="path199" /><path
         style="fill:#51cf29;stroke-width:0.088965"
         d="m 13.021598,134.23564 c -0.444982,-0.20212 -0.807445,-0.62147 -0.929743,-1.07565 -0.156631,-0.58168 -0.05357,-2.70301 0.166531,-3.42779 0.597621,-1.9679 0.76615,-2.38112 1.143477,-2.80373 0.207122,-0.23198 0.517643,-0.48871 0.690047,-0.57052 0.292624,-0.13886 0.350389,-0.13891 0.868926,-8.1e-4 1.925214,0.51293 3.917408,1.61013 4.214483,2.32113 0.182953,0.43787 0.152369,0.93821 -0.07818,1.27892 -0.110095,0.16271 -0.460394,0.47423 -0.778444,0.69228 -1.360644,0.93284 -2.226343,1.65938 -2.935846,2.46394 -1.108249,1.25673 -1.575843,1.47895 -2.361254,1.12219 z m 2.177621,-1.60342 c 0.877399,-0.8993 1.492603,-1.43643 2.254219,-1.96817 1.388797,-0.96961 1.568748,-1.21826 1.303282,-1.8009 -0.157112,-0.34482 -1.528476,-1.21245 -2.5287,-1.59984 -1.620546,-0.62764 -1.866492,-0.6414 -2.382887,-0.13333 -0.402382,0.39589 -0.490084,0.6075 -1.096925,2.64671 -0.225227,0.75684 -0.251082,0.97532 -0.247412,2.09067 0.0027,0.81322 0.04234,1.31664 0.114279,1.45045 0.161729,0.3008 0.627406,0.55055 1.027256,0.55093 0.333049,3.6e-4 0.409114,-0.0601 1.556888,-1.23652 z m 4.420948,-4.50673 c -0.189411,-0.0694 -0.689839,-0.38208 -1.112063,-0.69477 -0.938875,-0.69532 -1.288994,-0.86953 -2.146637,-1.06817 -0.826405,-0.19139 -1.402133,-0.46933 -1.635767,-0.78967 -0.201723,-0.27659 -0.22827,-0.0966 0.351048,-2.37961 0.180039,-0.70949 0.427045,-1.61026 0.548902,-2.00171 0.278733,-0.89538 1.162238,-2.64493 1.585193,-3.13906 0.307664,-0.35944 0.34205,-0.375 0.825651,-0.37369 0.598116,0.002 1.783545,0.28459 2.283917,0.5452 1.303601,0.67894 3.93516,2.69576 4.920436,3.77102 0.769417,0.83968 0.955823,1.50189 0.682166,2.42339 -0.18855,0.63492 -0.473764,0.93443 -1.354507,1.42241 -0.418655,0.23196 -1.005283,0.65432 -1.303615,0.93858 -0.388342,0.37003 -0.819746,0.65434 -1.518698,1.00086 -1.062466,0.52674 -1.45639,0.59071 -2.126026,0.34522 z m 1.962778,-0.79093 c 0.682198,-0.34401 1.116686,-0.63482 1.495382,-1.00086 0.315905,-0.30535 0.84246,-0.67937 1.289992,-0.9163 0.666319,-0.35276 0.780958,-0.45024 0.964465,-0.82013 0.508121,-1.0242 0.303909,-1.66655 -0.864479,-2.71922 -0.985237,-0.88765 -1.233292,-1.0887 -2.27395,-1.84303 -0.472527,-0.34252 -1.004734,-0.73431 -1.18268,-0.87065 -0.692665,-0.53071 -1.649607,-0.87499 -2.787405,-1.00282 -0.487106,-0.0547 -0.498485,-0.0507 -0.734634,0.25889 -0.340593,0.44654 -1.250945,2.26655 -1.41563,2.83018 -0.07629,0.2611 -0.263924,1.00157 -0.416962,1.64549 -0.153039,0.64392 -0.357775,1.4019 -0.454971,1.6844 -0.0972,0.28251 -0.154485,0.5837 -0.127311,0.66932 0.06015,0.18952 0.640206,0.47823 1.242223,0.61828 0.886924,0.20634 1.631151,0.55261 2.324746,1.08163 0.807703,0.61606 1.294156,0.865 1.695704,0.86776 0.169992,0.001 0.669777,-0.19262 1.24551,-0.48294 z m 5.185384,-4.78628 c -0.188015,-0.12747 -0.527088,-0.58793 -0.933548,-1.26775 -0.932117,-1.55902 -1.983245,-2.55641 -3.435503,-3.2599 -0.596423,-0.28891 -1.781436,-0.74303 -2.167832,-0.83076 -0.565636,-0.12842 -1.071837,-0.4117 -1.280004,-0.71629 -0.182354,-0.26683 -0.205708,-0.38308 -0.164976,-0.82124 0.05391,-0.57994 0.482377,-1.57227 1.012689,-2.3454 0.188829,-0.27529 0.646541,-0.95614 1.017138,-1.513 0.857206,-1.28805 1.551369,-1.93668 2.354953,-2.20048 0.71727,-0.23546 0.886009,-0.23603 1.577982,-0.005 2.058854,0.68654 2.788432,1.02052 3.991004,1.827 1.751987,1.17493 2.766944,2.20307 3.313255,3.35628 0.790746,1.66918 0.690692,2.46944 -0.491788,3.93346 -0.314224,0.38904 -0.770176,0.98173 -1.013226,1.3171 -0.274181,0.37832 -0.8729,0.9787 -1.577425,1.58179 -1.437915,1.2309 -1.647612,1.32081 -2.202719,0.94447 z m 0.784908,-0.36965 c 0.13213,-0.0687 0.340322,-0.23279 0.462648,-0.36455 0.122327,-0.13175 0.574711,-0.52102 1.005298,-0.86504 0.499177,-0.39882 0.91539,-0.82285 1.148529,-1.1701 0.201103,-0.29953 0.654282,-0.90492 1.007063,-1.34529 0.842551,-1.05176 0.879017,-1.13027 0.870017,-1.87311 -0.0058,-0.48231 -0.07158,-0.78736 -0.283948,-1.31774 -0.459758,-1.14819 -0.90298,-1.66701 -2.351031,-2.75202 -1.501163,-1.12482 -2.202659,-1.53312 -3.250943,-1.89222 -0.374267,-0.12821 -0.947421,-0.34941 -1.273672,-0.49157 -0.745267,-0.32473 -1.133178,-0.32575 -1.808871,-0.005 -0.670405,0.31852 -1.198691,0.86019 -1.823784,1.87001 -0.269119,0.43475 -0.712266,1.10559 -0.984772,1.49076 -0.66644,0.94194 -0.972458,1.67959 -0.972458,2.34407 v 0.51999 l 0.383948,0.18586 c 0.211172,0.10223 0.470353,0.18587 0.575957,0.18587 0.105605,0 0.503316,0.12309 0.883803,0.27353 2.594913,1.02602 3.99601,2.13639 5.013638,3.97333 0.441045,0.79614 0.884464,1.35793 1.071802,1.35793 0.0476,0 0.194646,-0.0562 0.326776,-0.12499 z m 6.177369,-7.87999 c -0.769107,-0.18242 -1.263465,-0.7945 -1.336561,-1.65483 -0.06298,-0.74128 0.258859,-1.29242 1.34388,-2.30134 2.388155,-2.22065 4.575809,-3.66281 6.822029,-4.49726 0.415912,-0.15451 0.936357,-0.35395 1.156545,-0.4432 1.789435,-0.72538 2.692031,-0.88721 5.317723,-0.95343 1.804688,-0.0455 2.147329,-0.0321 2.668951,0.10478 1.186996,0.31138 2.349051,1.16165 2.766687,2.02437 0.213774,0.4416 0.252204,1.1921 0.08594,1.67839 -0.285979,0.83644 -1.337071,1.97716 -2.190295,2.37707 l -0.508709,0.23843 -2.224125,-8.9e-4 c -1.223269,-4.4e-4 -2.827827,-0.0364 -3.565684,-0.08 -2.097684,-0.1237 -3.167331,0.11353 -4.885994,1.08362 -0.939504,0.5303 -1.412522,0.85466 -1.989054,1.36395 -1.042334,0.92077 -2.354652,1.32275 -3.461336,1.06026 z m -3.235209,-2.9351 c -0.607717,-0.10883 -1.16357,-0.38253 -1.437111,-0.70762 -0.214982,-0.25549 -0.241715,-0.35956 -0.241715,-0.94095 0,-0.51715 0.0548,-0.78981 0.262343,-1.30541 0.257069,-0.63861 0.59345,-1.32133 0.956701,-1.94171 1.815783,-3.1011 2.335456,-4.13038 2.897184,-5.73824 0.987878,-2.827661 1.449204,-4.868978 1.548133,-6.850308 0.03038,-0.608486 0.104554,-1.168961 0.172481,-1.303332 0.06555,-0.129664 0.310383,-0.347077 0.54408,-0.483141 0.387221,-0.22545 0.520844,-0.2507 1.506762,-0.284726 0.980654,-0.03384 1.159588,-0.01456 1.912748,0.206101 1.666665,0.488307 2.223784,0.900866 2.758905,2.043028 0.584656,1.247889 0.345279,2.585354 -0.960457,5.366323 -0.214108,0.456008 -0.389287,0.850315 -0.389287,0.876225 0,0.11811 -1.066211,1.84173 -1.571174,2.53994 -0.308527,0.42659 -1.163098,1.50752 -1.899047,2.40205 -1.208223,1.46858 -2.068326,2.66753 -3.209042,4.4733 -0.461195,0.73008 -1.000073,1.34304 -1.331304,1.51433 -0.315192,0.16299 -1.014542,0.2247 -1.5202,0.13414 z m -5.301984,-2.43368 c -0.3995,-0.14539 -1.00915,-0.74657 -1.247677,-1.23035 -0.253037,-0.5132 -0.261146,-1.19455 -0.02589,-2.17577 0.09517,-0.39693 0.215893,-1.15758 0.268277,-1.69033 0.05238,-0.53275 0.159408,-1.44905 0.237833,-2.03622 0.255598,-1.9137 0.04758,-3.851005 -0.544501,-5.071008 -0.384559,-0.792397 -1.331024,-1.856518 -2.034792,-2.287739 -0.742288,-0.454824 -0.827207,-0.640065 -0.638288,-1.392355 0.257923,-1.027071 0.712356,-1.539185 1.876273,-2.114423 l 0.696174,-0.344069 h 1.118548 c 1.092729,0 1.13288,0.007 1.739432,0.304003 0.709136,0.347212 1.774266,1.345667 2.036174,1.908712 0.08812,0.189447 0.239657,0.72991 0.33674,1.201028 0.164083,0.79625 0.173447,1.113474 0.132957,4.504144 -0.02877,2.408997 -0.09024,4.070487 -0.181045,4.893077 -0.07562,0.68503 -0.177828,1.64585 -0.227133,2.13516 -0.123801,1.22859 -0.39138,2.05536 -0.785503,2.42707 -0.350233,0.33031 -0.985691,0.67371 -1.704089,0.92087 -0.548968,0.18888 -0.653777,0.19367 -1.053486,0.0482 z"
         id="path197" /><path
         style="fill:#b16b2c;stroke-width:0.088965"
         d="m 13.021598,134.23564 c -0.444982,-0.20212 -0.807445,-0.62147 -0.929743,-1.07565 -0.156631,-0.58168 -0.05357,-2.70301 0.166531,-3.42779 0.597621,-1.9679 0.76615,-2.38112 1.143477,-2.80373 0.207122,-0.23198 0.517643,-0.48871 0.690047,-0.57052 0.292624,-0.13886 0.350389,-0.13891 0.868926,-8.1e-4 1.925214,0.51293 3.917408,1.61013 4.214483,2.32113 0.182953,0.43787 0.152369,0.93821 -0.07818,1.27892 -0.110095,0.16271 -0.460394,0.47423 -0.778444,0.69228 -1.360644,0.93284 -2.226343,1.65938 -2.935846,2.46394 -1.108249,1.25673 -1.575843,1.47895 -2.361254,1.12219 z m 2.177621,-1.60342 c 0.877399,-0.8993 1.492603,-1.43643 2.254219,-1.96817 1.388797,-0.96961 1.568748,-1.21826 1.303282,-1.8009 -0.157112,-0.34482 -1.528476,-1.21245 -2.5287,-1.59984 -1.620546,-0.62764 -1.866492,-0.6414 -2.382887,-0.13333 -0.402382,0.39589 -0.490084,0.6075 -1.096925,2.64671 -0.225227,0.75684 -0.251082,0.97532 -0.247412,2.09067 0.0027,0.81322 0.04234,1.31664 0.114279,1.45045 0.161729,0.3008 0.627406,0.55055 1.027256,0.55093 0.333049,3.6e-4 0.409114,-0.0601 1.556888,-1.23652 z m 4.420948,-4.50673 c -0.189411,-0.0694 -0.689839,-0.38208 -1.112063,-0.69477 -0.938875,-0.69532 -1.288994,-0.86953 -2.146637,-1.06817 -0.826405,-0.19139 -1.402133,-0.46933 -1.635767,-0.78967 -0.201723,-0.27659 -0.22827,-0.0966 0.351048,-2.37961 0.180039,-0.70949 0.427045,-1.61026 0.548902,-2.00171 0.278733,-0.89538 1.162238,-2.64493 1.585193,-3.13906 0.307664,-0.35944 0.34205,-0.375 0.825651,-0.37369 0.598116,0.002 1.783545,0.28459 2.283917,0.5452 1.303601,0.67894 3.93516,2.69576 4.920436,3.77102 0.769417,0.83968 0.955823,1.50189 0.682166,2.42339 -0.18855,0.63492 -0.473764,0.93443 -1.354507,1.42241 -0.418655,0.23196 -1.005283,0.65432 -1.303615,0.93858 -0.388342,0.37003 -0.819746,0.65434 -1.518698,1.00086 -1.062466,0.52674 -1.45639,0.59071 -2.126026,0.34522 z m 1.962778,-0.79093 c 0.682198,-0.34401 1.116686,-0.63482 1.495382,-1.00086 0.315905,-0.30535 0.84246,-0.67937 1.289992,-0.9163 0.666319,-0.35276 0.780958,-0.45024 0.964465,-0.82013 0.508121,-1.0242 0.303909,-1.66655 -0.864479,-2.71922 -0.985237,-0.88765 -1.233292,-1.0887 -2.27395,-1.84303 -0.472527,-0.34252 -1.004734,-0.73431 -1.18268,-0.87065 -0.692665,-0.53071 -1.649607,-0.87499 -2.787405,-1.00282 -0.487106,-0.0547 -0.498485,-0.0507 -0.734634,0.25889 -0.340593,0.44654 -1.250945,2.26655 -1.41563,2.83018 -0.07629,0.2611 -0.263924,1.00157 -0.416962,1.64549 -0.153039,0.64392 -0.357775,1.4019 -0.454971,1.6844 -0.0972,0.28251 -0.154485,0.5837 -0.127311,0.66932 0.06015,0.18952 0.640206,0.47823 1.242223,0.61828 0.886924,0.20634 1.631151,0.55261 2.324746,1.08163 0.807703,0.61606 1.294156,0.865 1.695704,0.86776 0.169992,0.001 0.669777,-0.19262 1.24551,-0.48294 z m 5.185384,-4.78628 c -0.188015,-0.12747 -0.527088,-0.58793 -0.933548,-1.26775 -0.932117,-1.55902 -1.983245,-2.55641 -3.435503,-3.2599 -0.596423,-0.28891 -1.781436,-0.74303 -2.167832,-0.83076 -0.565636,-0.12842 -1.071837,-0.4117 -1.280004,-0.71629 -0.182354,-0.26683 -0.205708,-0.38308 -0.164976,-0.82124 0.05391,-0.57994 0.482377,-1.57227 1.012689,-2.3454 0.188829,-0.27529 0.646541,-0.95614 1.017138,-1.513 0.857206,-1.28805 1.551369,-1.93668 2.354953,-2.20048 0.71727,-0.23546 0.886009,-0.23603 1.577982,-0.005 2.058854,0.68654 2.788432,1.02052 3.991004,1.827 1.751987,1.17493 2.766944,2.20307 3.313255,3.35628 0.790746,1.66918 0.690692,2.46944 -0.491788,3.93346 -0.314224,0.38904 -0.770176,0.98173 -1.013226,1.3171 -0.274181,0.37832 -0.8729,0.9787 -1.577425,1.58179 -1.437915,1.2309 -1.647612,1.32081 -2.202719,0.94447 z m 0.784908,-0.36965 c 0.13213,-0.0687 0.340322,-0.23279 0.462648,-0.36455 0.122327,-0.13175 0.574711,-0.52102 1.005298,-0.86504 0.499177,-0.39882 0.91539,-0.82285 1.148529,-1.1701 0.201103,-0.29953 0.654282,-0.90492 1.007063,-1.34529 0.842551,-1.05176 0.879017,-1.13027 0.870017,-1.87311 -0.0058,-0.48231 -0.07158,-0.78736 -0.283948,-1.31774 -0.459758,-1.14819 -0.90298,-1.66701 -2.351031,-2.75202 -1.501163,-1.12482 -2.202659,-1.53312 -3.250943,-1.89222 -0.374267,-0.12821 -0.947421,-0.34941 -1.273672,-0.49157 -0.745267,-0.32473 -1.133178,-0.32575 -1.808871,-0.005 -0.670405,0.31852 -1.198691,0.86019 -1.823784,1.87001 -0.269119,0.43475 -0.712266,1.10559 -0.984772,1.49076 -0.66644,0.94194 -0.972458,1.67959 -0.972458,2.34407 v 0.51999 l 0.383948,0.18586 c 0.211172,0.10223 0.470353,0.18587 0.575957,0.18587 0.105605,0 0.503316,0.12309 0.883803,0.27353 2.594913,1.02602 3.99601,2.13639 5.013638,3.97333 0.441045,0.79614 0.884464,1.35793 1.071802,1.35793 0.0476,0 0.194646,-0.0562 0.326776,-0.12499 z m 6.177369,-7.87999 c -0.769107,-0.18242 -1.263465,-0.7945 -1.336561,-1.65483 -0.06298,-0.74128 0.258859,-1.29242 1.34388,-2.30134 2.388155,-2.22065 4.575809,-3.66281 6.822029,-4.49726 0.415912,-0.15451 0.936357,-0.35395 1.156545,-0.4432 1.789435,-0.72538 2.692031,-0.88721 5.317723,-0.95343 1.804688,-0.0455 2.147329,-0.0321 2.668951,0.10478 1.186996,0.31138 2.349051,1.16165 2.766687,2.02437 0.213774,0.4416 0.252204,1.1921 0.08594,1.67839 -0.285979,0.83644 -1.337071,1.97716 -2.190295,2.37707 l -0.508709,0.23843 -2.224125,-8.9e-4 c -1.223269,-4.4e-4 -2.827827,-0.0364 -3.565684,-0.08 -2.097684,-0.1237 -3.167331,0.11353 -4.885994,1.08362 -0.939504,0.5303 -1.412522,0.85466 -1.989054,1.36395 -1.042334,0.92077 -2.354652,1.32275 -3.461336,1.06026 z M 35.355,113.83365 c 0.512822,-0.12877 0.988242,-0.39064 1.410543,-0.77695 0.480315,-0.43937 1.510681,-1.12411 2.459936,-1.63478 1.757353,-0.94539 3.149613,-1.21785 5.266059,-1.03055 0.651148,0.0576 2.12471,0.10919 3.274583,0.11458 l 2.090678,0.01 0.451629,-0.23833 c 0.893971,-0.47176 1.99491,-1.97487 1.99491,-2.72364 0,-0.58728 -0.197197,-1.01218 -0.698912,-1.50594 -0.510056,-0.50197 -1.44482,-1.01296 -2.147969,-1.17419 -0.507003,-0.11625 -2.573053,-0.1197 -3.938292,-0.007 -1.38031,0.11437 -1.940997,0.27051 -4.869246,1.35593 -1.374624,0.50954 -3.440865,1.70121 -4.715146,2.71937 -0.797531,0.63724 -2.746799,2.40775 -2.885925,2.62128 -0.255982,0.39287 -0.359407,0.99462 -0.239651,1.39433 0.267349,0.89234 1.201443,1.2135 2.546803,0.87566 z m -4.859603,-2.47011 c -0.607717,-0.10883 -1.16357,-0.38253 -1.437111,-0.70762 -0.214982,-0.25549 -0.241715,-0.35956 -0.241715,-0.94095 0,-0.51715 0.0548,-0.78981 0.262343,-1.30541 0.257069,-0.63861 0.59345,-1.32133 0.956701,-1.94171 1.815783,-3.1011 2.335456,-4.13038 2.897184,-5.73824 0.987878,-2.827661 1.449204,-4.868978 1.548133,-6.850308 0.03038,-0.608486 0.104554,-1.168961 0.172481,-1.303332 0.06555,-0.129664 0.310383,-0.347077 0.54408,-0.483141 0.387221,-0.22545 0.520844,-0.2507 1.506762,-0.284726 0.980654,-0.03384 1.159588,-0.01456 1.912748,0.206101 1.666665,0.488307 2.223784,0.900866 2.758905,2.043028 0.584656,1.247889 0.345279,2.585354 -0.960457,5.366323 -0.214108,0.456008 -0.389287,0.850315 -0.389287,0.876225 0,0.11811 -1.066211,1.84173 -1.571174,2.53994 -0.308527,0.42659 -1.163098,1.50752 -1.899047,2.40205 -1.208223,1.46858 -2.068326,2.66753 -3.209042,4.4733 -0.461195,0.73008 -1.000073,1.34304 -1.331304,1.51433 -0.315192,0.16299 -1.014542,0.2247 -1.5202,0.13414 z m 1.782937,-0.85918 c 0.224519,-0.24527 0.666267,-0.86349 0.981663,-1.37382 0.829438,-1.34208 1.856743,-2.7504 3.207778,-4.39751 0.984448,-1.20018 1.81037,-2.28254 2.251159,-2.95009 0.808714,-1.22476 1.680997,-3.100054 2.328335,-5.005616 0.45505,-1.339526 0.26039,-2.513828 -0.565174,-3.409459 -0.591032,-0.641195 -1.985665,-1.134896 -3.401543,-1.204151 -1.026378,-0.0502 -1.640043,0.112571 -1.989321,0.527664 -0.206882,0.245865 -0.225006,0.336877 -0.224626,1.128026 2.67e-4,0.473321 -0.06287,1.200874 -0.14022,1.616786 -0.372194,2.00133 -0.398067,2.113961 -0.88901,3.869978 -0.0684,0.244654 -0.24809,0.785112 -0.399311,1.201032 -0.15122,0.41591 -0.346844,0.95637 -0.434719,1.20102 -0.317905,0.88509 -0.972742,2.16569 -1.887926,3.69205 -1.258498,2.09895 -1.768895,3.17278 -1.882464,3.96055 -0.07186,0.49845 -0.06461,0.67696 0.03594,0.88516 0.245431,0.50821 0.961602,0.7639 2.030826,0.72506 0.561706,-0.0204 0.576621,-0.0275 0.978615,-0.46668 z m -7.084921,-1.5745 c -0.3995,-0.14539 -1.00915,-0.74657 -1.247677,-1.23035 -0.253037,-0.5132 -0.261146,-1.19455 -0.02589,-2.17577 0.09517,-0.39693 0.215893,-1.15758 0.268277,-1.69033 0.05238,-0.53275 0.159408,-1.44905 0.237833,-2.03622 0.255598,-1.9137 0.04758,-3.851005 -0.544501,-5.071008 -0.384559,-0.792397 -1.331024,-1.856518 -2.034792,-2.287739 -0.742288,-0.454824 -0.827207,-0.640065 -0.638288,-1.392355 0.257923,-1.027071 0.712356,-1.539185 1.876273,-2.114423 l 0.696174,-0.344069 h 1.118548 c 1.092729,0 1.13288,0.007 1.739432,0.304003 0.709136,0.347212 1.774266,1.345667 2.036174,1.908712 0.08812,0.189447 0.239657,0.72991 0.33674,1.201028 0.164083,0.79625 0.173447,1.113474 0.132957,4.504144 -0.02877,2.408997 -0.09024,4.070487 -0.181045,4.893077 -0.07562,0.68503 -0.177828,1.64585 -0.227133,2.13516 -0.123801,1.22859 -0.39138,2.05536 -0.785503,2.42707 -0.350233,0.33031 -0.985691,0.67371 -1.704089,0.92087 -0.548968,0.18888 -0.653777,0.19367 -1.053486,0.0482 z m 1.461171,-0.6379 c 1.499803,-0.69295 1.506472,-0.70997 1.900296,-4.84892 0.14326,-1.5056 0.185557,-2.67022 0.19871,-5.471347 0.01748,-3.723067 -0.0052,-4.008046 -0.391042,-4.912667 -0.247394,-0.580028 -1.218055,-1.49286 -1.971272,-1.85383 -0.59233,-0.283867 -0.701827,-0.306222 -1.499855,-0.306222 -0.844227,0 -0.876104,0.0077 -1.648362,0.400187 -1.141291,0.579985 -1.390898,0.829787 -1.58896,1.590197 -0.210413,0.807832 -0.187407,0.914087 0.245441,1.133556 0.782915,0.396966 1.890711,1.5944 2.32846,2.516868 0.57144,1.204194 0.790388,3.076697 0.583615,4.991248 -0.06337,0.58676 -0.113225,1.14691 -0.110787,1.24477 0.0063,0.25155 -0.309922,2.53088 -0.468965,3.38067 -0.211614,1.13069 0.01885,1.71436 0.9178,2.32441 0.397271,0.2696 0.5555,0.24974 1.504921,-0.18892 z"
         id="path195" /><path
         style="fill:#5e5e5c;stroke-width:0.088965"
         d="m 13.021598,134.23564 c -0.444982,-0.20212 -0.807445,-0.62147 -0.929743,-1.07565 -0.156631,-0.58168 -0.05357,-2.70301 0.166531,-3.42779 0.597621,-1.9679 0.76615,-2.38112 1.143477,-2.80373 0.207122,-0.23198 0.517643,-0.48871 0.690047,-0.57052 0.292624,-0.13886 0.350389,-0.13891 0.868926,-8.1e-4 1.925214,0.51293 3.917408,1.61013 4.214483,2.32113 0.182953,0.43787 0.152369,0.93821 -0.07818,1.27892 -0.110095,0.16271 -0.460394,0.47423 -0.778444,0.69228 -1.360644,0.93284 -2.226343,1.65938 -2.935846,2.46394 -1.108249,1.25673 -1.575843,1.47895 -2.361254,1.12219 z m 2.135521,-1.37868 c 0.637926,-0.65453 1.487254,-1.42519 1.887395,-1.71258 0.400141,-0.28739 0.950023,-0.68103 1.22196,-0.87475 0.283585,-0.20202 0.557462,-0.48505 0.64224,-0.6637 0.130739,-0.27552 0.133459,-0.35255 0.02355,-0.6671 -0.209386,-0.59923 -1.768493,-1.54508 -3.455691,-2.09644 -0.451818,-0.14764 -0.910338,-0.26844 -1.018933,-0.26844 -0.112468,0 -0.393009,0.18187 -0.65183,0.42258 -0.481717,0.448 -0.635228,0.78266 -1.091653,2.37981 -0.305985,1.07073 -0.374218,1.6696 -0.327673,2.87594 0.03844,0.99628 0.06146,1.11741 0.251588,1.32358 0.26635,0.28883 0.658321,0.46322 1.051124,0.46766 0.27989,0.003 0.414112,-0.10533 1.467923,-1.18656 z m 4.463048,-4.73147 c -0.189411,-0.0694 -0.689839,-0.38208 -1.112063,-0.69477 -0.938875,-0.69532 -1.288994,-0.86953 -2.146637,-1.06817 -0.826405,-0.19139 -1.402133,-0.46933 -1.635767,-0.78967 -0.201723,-0.27659 -0.22827,-0.0966 0.351048,-2.37961 0.180039,-0.70949 0.427045,-1.61026 0.548902,-2.00171 0.278733,-0.89538 1.162238,-2.64493 1.585193,-3.13906 0.307664,-0.35944 0.34205,-0.375 0.825651,-0.37369 0.598116,0.002 1.783545,0.28459 2.283917,0.5452 1.303601,0.67894 3.93516,2.69576 4.920436,3.77102 0.769417,0.83968 0.955823,1.50189 0.682166,2.42339 -0.18855,0.63492 -0.473764,0.93443 -1.354507,1.42241 -0.418655,0.23196 -1.005283,0.65432 -1.303615,0.93858 -0.388342,0.37003 -0.819746,0.65434 -1.518698,1.00086 -1.062466,0.52674 -1.45639,0.59071 -2.126026,0.34522 z m 1.936648,-0.62246 c 0.780206,-0.37086 1.133491,-0.59528 1.414209,-0.89838 0.397554,-0.42925 0.728273,-0.6653 1.552639,-1.10822 0.674159,-0.36221 0.814341,-0.49424 1.012731,-0.95381 0.222126,-0.51457 0.214356,-1.19411 -0.01917,-1.67651 -0.24772,-0.51172 -1.336017,-1.51258 -2.972688,-2.73385 -1.695592,-1.26523 -2.05711,-1.51113 -2.493025,-1.69568 -0.446974,-0.18923 -2.079315,-0.5072 -2.278786,-0.44389 -0.217288,0.069 -0.536252,0.51928 -1.042357,1.4716 -0.581254,1.09373 -0.825815,1.76212 -1.120278,3.06175 -0.133038,0.58717 -0.341477,1.37638 -0.463198,1.7538 -0.305456,0.94714 -0.270688,1.12471 0.278174,1.42071 0.243406,0.13127 0.683783,0.28075 0.978615,0.33218 0.687196,0.11988 1.632489,0.58984 2.331469,1.1591 0.546375,0.44498 1.236259,0.79142 1.594492,0.8007 0.102938,0.003 0.655166,-0.2176 1.227173,-0.4895 z m 5.211514,-4.95475 c -0.188015,-0.12747 -0.527088,-0.58793 -0.933548,-1.26775 -0.932117,-1.55902 -1.983245,-2.55641 -3.435503,-3.2599 -0.596423,-0.28891 -1.781436,-0.74303 -2.167832,-0.83076 -0.565636,-0.12842 -1.071837,-0.4117 -1.280004,-0.71629 -0.182354,-0.26683 -0.205708,-0.38308 -0.164976,-0.82124 0.05391,-0.57994 0.482377,-1.57227 1.012689,-2.3454 0.188829,-0.27529 0.646541,-0.95614 1.017138,-1.513 0.857206,-1.28805 1.551369,-1.93668 2.354953,-2.20048 0.71727,-0.23546 0.886009,-0.23603 1.577982,-0.005 2.058854,0.68654 2.788432,1.02052 3.991004,1.827 1.751987,1.17493 2.766944,2.20307 3.313255,3.35628 0.790746,1.66918 0.690692,2.46944 -0.491788,3.93346 -0.314224,0.38904 -0.770176,0.98173 -1.013226,1.3171 -0.274181,0.37832 -0.8729,0.9787 -1.577425,1.58179 -1.437915,1.2309 -1.647612,1.32081 -2.202719,0.94447 z m 1.320264,-0.63328 c 0.284014,-0.2511 0.814211,-0.69963 1.178215,-0.99674 0.427786,-0.34917 0.832347,-0.78962 1.144034,-1.24551 0.265214,-0.38792 0.669015,-0.9255 0.897335,-1.19462 0.673942,-0.79437 0.809834,-1.03683 0.860468,-1.53526 0.10056,-0.98989 -0.405634,-2.3972 -1.166742,-3.24373 -0.734599,-0.81705 -2.955944,-2.44825 -3.929114,-2.88527 -0.288655,-0.12963 -0.825083,-0.34259 -1.192064,-0.47326 -0.366981,-0.13067 -0.864296,-0.32487 -1.105146,-0.43156 -0.611473,-0.27086 -1.127656,-0.24296 -1.786218,0.0966 -0.776097,0.40011 -1.264508,0.91482 -1.953258,2.05844 -0.188695,0.31331 -0.572011,0.88927 -0.851814,1.2799 -0.924786,1.2911 -1.320248,2.65472 -0.893615,3.08136 0.09421,0.0942 0.404475,0.23817 0.689479,0.31991 0.285003,0.0817 0.719133,0.22485 0.964733,0.31802 0.245599,0.0932 0.477114,0.16939 0.514477,0.16939 0.181921,0 2.112921,1.03491 2.463653,1.32039 0.981483,0.79886 1.683777,1.61763 2.110587,2.46062 0.488998,0.96582 1.007206,1.49687 1.368476,1.4024 0.09357,-0.0245 0.4025,-0.24994 0.686514,-0.50103 z m 5.642013,-7.61636 c -0.769107,-0.18242 -1.263465,-0.7945 -1.336561,-1.65483 -0.06298,-0.74128 0.258859,-1.29242 1.34388,-2.30134 2.388155,-2.22065 4.575809,-3.66281 6.822029,-4.49726 0.415912,-0.15451 0.936357,-0.35395 1.156545,-0.4432 1.789435,-0.72538 2.692031,-0.88721 5.317723,-0.95343 1.804688,-0.0455 2.147329,-0.0321 2.668951,0.10478 1.186996,0.31138 2.349051,1.16165 2.766687,2.02437 0.213774,0.4416 0.252204,1.1921 0.08594,1.67839 -0.285979,0.83644 -1.337071,1.97716 -2.190295,2.37707 l -0.508709,0.23843 -2.224125,-8.9e-4 c -1.223269,-4.4e-4 -2.827827,-0.0364 -3.565684,-0.08 -2.097684,-0.1237 -3.167331,0.11353 -4.885994,1.08362 -0.939504,0.5303 -1.412522,0.85466 -1.989054,1.36395 -1.042334,0.92077 -2.354652,1.32275 -3.461336,1.06026 z M 35.355,113.83365 c 0.512822,-0.12877 0.988242,-0.39064 1.410543,-0.77695 0.480315,-0.43937 1.510681,-1.12411 2.459936,-1.63478 1.757353,-0.94539 3.149613,-1.21785 5.266059,-1.03055 0.651148,0.0576 2.12471,0.10919 3.274583,0.11458 l 2.090678,0.01 0.451629,-0.23833 c 0.893971,-0.47176 1.99491,-1.97487 1.99491,-2.72364 0,-0.58728 -0.197197,-1.01218 -0.698912,-1.50594 -0.510056,-0.50197 -1.44482,-1.01296 -2.147969,-1.17419 -0.507003,-0.11625 -2.573053,-0.1197 -3.938292,-0.007 -1.38031,0.11437 -1.940997,0.27051 -4.869246,1.35593 -1.374624,0.50954 -3.440865,1.70121 -4.715146,2.71937 -0.797531,0.63724 -2.746799,2.40775 -2.885925,2.62128 -0.255982,0.39287 -0.359407,0.99462 -0.239651,1.39433 0.267349,0.89234 1.201443,1.2135 2.546803,0.87566 z m -4.859603,-2.47011 c -0.607717,-0.10883 -1.16357,-0.38253 -1.437111,-0.70762 -0.214982,-0.25549 -0.241715,-0.35956 -0.241715,-0.94095 0,-0.51715 0.0548,-0.78981 0.262343,-1.30541 0.257069,-0.63861 0.59345,-1.32133 0.956701,-1.94171 1.815783,-3.1011 2.335456,-4.13038 2.897184,-5.73824 0.987878,-2.827661 1.449204,-4.868978 1.548133,-6.850308 0.03038,-0.608486 0.104554,-1.168961 0.172481,-1.303332 0.06555,-0.129664 0.310383,-0.347077 0.54408,-0.483141 0.387221,-0.22545 0.520844,-0.2507 1.506762,-0.284726 0.980654,-0.03384 1.159588,-0.01456 1.912748,0.206101 1.666665,0.488307 2.223784,0.900866 2.758905,2.043028 0.584656,1.247889 0.345279,2.585354 -0.960457,5.366323 -0.214108,0.456008 -0.389287,0.850315 -0.389287,0.876225 0,0.11811 -1.066211,1.84173 -1.571174,2.53994 -0.308527,0.42659 -1.163098,1.50752 -1.899047,2.40205 -1.208223,1.46858 -2.068326,2.66753 -3.209042,4.4733 -0.461195,0.73008 -1.000073,1.34304 -1.331304,1.51433 -0.315192,0.16299 -1.014542,0.2247 -1.5202,0.13414 z m 1.782937,-0.85918 c 0.224519,-0.24527 0.666267,-0.86349 0.981663,-1.37382 0.829438,-1.34208 1.856743,-2.7504 3.207778,-4.39751 0.984448,-1.20018 1.81037,-2.28254 2.251159,-2.95009 0.808714,-1.22476 1.680997,-3.100054 2.328335,-5.005616 0.45505,-1.339526 0.26039,-2.513828 -0.565174,-3.409459 -0.591032,-0.641195 -1.985665,-1.134896 -3.401543,-1.204151 -1.026378,-0.0502 -1.640043,0.112571 -1.989321,0.527664 -0.206882,0.245865 -0.225006,0.336877 -0.224626,1.128026 2.67e-4,0.473321 -0.06287,1.200874 -0.14022,1.616786 -0.372194,2.00133 -0.398067,2.113961 -0.88901,3.869978 -0.0684,0.244654 -0.24809,0.785112 -0.399311,1.201032 -0.15122,0.41591 -0.346844,0.95637 -0.434719,1.20102 -0.317905,0.88509 -0.972742,2.16569 -1.887926,3.69205 -1.258498,2.09895 -1.768895,3.17278 -1.882464,3.96055 -0.07186,0.49845 -0.06461,0.67696 0.03594,0.88516 0.245431,0.50821 0.961602,0.7639 2.030826,0.72506 0.561706,-0.0204 0.576621,-0.0275 0.978615,-0.46668 z m -7.084921,-1.5745 c -0.3995,-0.14539 -1.00915,-0.74657 -1.247677,-1.23035 -0.253037,-0.5132 -0.261146,-1.19455 -0.02589,-2.17577 0.09517,-0.39693 0.215893,-1.15758 0.268277,-1.69033 0.05238,-0.53275 0.159408,-1.44905 0.237833,-2.03622 0.255598,-1.9137 0.04758,-3.851005 -0.544501,-5.071008 -0.384559,-0.792397 -1.331024,-1.856518 -2.034792,-2.287739 -0.742288,-0.454824 -0.827207,-0.640065 -0.638288,-1.392355 0.257923,-1.027071 0.712356,-1.539185 1.876273,-2.114423 l 0.696174,-0.344069 h 1.118548 c 1.092729,0 1.13288,0.007 1.739432,0.304003 0.709136,0.347212 1.774266,1.345667 2.036174,1.908712 0.08812,0.189447 0.239657,0.72991 0.33674,1.201028 0.164083,0.79625 0.173447,1.113474 0.132957,4.504144 -0.02877,2.408997 -0.09024,4.070487 -0.181045,4.893077 -0.07562,0.68503 -0.177828,1.64585 -0.227133,2.13516 -0.123801,1.22859 -0.39138,2.05536 -0.785503,2.42707 -0.350233,0.33031 -0.985691,0.67371 -1.704089,0.92087 -0.548968,0.18888 -0.653777,0.19367 -1.053486,0.0482 z m 1.461171,-0.6379 c 1.499803,-0.69295 1.506472,-0.70997 1.900296,-4.84892 0.14326,-1.5056 0.185557,-2.67022 0.19871,-5.471347 0.01748,-3.723067 -0.0052,-4.008046 -0.391042,-4.912667 -0.247394,-0.580028 -1.218055,-1.49286 -1.971272,-1.85383 -0.59233,-0.283867 -0.701827,-0.306222 -1.499855,-0.306222 -0.844227,0 -0.876104,0.0077 -1.648362,0.400187 -1.141291,0.579985 -1.390898,0.829787 -1.58896,1.590197 -0.210413,0.807832 -0.187407,0.914087 0.245441,1.133556 0.782915,0.396966 1.890711,1.5944 2.32846,2.516868 0.57144,1.204194 0.790388,3.076697 0.583615,4.991248 -0.06337,0.58676 -0.113225,1.14691 -0.110787,1.24477 0.0063,0.25155 -0.309922,2.53088 -0.468965,3.38067 -0.211614,1.13069 0.01885,1.71436 0.9178,2.32441 0.397271,0.2696 0.5555,0.24974 1.504921,-0.18892 z"
         id="path193" /><path
         style="fill:#315a23;stroke-width:0.088965"
         d="m 12.995766,134.12301 c -0.225677,-0.11171 -0.483741,-0.33944 -0.622755,-0.54955 -0.232014,-0.35068 -0.237326,-0.39013 -0.234885,-1.74417 0.0021,-1.18488 0.03259,-1.48837 0.210429,-2.09709 0.632956,-2.16651 0.985966,-2.84679 1.675047,-3.22796 l 0.367259,-0.20314 0.651684,0.17351 c 1.320832,0.35167 2.055826,0.67905 3.174447,1.41395 0.803966,0.52818 0.993987,0.80089 0.988203,1.4182 -0.0055,0.58522 -0.129559,0.71824 -1.6427,1.76101 -0.839016,0.5782 -1.423052,1.11076 -2.665729,2.43076 -0.813473,0.86409 -1.176201,0.98324 -1.901,0.62448 z m 1.306157,-0.34346 c 0.203065,-0.1471 0.369209,-0.2993 0.369209,-0.33823 0,-0.22252 1.781388,-1.85608 2.872612,-2.63423 1.482571,-1.05723 1.687434,-1.36273 1.350602,-2.01409 -0.176056,-0.34046 -1.676829,-1.33034 -2.494118,-1.64508 -0.881036,-0.33929 -1.651226,-0.57251 -1.893293,-0.57329 -0.41598,-0.001 -0.979195,0.50545 -1.261981,1.1356 -0.273739,0.60998 -0.780222,2.49193 -0.88778,3.29873 -0.144741,1.08572 0.0089,2.27534 0.338988,2.62454 0.473381,0.50081 1.044347,0.55274 1.605761,0.14605 z m 5.335805,-5.73694 c -0.179752,-0.0661 -0.640146,-0.35829 -1.023098,-0.64933 -0.850178,-0.64613 -1.333086,-0.89721 -2.030475,-1.0557 -0.940142,-0.21367 -1.518285,-0.46803 -1.737388,-0.76438 -0.227052,-0.30711 -0.216696,-0.40907 0.173949,-1.71269 0.102639,-0.34251 0.267047,-1.00308 0.365351,-1.46792 0.222247,-1.05092 0.444719,-1.67372 0.991208,-2.77484 0.499389,-1.00622 0.908573,-1.63813 1.141448,-1.76276 0.391009,-0.20926 1.70671,-0.0114 2.605421,0.39181 0.907524,0.40717 3.296339,2.12077 4.536635,3.25433 0.851489,0.77821 1.308911,1.56184 1.308911,2.24235 0,0.37087 -0.260729,1.11917 -0.48103,1.38057 -0.115361,0.13688 -0.534493,0.42169 -0.931403,0.63291 -0.397469,0.21152 -1.00496,0.64403 -1.352307,0.96279 -0.462544,0.42447 -0.874726,0.69561 -1.54629,1.01716 -0.988925,0.4735 -1.396784,0.53519 -2.020932,0.3057 z m 1.962673,-0.54859 c 0.72337,-0.35245 1.153126,-0.62558 1.433443,-0.91101 0.476619,-0.48531 0.80823,-0.72084 1.473667,-1.04667 0.630918,-0.30893 0.975257,-0.70295 1.155175,-1.32184 0.241062,-0.82923 0.02168,-1.37729 -0.909471,-2.27202 -0.893639,-0.85869 -2.588993,-2.18906 -4.032462,-3.16434 -0.683269,-0.46166 -2.78525,-0.98838 -3.069799,-0.76925 -0.337011,0.25953 -1.296632,1.98258 -1.623891,2.91578 -0.102955,0.29358 -0.327791,1.1343 -0.499636,1.86826 -0.171844,0.73396 -0.374759,1.48332 -0.450922,1.66524 -0.07616,0.18192 -0.138478,0.4716 -0.138478,0.64373 0,0.26347 0.05312,0.34813 0.335874,0.53525 0.18473,0.12225 0.615099,0.28686 0.956374,0.36581 1.084157,0.25079 1.795212,0.60779 2.68805,1.34959 0.423859,0.35216 1.037532,0.62462 1.436566,0.63781 0.116825,0.004 0.677305,-0.21949 1.24551,-0.49634 z m 5.387523,-4.91984 c -0.242986,-0.0984 -0.706225,-0.63404 -0.9333,-1.07914 -1.14841,-2.25107 -2.897851,-3.53931 -6.087463,-4.48265 -0.341121,-0.10089 -0.635568,-0.26149 -0.822927,-0.44885 -0.389393,-0.38939 -0.394518,-0.86772 -0.01936,-1.80712 0.332782,-0.83329 2.161568,-3.60295 2.817524,-4.26708 0.952614,-0.96449 1.934363,-1.16292 3.271088,-0.66115 0.391446,0.14693 0.951926,0.35789 1.245511,0.46878 1.619527,0.61174 3.76828,2.13166 4.849604,3.43037 0.651602,0.7826 1.155535,2.03557 1.155535,2.8731 0,0.66493 -0.269278,1.20796 -1.130747,2.28028 -0.352792,0.43914 -0.833203,1.0426 -1.067581,1.34102 -0.442255,0.56311 -2.317492,2.21264 -2.678299,2.35594 -0.243398,0.0967 -0.353829,0.096 -0.599586,-0.004 z m 0.52004,-0.19543 c 0.233675,-0.12506 2.16798,-1.75153 2.431693,-2.04471 0.103926,-0.11553 0.38145,-0.4903 0.616724,-0.83281 0.235272,-0.34252 0.621296,-0.84166 0.857831,-1.10921 0.684058,-0.77374 0.818262,-1.12754 0.755556,-1.99184 -0.10821,-1.49154 -0.685092,-2.41612 -2.374582,-3.8058 -1.030515,-0.84764 -3.114626,-2.1231 -3.469164,-2.1231 -0.04608,0 -0.544566,-0.18016 -1.10774,-0.40035 -0.563172,-0.22018 -1.154949,-0.40031 -1.315058,-0.40027 -0.412468,9e-5 -1.285622,0.44321 -1.774897,0.90073 -0.228915,0.21406 -0.641603,0.7495 -0.917085,1.18988 -0.275481,0.44038 -0.743316,1.14435 -1.039632,1.56439 -0.714815,1.01327 -1.052227,1.81053 -1.052227,2.48626 0,0.46921 0.02434,0.53626 0.254038,0.69982 0.13972,0.0995 0.449986,0.22724 0.689479,0.2839 0.587233,0.1389 1.389295,0.45781 2.608034,1.03697 0.949103,0.45102 1.078697,0.54535 1.966865,1.43159 0.762319,0.76066 1.035821,1.10621 1.379604,1.74303 0.405805,0.75171 0.995753,1.47432 1.203646,1.47432 0.05215,0 0.181259,-0.0463 0.286915,-0.1028 z m 6.424096,-8.1257 c -0.04893,-0.0163 -0.195974,-0.0532 -0.326763,-0.0819 -0.34547,-0.0759 -0.786098,-0.48025 -0.973936,-0.89377 -0.35941,-0.79124 -0.128638,-1.59821 0.695735,-2.43285 0.679427,-0.68789 2.644375,-2.34459 3.318397,-2.79783 0.122327,-0.0823 0.38255,-0.2622 0.578273,-0.39988 0.823397,-0.57919 2.200808,-1.28538 3.336188,-1.71044 0.415912,-0.15571 0.939531,-0.35822 1.1636,-0.45002 1.71084,-0.70094 2.734435,-0.88382 5.310668,-0.94879 2.386225,-0.0602 2.838092,0.0106 3.857887,0.60407 0.645263,0.37553 1.361949,1.10362 1.56791,1.59287 0.216169,0.5135 0.107891,1.38346 -0.25061,2.01352 -0.408103,0.71725 -1.208644,1.49864 -1.837012,1.79306 l -0.515598,0.24159 h -2.179643 c -1.198804,0 -2.803525,-0.036 -3.566049,-0.0799 -2.122855,-0.12234 -3.080405,0.079 -4.842881,1.01849 -0.870497,0.464 -1.327343,0.7687 -2.133425,1.42295 -0.838506,0.68056 -1.322315,0.94257 -1.951329,1.05675 -0.505793,0.0918 -1.062834,0.11501 -1.251412,0.0521 z m 1.42294,-0.4194 c 0.512822,-0.12877 0.988242,-0.39064 1.410543,-0.77695 0.480315,-0.43937 1.510681,-1.12411 2.459936,-1.63478 1.757353,-0.94539 3.149613,-1.21785 5.266059,-1.03055 0.651148,0.0576 2.12471,0.10919 3.274583,0.11458 l 2.090678,0.01 0.451629,-0.23833 c 0.893971,-0.47176 1.99491,-1.97487 1.99491,-2.72364 0,-0.58728 -0.197197,-1.01218 -0.698912,-1.50594 -0.510056,-0.50197 -1.44482,-1.01296 -2.147969,-1.17419 -0.507003,-0.11625 -2.573053,-0.1197 -3.938292,-0.007 -1.38031,0.11437 -1.940997,0.27051 -4.869246,1.35593 -1.374624,0.50954 -3.440865,1.70121 -4.715146,2.71937 -0.797531,0.63724 -2.746799,2.40775 -2.885925,2.62128 -0.255982,0.39287 -0.359407,0.99462 -0.239651,1.39433 0.267349,0.89234 1.201443,1.2135 2.546803,0.87566 z m -4.867154,-2.56015 c -0.531662,-0.0949 -1.196409,-0.42459 -1.414175,-0.70143 -0.262021,-0.33311 -0.229708,-1.25871 0.07244,-2.07517 0.240435,-0.6497 0.977775,-2.03726 1.929172,-3.63042 1.016782,-1.70264 1.628647,-3.09271 2.349577,-5.3379 0.686924,-2.139283 1.062057,-3.992533 1.165242,-5.756583 0.0727,-1.242858 0.121818,-1.339661 0.854359,-1.683736 0.38263,-0.179721 0.58274,-0.209055 1.431197,-0.209803 0.829384,-7.29e-4 1.119652,0.03935 1.823783,0.251808 0.460576,0.138972 1.043953,0.357991 1.296393,0.486709 1.004578,0.51223 1.737515,1.949367 1.598295,3.13392 -0.108137,0.920078 -1.257833,3.924207 -1.896189,4.954705 -0.113063,0.18252 -0.20557,0.35466 -0.20557,0.38254 0,0.08 -1.103613,1.72409 -1.528363,2.2769 -0.211412,0.27514 -0.724676,0.90992 -1.140588,1.41061 -1.536094,1.84922 -2.315146,2.91571 -3.380699,4.62805 -0.551826,0.88678 -0.981208,1.42267 -1.315872,1.64229 -0.379664,0.24915 -1.019789,0.338 -1.639006,0.22751 z m 1.790488,-0.76914 c 0.224519,-0.24527 0.666267,-0.86349 0.981663,-1.37382 0.829438,-1.34208 1.856743,-2.7504 3.207778,-4.39751 0.984448,-1.20018 1.81037,-2.28254 2.251159,-2.95009 0.808714,-1.22476 1.680997,-3.100054 2.328335,-5.005616 0.45505,-1.339526 0.26039,-2.513828 -0.565174,-3.409459 -0.591032,-0.641195 -1.985665,-1.134896 -3.401543,-1.204151 -1.026378,-0.0502 -1.640043,0.112571 -1.989321,0.527664 -0.206882,0.245865 -0.225006,0.336877 -0.224626,1.128026 2.67e-4,0.473321 -0.06287,1.200874 -0.14022,1.616786 -0.372194,2.00133 -0.398067,2.113961 -0.88901,3.869978 -0.0684,0.244654 -0.24809,0.785112 -0.399311,1.201032 -0.15122,0.41591 -0.346844,0.95637 -0.434719,1.20102 -0.317905,0.88509 -0.972742,2.16569 -1.887926,3.69205 -1.258498,2.09895 -1.768895,3.17278 -1.882464,3.96055 -0.07186,0.49845 -0.06461,0.67696 0.03594,0.88516 0.245431,0.50821 0.961602,0.7639 2.030826,0.72506 0.561706,-0.0204 0.576621,-0.0275 0.978615,-0.46668 z m -7.09157,-1.65769 c -0.32887,-0.10533 -0.985573,-0.78786 -1.20699,-1.25446 -0.194298,-0.40945 -0.183452,-1.18221 0.02903,-2.06847 0.09517,-0.39693 0.216952,-1.15758 0.270631,-1.69033 0.05368,-0.53275 0.155366,-1.40902 0.22597,-1.94726 0.271352,-2.068613 0.06023,-4.034439 -0.561925,-5.232295 -0.430271,-0.828411 -1.37485,-1.900097 -2.018278,-2.289868 -0.724505,-0.438884 -0.806629,-0.582992 -0.667879,-1.171976 0.257542,-1.093245 0.693372,-1.605412 1.860223,-2.186045 0.625119,-0.311063 0.717102,-0.331047 1.651996,-0.358906 0.89,-0.02652 1.045283,-0.007 1.537063,0.192783 0.680517,0.276519 1.537536,0.927511 1.936016,1.470599 0.341599,0.465562 0.60052,1.18599 0.755691,2.10265 0.148577,0.877701 0.06028,7.309908 -0.123345,8.985468 -0.07507,0.68503 -0.180551,1.65674 -0.234394,2.15935 -0.140114,1.30794 -0.36459,1.97155 -0.79995,2.36487 -0.415844,0.37569 -1.017587,0.69413 -1.686912,0.89272 -0.542779,0.16105 -0.559729,0.16159 -0.96695,0.0312 z m 1.46782,-0.55471 c 1.499803,-0.69295 1.506472,-0.70997 1.900296,-4.84892 0.14326,-1.5056 0.185557,-2.67022 0.19871,-5.471347 0.01748,-3.723067 -0.0052,-4.008046 -0.391042,-4.912667 -0.247394,-0.580028 -1.218055,-1.49286 -1.971272,-1.85383 -0.59233,-0.283867 -0.701827,-0.306222 -1.499855,-0.306222 -0.844227,0 -0.876104,0.0077 -1.648362,0.400187 -1.141291,0.579985 -1.390898,0.829787 -1.58896,1.590197 -0.210413,0.807832 -0.187407,0.914087 0.245441,1.133556 0.782915,0.396966 1.890711,1.5944 2.32846,2.516868 0.57144,1.204194 0.790388,3.076697 0.583615,4.991248 -0.06337,0.58676 -0.113225,1.14691 -0.110787,1.24477 0.0063,0.25155 -0.309922,2.53088 -0.468965,3.38067 -0.211614,1.13069 0.01885,1.71436 0.9178,2.32441 0.397271,0.2696 0.5555,0.24974 1.504921,-0.18892 z"
         id="path191" /><path
         style="fill:#33362c;stroke-width:0.088965"
         d="m 12.995766,134.12301 c -0.225677,-0.11171 -0.483741,-0.33944 -0.622755,-0.54955 -0.232014,-0.35068 -0.237326,-0.39013 -0.234885,-1.74417 0.0021,-1.18488 0.03259,-1.48837 0.210429,-2.09709 0.632956,-2.16651 0.985966,-2.84679 1.675047,-3.22796 l 0.367259,-0.20314 0.651684,0.17351 c 1.320832,0.35167 2.055826,0.67905 3.174447,1.41395 0.803966,0.52818 0.993987,0.80089 0.988203,1.4182 -0.0055,0.58522 -0.129559,0.71824 -1.6427,1.76101 -0.839016,0.5782 -1.423052,1.11076 -2.665729,2.43076 -0.813473,0.86409 -1.176201,0.98324 -1.901,0.62448 z m 1.306157,-0.34346 c 0.203065,-0.1471 0.369209,-0.2993 0.369209,-0.33823 0,-0.22252 1.781388,-1.85608 2.872612,-2.63423 1.482571,-1.05723 1.687434,-1.36273 1.350602,-2.01409 -0.176056,-0.34046 -1.676829,-1.33034 -2.494118,-1.64508 -0.881036,-0.33929 -1.651226,-0.57251 -1.893293,-0.57329 -0.41598,-0.001 -0.979195,0.50545 -1.261981,1.1356 -0.273739,0.60998 -0.780222,2.49193 -0.88778,3.29873 -0.144741,1.08572 0.0089,2.27534 0.338988,2.62454 0.473381,0.50081 1.044347,0.55274 1.605761,0.14605 z m 5.335805,-5.73694 c -0.179752,-0.0661 -0.640146,-0.35829 -1.023098,-0.64933 -0.850178,-0.64613 -1.333086,-0.89721 -2.030475,-1.0557 -0.940142,-0.21367 -1.518285,-0.46803 -1.737388,-0.76438 -0.227052,-0.30711 -0.216696,-0.40907 0.173949,-1.71269 0.102639,-0.34251 0.267047,-1.00308 0.365351,-1.46792 0.222247,-1.05092 0.444719,-1.67372 0.991208,-2.77484 0.499389,-1.00622 0.908573,-1.63813 1.141448,-1.76276 0.391009,-0.20926 1.70671,-0.0114 2.605421,0.39181 0.907524,0.40717 3.296339,2.12077 4.536635,3.25433 0.851489,0.77821 1.308911,1.56184 1.308911,2.24235 0,0.37087 -0.260729,1.11917 -0.48103,1.38057 -0.115361,0.13688 -0.534493,0.42169 -0.931403,0.63291 -0.397469,0.21152 -1.00496,0.64403 -1.352307,0.96279 -0.462544,0.42447 -0.874726,0.69561 -1.54629,1.01716 -0.988925,0.4735 -1.396784,0.53519 -2.020932,0.3057 z m 1.962673,-0.54859 c 0.72337,-0.35245 1.153126,-0.62558 1.433443,-0.91101 0.476619,-0.48531 0.80823,-0.72084 1.473667,-1.04667 0.630918,-0.30893 0.975257,-0.70295 1.155175,-1.32184 0.241062,-0.82923 0.02168,-1.37729 -0.909471,-2.27202 -0.893639,-0.85869 -2.588993,-2.18906 -4.032462,-3.16434 -0.683269,-0.46166 -2.78525,-0.98838 -3.069799,-0.76925 -0.337011,0.25953 -1.296632,1.98258 -1.623891,2.91578 -0.102955,0.29358 -0.327791,1.1343 -0.499636,1.86826 -0.171844,0.73396 -0.374759,1.48332 -0.450922,1.66524 -0.07616,0.18192 -0.138478,0.4716 -0.138478,0.64373 0,0.26347 0.05312,0.34813 0.335874,0.53525 0.18473,0.12225 0.615099,0.28686 0.956374,0.36581 1.084157,0.25079 1.795212,0.60779 2.68805,1.34959 0.423859,0.35216 1.037532,0.62462 1.436566,0.63781 0.116825,0.004 0.677305,-0.21949 1.24551,-0.49634 z m 5.387523,-4.91984 c -0.242986,-0.0984 -0.706225,-0.63404 -0.9333,-1.07914 -1.14841,-2.25107 -2.897851,-3.53931 -6.087463,-4.48265 -0.341121,-0.10089 -0.635568,-0.26149 -0.822927,-0.44885 -0.389393,-0.38939 -0.394518,-0.86772 -0.01936,-1.80712 0.332782,-0.83329 2.161568,-3.60295 2.817524,-4.26708 0.952614,-0.96449 1.934363,-1.16292 3.271088,-0.66115 0.391446,0.14693 0.951926,0.35789 1.245511,0.46878 1.619527,0.61174 3.76828,2.13166 4.849604,3.43037 0.651602,0.7826 1.155535,2.03557 1.155535,2.8731 0,0.66493 -0.269278,1.20796 -1.130747,2.28028 -0.352792,0.43914 -0.833203,1.0426 -1.067581,1.34102 -0.442255,0.56311 -2.317492,2.21264 -2.678299,2.35594 -0.243398,0.0967 -0.353829,0.096 -0.599586,-0.004 z m 0.52004,-0.19543 c 0.233675,-0.12506 2.16798,-1.75153 2.431693,-2.04471 0.103926,-0.11553 0.38145,-0.4903 0.616724,-0.83281 0.235272,-0.34252 0.621296,-0.84166 0.857831,-1.10921 0.684058,-0.77374 0.818262,-1.12754 0.755556,-1.99184 -0.10821,-1.49154 -0.685092,-2.41612 -2.374582,-3.8058 -1.030515,-0.84764 -3.114626,-2.1231 -3.469164,-2.1231 -0.04608,0 -0.544566,-0.18016 -1.10774,-0.40035 -0.563172,-0.22018 -1.154949,-0.40031 -1.315058,-0.40027 -0.412468,9e-5 -1.285622,0.44321 -1.774897,0.90073 -0.228915,0.21406 -0.641603,0.7495 -0.917085,1.18988 -0.275481,0.44038 -0.743316,1.14435 -1.039632,1.56439 -0.714815,1.01327 -1.052227,1.81053 -1.052227,2.48626 0,0.46921 0.02434,0.53626 0.254038,0.69982 0.13972,0.0995 0.449986,0.22724 0.689479,0.2839 0.587233,0.1389 1.389295,0.45781 2.608034,1.03697 0.949103,0.45102 1.078697,0.54535 1.966865,1.43159 0.762319,0.76066 1.035821,1.10621 1.379604,1.74303 0.405805,0.75171 0.995753,1.47432 1.203646,1.47432 0.05215,0 0.181259,-0.0463 0.286915,-0.1028 z m 6.424096,-8.1257 c -0.04893,-0.0163 -0.195974,-0.0532 -0.326763,-0.0819 -0.34547,-0.0759 -0.786098,-0.48025 -0.973936,-0.89377 -0.35941,-0.79124 -0.128638,-1.59821 0.695735,-2.43285 0.679427,-0.68789 2.644375,-2.34459 3.318397,-2.79783 0.122327,-0.0823 0.38255,-0.2622 0.578273,-0.39988 0.823397,-0.57919 2.200808,-1.28538 3.336188,-1.71044 0.415912,-0.15571 0.939531,-0.35822 1.1636,-0.45002 1.71084,-0.70094 2.734435,-0.88382 5.310668,-0.94879 2.386225,-0.0602 2.838092,0.0106 3.857887,0.60407 0.645263,0.37553 1.361949,1.10362 1.56791,1.59287 0.216169,0.5135 0.107891,1.38346 -0.25061,2.01352 -0.408103,0.71725 -1.208644,1.49864 -1.837012,1.79306 l -0.515598,0.24159 h -2.179643 c -1.198804,0 -2.803525,-0.036 -3.566049,-0.0799 -2.122855,-0.12234 -3.080405,0.079 -4.842881,1.01849 -0.870497,0.464 -1.327343,0.7687 -2.133425,1.42295 -0.838506,0.68056 -1.322315,0.94257 -1.951329,1.05675 -0.505793,0.0918 -1.062834,0.11501 -1.251412,0.0521 z m 1.403332,-0.2633 c 0.623163,-0.14891 0.921085,-0.31913 1.769091,-1.01081 1.418206,-1.15677 3.417969,-2.14802 4.818968,-2.38868 0.844393,-0.14504 1.358985,-0.13815 4.374747,0.0586 1.970408,0.12854 3.491257,0.061 3.954954,-0.17552 1.086556,-0.55432 2.228116,-2.10589 2.228116,-3.02838 0,-1.17298 -1.607368,-2.51996 -3.28683,-2.75438 -0.351755,-0.0491 -1.395083,-0.0494 -2.629345,-6.2e-4 -2.233668,0.0881 -2.559243,0.14981 -4.448251,0.84238 -0.489308,0.1794 -1.16989,0.42821 -1.512405,0.55292 -1.650875,0.60107 -3.909813,1.97449 -5.391158,3.27779 -0.264294,0.23253 -0.740216,0.64708 -1.057606,0.92122 -1.063613,0.91868 -1.411578,1.37151 -1.551109,2.01855 -0.06666,0.3091 0.147007,1.04888 0.380399,1.31709 0.406041,0.46661 1.334329,0.6127 2.350429,0.36989 z m -4.847546,-2.71625 c -0.531662,-0.0949 -1.196409,-0.42459 -1.414175,-0.70143 -0.262021,-0.33311 -0.229708,-1.25871 0.07244,-2.07517 0.240435,-0.6497 0.977775,-2.03726 1.929172,-3.63042 1.016782,-1.70264 1.628647,-3.09271 2.349577,-5.3379 0.686924,-2.139283 1.062057,-3.992533 1.165242,-5.756583 0.0727,-1.242858 0.121818,-1.339661 0.854359,-1.683736 0.38263,-0.179721 0.58274,-0.209055 1.431197,-0.209803 0.829384,-7.29e-4 1.119652,0.03935 1.823783,0.251808 0.460576,0.138972 1.043953,0.357991 1.296393,0.486709 1.004578,0.51223 1.737515,1.949367 1.598295,3.13392 -0.108137,0.920078 -1.257833,3.924207 -1.896189,4.954705 -0.113063,0.18252 -0.20557,0.35466 -0.20557,0.38254 0,0.08 -1.103613,1.72409 -1.528363,2.2769 -0.211412,0.27514 -0.724676,0.90992 -1.140588,1.41061 -1.536094,1.84922 -2.315146,2.91571 -3.380699,4.62805 -0.551826,0.88678 -0.981208,1.42267 -1.315872,1.64229 -0.379664,0.24915 -1.019789,0.338 -1.639006,0.22751 z m 1.226668,-0.18197 c 0.404359,-0.15374 0.77253,-0.5224 1.261172,-1.26286 0.256886,-0.38928 0.467066,-0.72478 0.467066,-0.74556 0,-0.18038 2.326797,-3.32751 3.380623,-4.57249 1.614012,-1.90678 2.718734,-3.61238 3.428562,-5.293417 1.006743,-2.38421 1.138148,-2.819614 1.14111,-3.781013 0.0023,-0.755573 -0.02397,-0.896607 -0.248022,-1.330407 -0.545199,-1.055564 -1.028568,-1.416623 -2.453336,-1.832548 -0.692567,-0.202178 -1.021864,-0.247193 -1.823783,-0.249312 -0.895701,-0.0024 -1.018743,0.01811 -1.452235,0.241737 -0.595846,0.307375 -0.771947,0.660812 -0.691764,1.388382 0.0721,0.654244 -0.368924,3.312908 -0.797389,4.806958 -0.07718,0.269119 -0.176482,0.629428 -0.220673,0.800685 -0.04419,0.171258 -0.226154,0.711721 -0.40436,1.201025 -0.178205,0.48931 -0.381998,1.04979 -0.452873,1.24551 -0.256269,0.70769 -1.190204,2.51817 -1.950435,3.78102 -1.924362,3.19661 -2.319126,4.68976 -1.391476,5.26308 0.565025,0.34921 1.716292,0.52609 2.207813,0.33921 z m -6.52775,-2.24486 c -0.32887,-0.10533 -0.985573,-0.78786 -1.20699,-1.25446 -0.194298,-0.40945 -0.183452,-1.18221 0.02903,-2.06847 0.09517,-0.39693 0.216952,-1.15758 0.270631,-1.69033 0.05368,-0.53275 0.155366,-1.40902 0.22597,-1.94726 0.271352,-2.068613 0.06023,-4.034439 -0.561925,-5.232295 -0.430271,-0.828411 -1.37485,-1.900097 -2.018278,-2.289868 -0.724505,-0.438884 -0.806629,-0.582992 -0.667879,-1.171976 0.257542,-1.093245 0.693372,-1.605412 1.860223,-2.186045 0.625119,-0.311063 0.717102,-0.331047 1.651996,-0.358906 0.89,-0.02652 1.045283,-0.007 1.537063,0.192783 0.680517,0.276519 1.537536,0.927511 1.936016,1.470599 0.341599,0.465562 0.60052,1.18599 0.755691,2.10265 0.148577,0.877701 0.06028,7.309908 -0.123345,8.985468 -0.07507,0.68503 -0.180551,1.65674 -0.234394,2.15935 -0.140114,1.30794 -0.36459,1.97155 -0.79995,2.36487 -0.415844,0.37569 -1.017587,0.69413 -1.686912,0.89272 -0.542779,0.16105 -0.559729,0.16159 -0.96695,0.0312 z m 0.880205,-0.14294 c 0.583609,-0.20164 1.475786,-0.67367 1.747836,-0.92474 0.349317,-0.32239 0.543341,-1.04444 0.728201,-2.70996 0.294874,-2.65673 0.378585,-4.29703 0.382635,-7.49768 0.0041,-3.277683 -0.045,-3.757421 -0.479624,-4.682048 -0.245577,-0.522443 -1.316379,-1.50601 -1.987019,-1.825142 -0.489217,-0.2328 -0.617605,-0.254017 -1.537505,-0.254081 -1.112314,-7.8e-5 -1.292885,0.05046 -2.257105,0.631717 -0.700845,0.422489 -1.007379,0.827915 -1.200083,1.587247 -0.173683,0.684381 -0.08964,0.926692 0.396963,1.144552 0.437296,0.195783 0.744903,0.462078 1.356936,1.174694 0.66963,0.779678 0.824722,1.020971 1.053458,1.638971 0.452999,1.223914 0.595436,3.03873 0.384494,4.89889 -0.06104,0.53824 -0.152037,1.37896 -0.202223,1.86827 -0.05019,0.48931 -0.151064,1.16989 -0.224173,1.5124 -0.218246,1.02248 -0.259551,1.90904 -0.105999,2.27508 0.190151,0.45329 0.632251,0.92527 1.069347,1.14163 0.206932,0.10243 0.37998,0.18627 0.384553,0.18631 0.0046,4e-5 0.224761,-0.0747 0.489308,-0.16611 z"
         id="path189" /></g></g><g
     inkscape:groupmode="layer"
     id="layer6"
     inkscape:label="Number"><text
       xml:space="preserve"
       style="font-size:37.7594px;fill:#1a1a1a;stroke-width:3.14661"
       x="21.267218"
       y="39.548141"
       id="text762"><tspan
         sodipodi:role="line"
         id="tspan760"
         x="21.267218"
         y="39.548141"
         style="stroke-width:3.14661">7</tspan></text></g></svg>
