<?xml version="1.0" encoding="UTF-8" standalone="no"?>
<!-- Created with Inkscape (http://www.inkscape.org/) -->

<svg
   width="100mm"
   height="100mm"
   viewBox="0 0 100 100"
   version="1.1"
   id="svg4001"
   xml:space="preserve"
   inkscape:version="1.2.2 (732a01da63, 2022-12-09)"
   sodipodi:docname="ERCF_gearcal.svg"
   xmlns:inkscape="http://www.inkscape.org/namespaces/inkscape"
   xmlns:sodipodi="http://sodipodi.sourceforge.net/DTD/sodipodi-0.dtd"
   xmlns="http://www.w3.org/2000/svg"
   xmlns:svg="http://www.w3.org/2000/svg"><sodipodi:namedview
     id="namedview4003"
     pagecolor="#ffffff"
     bordercolor="#000000"
     borderopacity="0.28235294"
     inkscape:showpageshadow="2"
     inkscape:pageopacity="0.0"
     inkscape:pagecheckerboard="true"
     inkscape:deskcolor="#d1d1d1"
     inkscape:document-units="mm"
     showgrid="false"
     inkscape:zoom="1.5862247"
     inkscape:cx="83.216457"
     inkscape:cy="235.77996"
     inkscape:window-width="1665"
     inkscape:window-height="1017"
     inkscape:window-x="1912"
     inkscape:window-y="-8"
     inkscape:window-maximized="1"
     inkscape:current-layer="layer1" /><defs
     id="defs3998"><rect
       x="142.47666"
       y="51.064644"
       width="77.542608"
       height="209.302"
       id="rect5706" /><rect
       x="143.10709"
       y="44.760367"
       width="84.477313"
       height="230.73654"
       id="rect5700" /><symbol
       id="DownArrow"><title
         id="title5768">Down Arrow</title><path
         d="M 36,63 14,41 V 26 L 30,42 V 10 H 42 V 42 L 58,26 v 15 z"
         style="stroke:none"
         id="path5770" /></symbol><symbol
       id="Buffer"><title
         id="title3529">Buffer</title><path
         d="M 25,30 75,50 25,70 V 50 Z"
         id="path3531" /></symbol></defs><g
     inkscape:label="Calque 1"
     inkscape:groupmode="layer"
     id="layer1"><path
       id="path11440"
       style="fill:#f2f2f2;stroke:none;stroke-width:0.443922"
       d="m 26.278422,39.86545 -0.796988,4.927598 a 18.906354,18.906354 0 0 0 -2.890549,0.771745 l -3.136366,-3.717165 -4.414837,2.447201 1.670791,4.637608 a 18.906354,18.906354 0 0 0 -2.227448,2.222232 l -4.6120941,-1.664754 -2.5997385,4.326497 3.8192246,3.226353 a 18.906354,18.906354 0 0 0 -0.759676,2.801661 l -4.8153873,0.862554 -0.088066,5.046666 4.8494073,0.871609 a 18.906354,18.906354 0 0 0 0.782171,2.99398 l -3.7854785,3.193706 2.4469259,4.414836 4.7053736,-1.695207 a 18.906354,18.906354 0 0 0 2.26174,2.268049 l -1.594795,4.418951 4.326771,2.599465 3.09055,-3.658729 a 18.906354,18.906354 0 0 0 3.006598,0.806315 l 0.862556,4.815661 5.04694,0.08807 0.882856,-4.911958 a 18.906354,18.906354 0 0 0 2.997546,-0.810429 l 3.020865,3.580539 4.414563,-2.447201 -1.621955,-4.502629 a 18.906354,18.906354 0 0 0 2.331973,-2.358035 l 4.370392,1.577236 2.599739,-4.32677 -3.679581,-3.108109 a 18.906354,18.906354 0 0 0 0.758852,-2.920179 l 4.70647,-0.843076 0.08807,-5.04694 -4.837613,-0.869418 a 18.906354,18.906354 0 0 0 -0.824147,-3.000837 l 3.697138,-3.119357 -2.446925,-4.414838 -4.686717,1.68835 a 18.906354,18.906354 0 0 0 -2.069421,-2.054606 l 1.676002,-4.643369 -4.32677,-2.599465 -3.243912,3.840074 a 18.906354,18.906354 0 0 0 -2.935543,-0.786286 l -0.971747,-4.927598 z m 2.411259,12.840394 a 11.025016,11.025016 0 0 1 11.049164,10.992922 v 0.0321 A 11.025016,11.025016 0 0 1 28.72178,74.755883 11.025016,11.025016 0 0 1 17.688804,63.746774 11.025016,11.025016 0 0 1 28.689681,52.70584 Z" /><path
       id="path11440-2"
       style="fill:#f2f2f2;stroke:none;stroke-width:0.443922"
       d="m 74.902823,40.087576 -2.045188,4.553418 a 18.906354,18.906354 0 0 0 -2.991799,-0.0027 l -2.067423,-4.402257 -4.897787,1.22117 0.413559,4.912019 a 18.906354,18.906354 0 0 0 -2.726706,1.570005 l -4.02407,-2.801726 -3.630935,3.506212 2.854046,4.104906 a 18.906354,18.906354 0 0 0 -1.458913,2.509576 l -4.874553,-0.413151 -1.391235,4.851912 4.458579,2.097029 a 18.906354,18.906354 0 0 0 -0.01938,3.094403 l -4.483082,2.10513 1.220904,4.897715 4.983794,-0.419603 a 18.906354,18.906354 0 0 0 1.597659,2.776148 l -2.684162,3.855615 3.506548,3.630741 3.932191,-2.734167 a 18.906354,18.906354 0 0 0 2.695461,1.557005 l -0.413219,4.874817 4.852174,1.391315 2.124083,-4.516088 a 18.906354,18.906354 0 0 0 3.10516,-0.007 l 1.991221,4.240394 4.897522,-1.221242 -0.401322,-4.768999 a 18.906354,18.906354 0 0 0 2.862817,-1.674128 l 3.813256,2.654634 3.631006,-3.506478 -2.749765,-3.954547 a 18.906354,18.906354 0 0 0 1.488793,-2.624272 l 4.764304,0.403833 1.391317,-4.852175 -4.447757,-2.09186 a 18.906354,18.906354 0 0 0 -0.01939,-3.111891 l 4.378514,-2.056179 -1.220912,-4.897716 -4.963993,0.417809 a 18.906354,18.906354 0 0 0 -1.467141,-2.520202 l 2.820686,-4.051369 -3.506547,-3.630741 -4.127264,2.869641 a 18.906354,18.906354 0 0 0 -2.63201,-1.519269 l 0.336721,-5.011201 z m -0.994242,13.026948 a 11.025016,11.025016 0 0 1 7.827497,13.478081 l -0.0083,0.03101 a 11.025016,11.025016 0 0 1 -13.495141,7.797922 11.025016,11.025016 0 0 1 -7.80767,-13.489528 11.025016,11.025016 0 0 1 13.483635,-7.817485 z" /><text
       xml:space="preserve"
       style="font-weight:bold;font-size:42.7919px;font-family:sans-serif;-inkscape-font-specification:'sans-serif Bold';fill:#ffff00;stroke:none;stroke-width:1.50109"
       x="3.8284879"
       y="36.944645"
       id="text11819"><tspan
         sodipodi:role="line"
         id="tspan11817"
         style="font-size:42.7919px;stroke-width:1.50109;fill:#ffff00"
         x="3.8284879"
         y="36.944645">CAL.</tspan></text></g></svg>
