<?xml version="1.0" encoding="UTF-8" standalone="no"?>
<!-- Created with Inkscape (http://www.inkscape.org/) -->

<svg
   width="100mm"
   height="100mm"
   viewBox="0 0 100 100"
   version="1.1"
   id="svg4001"
   xml:space="preserve"
   inkscape:version="1.2.2 (732a01da63, 2022-12-09)"
   sodipodi:docname="dessin.svg"
   xmlns:inkscape="http://www.inkscape.org/namespaces/inkscape"
   xmlns:sodipodi="http://sodipodi.sourceforge.net/DTD/sodipodi-0.dtd"
   xmlns="http://www.w3.org/2000/svg"
   xmlns:svg="http://www.w3.org/2000/svg"><sodipodi:namedview
     id="namedview4003"
     pagecolor="#ffffff"
     bordercolor="#000000"
     borderopacity="0.28235294"
     inkscape:showpageshadow="2"
     inkscape:pageopacity="0.0"
     inkscape:pagecheckerboard="true"
     inkscape:deskcolor="#d1d1d1"
     inkscape:document-units="mm"
     showgrid="false"
     inkscape:zoom="0.74564394"
     inkscape:cx="116.67767"
     inkscape:cy="561.9304"
     inkscape:window-width="1665"
     inkscape:window-height="1017"
     inkscape:window-x="1912"
     inkscape:window-y="-8"
     inkscape:window-maximized="1"
     inkscape:current-layer="layer1" /><defs
     id="defs3998" /><g
     inkscape:label="Calque 1"
     inkscape:groupmode="layer"
     id="layer1"><path
       id="path4245"
       style="fill:#ffffff;stroke-width:0.165763"
       d="M 51.126644,16.596157 A 39.126312,39.126312 0 0 0 12.071963,53.721575 h 8.903289 A 30.456277,30.456277 0 0 1 51.349066,25.266342 30.456277,30.456277 0 0 1 81.722878,53.721575 h 8.45845 A 39.126312,39.126312 0 0 0 51.126644,16.596157 Z" /><path
       id="path4411"
       style="fill:#ffffff;stroke-width:0.165763"
       d="m 16.224384,54.833415 a 11.11543,11.11543 0 0 0 -11.1155143,11.11519 11.11543,11.11543 0 0 0 11.1155143,11.11551 11.11543,11.11543 0 0 0 11.11519,-11.11551 11.11543,11.11543 0 0 0 -11.11519,-11.11519 z m 0,4.44614 a 6.6692581,6.6692581 0 0 1 6.669049,6.66905 6.6692581,6.6692581 0 0 1 -6.669049,6.66937 6.6692581,6.6692581 0 0 1 -6.6693733,-6.66937 6.6692581,6.6692581 0 0 1 6.6693733,-6.66905 z" /><path
       id="path4411-2"
       style="fill:#ffffff;stroke-width:0.165763"
       d="m 85.807008,54.833345 a 11.11543,11.11543 0 0 0 -11.115518,11.11519 11.11543,11.11543 0 0 0 11.115518,11.11551 11.11543,11.11543 0 0 0 11.11518,-11.11551 11.11543,11.11543 0 0 0 -11.11518,-11.11519 z m 0,4.44614 a 6.6692581,6.6692581 0 0 1 6.66904,6.66905 6.6692581,6.6692581 0 0 1 -6.66904,6.66937 6.6692581,6.6692581 0 0 1 -6.66938,-6.66937 6.6692581,6.6692581 0 0 1 6.66938,-6.66905 z" /><rect
       style="fill:#ff0000;stroke-width:0.15792"
       id="rect4492"
       width="22.897783"
       height="7.336185"
       x="70.23555"
       y="6.8126445"
       ry="0"
       transform="rotate(45)" /><rect
       style="fill:#ff0000;stroke-width:0.15792"
       id="rect4492-5"
       width="22.897783"
       height="7.336185"
       x="-0.65376323"
       y="-85.50972"
       ry="0"
       transform="rotate(135)" /><circle
       style="fill:#ff0000;stroke-width:0.165763"
       id="path4520"
       cx="31.007771"
       cy="65.837547"
       r="2.1119316" /><circle
       style="fill:#ff0000;stroke-width:0.165763"
       id="path4520-2"
       cx="63.131359"
       cy="66.171013"
       r="2.1119316" /><circle
       style="fill:#ff0000;stroke-width:0.165763"
       id="path4520-9"
       cx="69.356003"
       cy="65.948692"
       r="2.1119316" /><circle
       style="fill:#ff0000;stroke-width:0.165763"
       id="path4520-4"
       cx="37.788185"
       cy="65.504074"
       r="2.1119316" /><rect
       style="fill:none;stroke-width:0.165763"
       id="rect4644"
       width="100.70579"
       height="73.80645"
       x="25.903225"
       y="61.741936" /><rect
       style="fill:none;stroke-width:0.264583"
       id="rect4646"
       width="156.12904"
       height="140.87097"
       x="25.903225"
       y="55.709675" /><rect
       style="fill:none;stroke-width:0.264583"
       id="rect4648"
       width="160.03223"
       height="139.09677"
       x="24.838709"
       y="51.806454" /></g></svg>
