<?xml version="1.0" encoding="UTF-8" standalone="no"?>
<!-- Created with Inkscape (http://www.inkscape.org/) -->

<svg
   width="100mm"
   height="100mm"
   viewBox="0 0 100 100"
   version="1.1"
   id="svg4001"
   xml:space="preserve"
   inkscape:version="1.2.2 (732a01da63, 2022-12-09)"
   sodipodi:docname="ERCF_statreset.svg"
   xmlns:inkscape="http://www.inkscape.org/namespaces/inkscape"
   xmlns:sodipodi="http://sodipodi.sourceforge.net/DTD/sodipodi-0.dtd"
   xmlns="http://www.w3.org/2000/svg"
   xmlns:svg="http://www.w3.org/2000/svg"><sodipodi:namedview
     id="namedview4003"
     pagecolor="#ffffff"
     bordercolor="#000000"
     borderopacity="0.28235294"
     inkscape:showpageshadow="2"
     inkscape:pageopacity="0.0"
     inkscape:pagecheckerboard="true"
     inkscape:deskcolor="#d1d1d1"
     inkscape:document-units="mm"
     showgrid="false"
     inkscape:zoom="0.79311232"
     inkscape:cx="318.99643"
     inkscape:cy="168.95463"
     inkscape:window-width="1649"
     inkscape:window-height="1001"
     inkscape:window-x="2024"
     inkscape:window-y="0"
     inkscape:window-maximized="0"
     inkscape:current-layer="layer1" /><defs
     id="defs3998"><inkscape:path-effect
       effect="powerstroke"
       id="path-effect2128"
       is_visible="true"
       lpeversion="1"
       offset_points="3,0.54405155"
       not_jump="false"
       sort_points="true"
       interpolator_type="CubicBezierJohan"
       interpolator_beta="0.2"
       start_linecap_type="zerowidth"
       linejoin_type="extrp_arc"
       miter_limit="4"
       scale_width="1"
       end_linecap_type="zerowidth" /><inkscape:path-effect
       effect="powerstroke"
       id="path-effect1647"
       is_visible="true"
       lpeversion="1"
       offset_points="3,4.9921383"
       not_jump="false"
       sort_points="true"
       interpolator_type="CubicBezierJohan"
       interpolator_beta="0.2"
       start_linecap_type="zerowidth"
       linejoin_type="extrp_arc"
       miter_limit="4"
       scale_width="1"
       end_linecap_type="zerowidth" /><inkscape:path-effect
       effect="powerstroke"
       id="path-effect1577"
       is_visible="true"
       lpeversion="1"
       offset_points="2,4.9921383"
       not_jump="false"
       sort_points="true"
       interpolator_type="CubicBezierJohan"
       interpolator_beta="0.2"
       start_linecap_type="zerowidth"
       linejoin_type="extrp_arc"
       miter_limit="4"
       scale_width="1"
       end_linecap_type="zerowidth" /><inkscape:path-effect
       effect="bspline"
       id="path-effect1575"
       is_visible="true"
       lpeversion="1"
       weight="33.333333"
       steps="2"
       helper_size="0"
       apply_no_weight="true"
       apply_with_weight="true"
       only_selected="false" /><inkscape:path-effect
       effect="bspline"
       id="path-effect1540"
       is_visible="true"
       lpeversion="1"
       weight="33.333333"
       steps="2"
       helper_size="0"
       apply_no_weight="true"
       apply_with_weight="true"
       only_selected="false" /><rect
       x="142.47665"
       y="51.064644"
       width="77.54261"
       height="209.302"
       id="rect5706" /><rect
       x="143.10709"
       y="44.760368"
       width="84.47731"
       height="230.73654"
       id="rect5700" /><symbol
       id="DownArrow"><title
         id="title5768">Down Arrow</title><path
         d="M 36,63 14,41 V 26 L 30,42 V 10 H 42 V 42 L 58,26 v 15 z"
         style="stroke:none"
         id="path5770" /></symbol><symbol
       id="Buffer"><title
         id="title3529">Buffer</title><path
         d="M 25,30 75,50 25,70 V 50 Z"
         id="path3531" /></symbol><symbol
       id="Merge"><title
         id="title6984">Merge</title><desc
         id="desc6986">Combine two or more sets of items into one set. (ISO)</desc><path
         d="m 35,35 h 80 l -40,70 z"
         style="stroke-width:2"
         id="path6988" /></symbol><symbol
       id="Extract"><title
         id="title7028">Extract</title><desc
         id="desc7030">Removal of one or more specific sets of times from a set. (ISO)</desc><path
         d="m 35,115 40,-70 40,70 z"
         style="stroke-width:2"
         id="path7032" /></symbol><symbol
       id="DrinkingWater"><title
         id="title3165">Drinking Water</title><path
         d="M 22.5,61.5 14.5,11 H 20 l 7,45.5 H 45 L 52,11 h 5.5 l -8,50.5 z"
         style="stroke:none"
         id="path3167" /><path
         d="m 48,20 c -0.5,0.5 -2,1 -3.5,1 -1.5,0 -3,-0.5 -4,-2 -1,1.5 -3,2 -4.5,2 -1.5,0 -3.5,-0.5 -4.3362,-2.1243 C 30.5,20.5 29,21 27.5,21 26,21 24.5,20.5 24,20 l -1,-5.5 c 1,1.5 2.5,2.5 4.5,2.5 2,0 3,-1 4,-2.5 1,1.5 2.7042,2.5 4.5,2.5 1.8104,0 3.5,-1 4.5,-2.5 1,1.5 2,2.5 4,2.5 2,0 3.5,-1 4.5,-2.5 z"
         style="stroke:none"
         id="path3169" /></symbol><inkscape:path-effect
       effect="fill_between_many"
       method="bsplinespiro"
       linkedpaths="#path1573,0,1"
       id="path-effect1579"
       is_visible="true"
       lpeversion="0"
       join="true"
       close="true"
       autoreverse="true" /><inkscape:path-effect
       effect="fill_between_many"
       method="bsplinespiro"
       linkedpaths="#path1645,0,1"
       id="path-effect1649"
       is_visible="true"
       lpeversion="0"
       join="true"
       close="true"
       autoreverse="true" /><inkscape:path-effect
       effect="fill_between_many"
       method="bsplinespiro"
       linkedpaths="#path2126,0,1"
       id="path-effect2130"
       is_visible="true"
       lpeversion="0"
       join="true"
       close="true"
       autoreverse="true" /></defs><g
     inkscape:label="Calque 1"
     inkscape:groupmode="layer"
     id="layer1"><g
       id="g1427"
       transform="matrix(1.1882133,1.2470035,-1.2470035,1.1882133,65.555392,-106.24512)" /><g
       id="g1323"
       transform="matrix(0.95920201,0,0,0.97834662,-0.27526422,-2.2857998)"><path
         style="fill:none;stroke:#00ffff;stroke-width:2.98856;stroke-dasharray:none;stroke-opacity:1"
         d="M 2.2613881,3.0006096 2.1616892,58.632543 H 56.397839 56.098743"
         id="path1813" /><rect
         style="fill:#ececec;fill-opacity:1;stroke:none;stroke-width:2.98856;stroke-dasharray:none;stroke-opacity:1"
         id="rect1923"
         width="3.9879518"
         height="14.157231"
         x="7.5454245"
         y="40.686756"
         ry="1.0778015" /><rect
         style="fill:#ececec;fill-opacity:1;stroke:none;stroke-width:4.00486;stroke-dasharray:none;stroke-opacity:1"
         id="rect1923-2"
         width="3.9879518"
         height="25.423197"
         x="16.219223"
         y="29.121695"
         ry="1.9354883" /><rect
         style="fill:#ececec;fill-opacity:1;stroke:none;stroke-width:3.55562;stroke-dasharray:none;stroke-opacity:1"
         id="rect1923-28"
         width="3.9879518"
         height="20.039461"
         x="26.3885"
         y="34.505436"
         ry="1.5256202" /><rect
         style="fill:#ececec;fill-opacity:1;stroke:none;stroke-width:4.83714;stroke-dasharray:none;stroke-opacity:1"
         id="rect1923-28-1"
         width="3.9879518"
         height="37.087955"
         x="36.059284"
         y="17.556633"
         ry="2.8235362" /><rect
         style="fill:#ececec;fill-opacity:1;stroke:none;stroke-width:2.35266;stroke-dasharray:none;stroke-opacity:1"
         id="rect1923-28-3"
         width="3.9879518"
         height="8.7734957"
         x="46.527657"
         y="45.970791"
         ry="0.66793334" /><path
         style="fill:none;fill-opacity:1;stroke:#ececec;stroke-width:2.98856;stroke-dasharray:none;stroke-opacity:1"
         d="M 7.9442199,35.40272 18.412594,21.644286 27.385487,30.617178 38.352355,9.0822365 48.421934,37.296998 h -0.299096"
         id="path1995" /><g
         id="use2008"
         transform="matrix(0.06334947,0.19118746,-0.19118746,0.06334947,55.053793,25.390804)"
         style="fill:#ececec"><title
           id="title2025">Buffer</title><path
           d="M 25,30 75,50 25,70 V 50 Z"
           id="path2027"
           style="fill:#ececec" /></g></g><g
       id="g1311"
       transform="matrix(1.1902049,0,0,1.2139601,-72.898581,-19.604518)"><path
         id="path562"
         style="fill:none;stroke:#ececec;stroke-width:2.27207;stroke-dasharray:none"
         d="m 119.02873,55.732139 c -1.36726,-0.0026 -2.66349,0.615232 -3.23304,1.648978 -0.0939,0.17046 -0.1635,0.344011 -0.21002,0.518397 l 27.19535,8.894687 c 0.13052,-0.146916 0.24384,-0.306198 0.33776,-0.476658 0.75942,-1.378326 -0.069,-2.958644 -1.85796,-3.543755 l -3.6805,-1.203753 a 5.9312281,2.5653486 15.585884 0 0 0.22205,-0.288572 5.9312281,2.5653486 15.585884 0 0 -4.34797,-4.132749 5.9312281,2.5653486 15.585884 0 0 -6.87943,0.460683 5.9312281,2.5653486 15.585884 0 0 -0.11506,0.323612 l -6.06482,-1.983927 c -0.44722,-0.146277 -0.91062,-0.21606 -1.36638,-0.216943 z m -5.10439,12.921799 4.99605,27.75641 h 4.27439 10.99064 3.35812 l 0.22873,-1.498508 c 0.43445,-0.515748 0.68755,-1.131064 0.68755,-1.794294 v -2.707414 l 3.32201,-21.756194 z" /><rect
         style="fill:none;stroke:#ececec;stroke-width:2;stroke-dasharray:none"
         id="rect1260"
         width="1.9182076"
         height="18.598274"
         x="126.85191"
         y="72.975288"
         ry="0.95910382" /><rect
         style="fill:none;stroke:#ececec;stroke-width:2;stroke-dasharray:none"
         id="rect1260-3"
         width="1.9182076"
         height="18.598274"
         x="141.61086"
         y="56.255302"
         ry="0.95910382"
         transform="rotate(7.0539237)" /><rect
         style="fill:none;stroke:#ececec;stroke-width:2;stroke-dasharray:none"
         id="rect1260-3-9"
         width="1.9182076"
         height="18.598274"
         x="-112.0141"
         y="87.470779"
         ry="0.95910382"
         transform="matrix(-0.99243102,0.12280342,0.12280342,0.99243102,0,0)" /></g><path
       inkscape:original-d="M 0,0"
       inkscape:path-effect="#path-effect2130"
       d="M 69.723338,30.552146 82.196869,29.976444 77.015555,44.368982 Z"
       id="path2132"
       style="fill:#ff00ff"
       class="UnoptimicedTransforms"
       transform="matrix(1.0678646,0,0,1.0891778,-0.34749533,-2.6180643)" /><path
       style="fill:none;stroke:#ff0000;stroke-width:3.10188;stroke-dasharray:none"
       d="m 50.951217,11.847416 c 9.768187,0 19.536219,0 24.625086,4.145609 5.088866,4.145609 5.498707,12.436322 5.908547,20.727028"
       id="path1538"
       inkscape:original-d="m 50.951217,11.847416 c 9.768187,1.66e-4 19.536219,1.66e-4 29.304087,0 0.410017,8.291211 0.819856,16.581924 1.229546,24.872637"
       inkscape:path-effect="#path-effect1540" /><path
       style="fill:#ff0000;fill-rule:nonzero;stroke:none;stroke-width:0;stroke-dasharray:none"
       d="m 172.13829,43.701776 21.68409,-1.000805 -9.00724,25.020101 z"
       id="path2126"
       inkscape:linked-fill="path2132"
       transform="matrix(0.61427722,0,0,0.62653753,-31.633041,3.2778522)"
       inkscape:original-d="m 172.13829,43.701776 21.68409,-1.000805 -9.00724,25.020101 z"
       inkscape:path-effect="#path-effect2128"
       class="UnoptimicedTransforms" /></g></svg>
