<?xml version="1.0" encoding="UTF-8" standalone="no"?>
<!-- Created with Inkscape (http://www.inkscape.org/) -->

<svg
   width="100mm"
   height="100mm"
   viewBox="0 0 100 100"
   version="1.1"
   id="svg4001"
   xml:space="preserve"
   inkscape:version="1.2.2 (732a01da63, 2022-12-09)"
   sodipodi:docname="ERCF_recover.svg"
   xmlns:inkscape="http://www.inkscape.org/namespaces/inkscape"
   xmlns:sodipodi="http://sodipodi.sourceforge.net/DTD/sodipodi-0.dtd"
   xmlns:xlink="http://www.w3.org/1999/xlink"
   xmlns="http://www.w3.org/2000/svg"
   xmlns:svg="http://www.w3.org/2000/svg"><sodipodi:namedview
     id="namedview4003"
     pagecolor="#ffffff"
     bordercolor="#000000"
     borderopacity="0.28235294"
     inkscape:showpageshadow="2"
     inkscape:pageopacity="0.0"
     inkscape:pagecheckerboard="true"
     inkscape:deskcolor="#d1d1d1"
     inkscape:document-units="mm"
     showgrid="false"
     inkscape:zoom="1.5862247"
     inkscape:cx="83.216457"
     inkscape:cy="240.82338"
     inkscape:window-width="1665"
     inkscape:window-height="1017"
     inkscape:window-x="1912"
     inkscape:window-y="-8"
     inkscape:window-maximized="1"
     inkscape:current-layer="layer1" /><defs
     id="defs3998"><rect
       x="142.47666"
       y="51.064644"
       width="77.542608"
       height="209.302"
       id="rect5706" /><rect
       x="143.10709"
       y="44.760367"
       width="84.477313"
       height="230.73654"
       id="rect5700" /><symbol
       id="DownArrow"><title
         id="title5768">Down Arrow</title><path
         d="M 36,63 14,41 V 26 L 30,42 V 10 H 42 V 42 L 58,26 v 15 z"
         style="stroke:none"
         id="path5770" /></symbol><symbol
       id="Buffer"><title
         id="title3529">Buffer</title><path
         d="M 25,30 75,50 25,70 V 50 Z"
         id="path3531" /></symbol></defs><g
     inkscape:label="Calque 1"
     inkscape:groupmode="layer"
     id="layer1"><path
       id="path730"
       style="fill:#f2f2f2;stroke-width:0.891"
       d="M 50.457385 3.8364583 A 46.620785 46.620785 0 0 0 3.8364583 50.457385 A 46.620785 46.620785 0 0 0 9.0428589 71.749626 L 3.5026286 75.226933 L 23.185148 86.069165 L 19.182292 65.385673 L 13.98726 68.646456 A 41.032963 41.032963 0 0 1 9.424231 49.956641 A 41.032963 41.032963 0 0 1 50.457385 8.9240031 A 41.032963 41.032963 0 0 1 91.490023 49.956641 A 41.032963 41.032963 0 0 1 86.813822 68.916207 L 91.747888 72.000256 A 46.620785 46.620785 0 0 0 97.077795 50.457385 A 46.620785 46.620785 0 0 0 50.457385 3.8364583 z " /><rect
       style="fill:#f2f2f2;stroke-width:0.493539"
       id="rect8339"
       width="14.715572"
       height="19.484509"
       x="43.375542"
       y="40.320816" /><use
       xlink:href="#Buffer"
       style="fill:#f2f2f2;stroke:none;stroke-width:2"
       id="use9108"
       transform="matrix(0,-0.65705572,0.65705572,0,17.863509,59.431163)" /><use
       xlink:href="#Buffer"
       style="fill:#f2f2f2;stroke:none;stroke-width:2"
       id="use9108-0"
       transform="matrix(0,0.65705572,-0.65705572,0,83.783459,40.385516)"
       inkscape:transform-center-x="-1.7713188"
       inkscape:transform-center-y="11.5817" /></g></svg>
