<?xml version="1.0" encoding="UTF-8" standalone="no"?>
<svg
   width="64"
   height="64"
   viewBox="0 0 64 64"
   version="1.1"
   id="svg10"
   sodipodi:docname="ercfunlock.svg"
   inkscape:version="1.2.1 (9c6d41e410, 2022-07-14)"
   xml:space="preserve"
   xmlns:inkscape="http://www.inkscape.org/namespaces/inkscape"
   xmlns:sodipodi="http://sodipodi.sourceforge.net/DTD/sodipodi-0.dtd"
   xmlns="http://www.w3.org/2000/svg"
   xmlns:svg="http://www.w3.org/2000/svg"
   xmlns:rdf="http://www.w3.org/1999/02/22-rdf-syntax-ns#"
   xmlns:cc="http://creativecommons.org/ns#"
   xmlns:dc="http://purl.org/dc/elements/1.1/"><metadata
     id="metadata16"><rdf:RDF><cc:Work
         rdf:about=""><dc:format>image/svg+xml</dc:format><dc:type
           rdf:resource="http://purl.org/dc/dcmitype/StillImage" /><dc:title>folder</dc:title></cc:Work></rdf:RDF></metadata><defs
     id="defs14" /><sodipodi:namedview
     pagecolor="#bfbfbf"
     bordercolor="#666666"
     borderopacity="1"
     objecttolerance="10"
     gridtolerance="10"
     guidetolerance="10"
     inkscape:pageopacity="0"
     inkscape:pageshadow="2"
     inkscape:window-width="1350"
     inkscape:window-height="1230"
     id="namedview12"
     showgrid="false"
     inkscape:pagecheckerboard="false"
     inkscape:zoom="5.4137931"
     inkscape:cx="39.805733"
     inkscape:cy="7.4808917"
     inkscape:window-x="1971"
     inkscape:window-y="1091"
     inkscape:window-maximized="0"
     inkscape:current-layer="svg10"
     inkscape:snap-bbox="true"
     inkscape:snap-bbox-edge-midpoints="true"
     inkscape:document-rotation="0"
     inkscape:showpageshadow="2"
     inkscape:deskcolor="#bfbfbf" /><!-- Generator: Sketch 52.5 (67469) - http://www.bohemiancoding.com/sketch --><title
     id="title2">folder</title><desc
     id="desc4">Created with Sketch.</desc><g
     id="g349"
     transform="matrix(0.0964332,0,0,0.0964332,3.9020608,3.6917471)"
     style="fill:#f9f9f9"><g
       id="g290"
       style="fill:#f9f9f9">
	<g
   id="g282"
   style="fill:#f9f9f9">
		<path
   d="m 487.106,238.621 v -38.907 c 0,-26.884 -5.271,-52.976 -15.665,-77.549 C 461.407,98.44 447.045,77.138 428.756,58.849 410.468,40.56 389.165,26.199 365.441,16.164 340.867,5.771 314.775,0.5 287.892,0.5 244.137,0.5 202.61,14.419 167.801,40.753 151.07,53.411 136.496,68.545 124.486,85.736 c -12.188,17.446 -21.444,36.595 -27.51,56.917 -3.383,11.336 3.063,23.269 14.399,26.652 5.446,1.626 11.028,0.979 15.735,-1.387 5.09,-2.558 9.158,-7.123 10.916,-13.013 9.425,-31.577 29.178,-59.984 55.622,-79.989 27.307,-20.659 59.896,-31.579 94.245,-31.579 41.769,0 81.038,16.266 110.573,45.801 29.535,29.535 45.801,68.804 45.801,110.573 v 38.89 H 162.598 90.063 c -32.058,0 -58.14,26.082 -58.14,58.141 v 220.4 c 0,32.057 26.082,58.139 58.14,58.139 h 395.658 c 32.059,0 58.14,-26.082 58.14,-58.139 v -220.4 C 543.86,265.149 518.526,239.36 487.106,238.621 Z m 13.915,278.524 c 0,8.449 -6.851,15.299 -15.3,15.299 H 90.063 c -8.45,0 -15.3,-6.85 -15.3,-15.299 v -220.4 c 0,-8.449 6.85,-15.3 15.3,-15.3 h 94.043 260.159 21.42 20.035 c 0.467,0 0.929,0.025 1.386,0.065 7.8,0.702 13.915,7.253 13.915,15.235 z"
   id="path278"
   style="fill:#f9f9f9" />
		<path
   d="M 485.721,575.783 H 90.063 c -32.334,0 -58.64,-26.306 -58.64,-58.639 v -220.4 c 0,-32.334 26.306,-58.641 58.64,-58.641 h 353.703 v -38.39 c 0,-41.636 -16.214,-80.779 -45.654,-110.22 -29.44,-29.441 -68.584,-45.654 -110.22,-45.654 -34.238,0 -66.723,10.885 -93.943,31.478 -26.359,19.941 -46.05,48.257 -55.444,79.733 -1.745,5.844 -5.712,10.573 -11.17,13.316 -4.949,2.487 -10.782,3.009 -16.103,1.419 -11.582,-3.457 -18.192,-15.692 -14.735,-27.274 6.081,-20.372 15.359,-39.57 27.579,-57.06 12.04,-17.234 26.65,-32.406 43.423,-45.096 C 202.396,13.955 244.027,0 287.892,0 c 26.95,0 53.107,5.284 77.744,15.704 23.785,10.06 45.141,24.457 63.475,42.792 18.335,18.335 32.732,39.691 42.792,63.475 10.42,24.635 15.704,50.792 15.704,77.744 v 38.421 c 15.161,0.481 29.355,6.729 40.017,17.627 10.793,11.033 16.737,25.587 16.737,40.982 v 220.4 c -10e-4,32.333 -26.306,58.638 -58.64,58.638 z M 90.063,239.104 c -31.783,0 -57.64,25.857 -57.64,57.641 v 220.4 c 0,31.782 25.857,57.639 57.64,57.639 h 395.658 c 31.782,0 57.64,-25.856 57.64,-57.639 v -220.4 c 0,-15.132 -5.843,-29.438 -16.452,-40.283 -10.592,-10.827 -24.731,-16.985 -39.813,-17.34 l -0.488,-0.012 v -39.396 c 0,-26.817 -5.257,-52.843 -15.626,-77.354 C 460.974,98.695 446.649,77.446 428.405,59.203 410.163,40.96 388.914,26.635 365.249,16.625 340.733,6.257 314.708,1 287.892,1 c -43.645,0 -85.067,13.884 -119.79,40.152 -16.69,12.626 -31.227,27.723 -43.208,44.871 -12.158,17.403 -21.391,36.504 -27.44,56.774 -3.299,11.054 3.009,22.731 14.063,26.03 5.079,1.517 10.644,1.019 15.368,-1.354 5.21,-2.618 8.997,-7.131 10.662,-12.709 9.455,-31.678 29.271,-60.176 55.799,-80.245 27.395,-20.725 60.088,-31.68 94.546,-31.68 41.902,0 81.297,16.318 110.927,45.947 29.63,29.629 45.947,69.024 45.947,110.927 v 39.39 H 90.063 Z M 485.721,532.943 H 90.063 c -8.712,0 -15.8,-7.087 -15.8,-15.799 v -220.4 c 0,-8.712 7.088,-15.8 15.8,-15.8 h 395.658 c 0.481,0 0.958,0.025 1.43,0.067 8.193,0.737 14.371,7.501 14.371,15.733 l -10e-4,220.4 c 0,8.712 -7.088,15.799 -15.8,15.799 z M 90.063,281.944 c -8.161,0 -14.8,6.639 -14.8,14.8 v 220.4 c 0,8.16 6.639,14.799 14.8,14.799 h 395.658 c 8.16,0 14.8,-6.639 14.8,-14.799 l 10e-4,-220.4 c 0,-7.711 -5.786,-14.047 -13.46,-14.737 -0.441,-0.039 -0.889,-0.063 -1.341,-0.063 z"
   id="path280"
   style="fill:#f9f9f9" />
	</g>
	<g
   id="g288"
   style="fill:#f9f9f9">
		<path
   d="m 287.892,303.236 c -33.887,0 -61.536,27.207 -62.256,60.924 -0.01,0.449 -0.017,0.898 -0.017,1.35 0,20.881 10.33,39.393 26.147,50.695 4.363,3.119 9.145,5.686 14.242,7.605 v 20.762 28.307 c 0,11.83 9.59,21.42 21.42,21.42 0.156,0 0.31,-0.008 0.464,-0.012 5.985,-0.127 11.363,-2.707 15.172,-6.777 3.584,-3.83 5.782,-8.973 5.782,-14.631 v -7.533 -41.193 c 24.06,-8.623 41.318,-31.654 41.318,-58.643 0.001,-34.338 -27.935,-62.274 -62.272,-62.274 z m 0,81.707 c -10.733,0 -19.433,-8.701 -19.433,-19.434 0,-10.733 8.7,-19.434 19.433,-19.434 10.732,0 19.434,8.701 19.434,19.434 0,10.733 -8.701,19.434 -19.434,19.434 z"
   id="path284"
   style="fill:#f9f9f9" />
		<path
   d="m 287.428,494.799 c -12.087,0 -21.92,-9.833 -21.92,-21.92 v -48.724 c -4.976,-1.905 -9.695,-4.442 -14.033,-7.543 -16.503,-11.794 -26.356,-30.897 -26.356,-51.103 0,-0.455 0.007,-0.907 0.017,-1.36 0.352,-16.455 7.042,-31.887 18.84,-43.452 11.815,-11.582 27.412,-17.961 43.916,-17.961 34.613,0 62.773,28.16 62.773,62.773 0,26.312 -16.59,49.974 -41.318,58.993 v 48.376 c 0,5.577 -2.102,10.895 -5.917,14.973 -4.068,4.347 -9.582,6.81 -15.527,6.936 l -0.148,0.005 c -0.109,0.003 -0.217,0.007 -0.327,0.007 z m 0.464,-191.063 c -16.24,0 -31.588,6.277 -43.215,17.675 -11.61,11.382 -18.195,26.567 -18.541,42.76 -0.01,0.445 -0.017,0.892 -0.017,1.339 0,19.883 9.696,38.683 25.938,50.288 4.361,3.118 9.114,5.656 14.127,7.545 l 0.324,0.122 v 49.414 c 0,11.535 9.385,20.92 20.92,20.92 l 0.452,-0.012 c 5.675,-0.12 10.938,-2.471 14.82,-6.619 3.642,-3.892 5.647,-8.967 5.647,-14.289 v -49.078 l 0.331,-0.119 c 24.516,-8.786 40.987,-32.164 40.987,-58.172 0,-34.062 -27.712,-61.774 -61.773,-61.774 z m 0,81.707 c -10.991,0 -19.933,-8.942 -19.933,-19.934 0,-10.992 8.942,-19.934 19.933,-19.934 10.991,0 19.934,8.942 19.934,19.934 0,10.992 -8.943,19.934 -19.934,19.934 z m 0,-38.867 c -10.44,0 -18.933,8.493 -18.933,18.934 0,10.441 8.493,18.934 18.933,18.934 10.44,0 18.934,-8.493 18.934,-18.934 0,-10.441 -8.494,-18.934 -18.934,-18.934 z"
   id="path286"
   style="fill:#f9f9f9" />
	</g>
</g><g
       id="g292"
       style="fill:#f9f9f9">
</g><g
       id="g294"
       style="fill:#f9f9f9">
</g><g
       id="g296"
       style="fill:#f9f9f9">
</g><g
       id="g298"
       style="fill:#f9f9f9">
</g><g
       id="g300"
       style="fill:#f9f9f9">
</g><g
       id="g302"
       style="fill:#f9f9f9">
</g><g
       id="g304"
       style="fill:#f9f9f9">
</g><g
       id="g306"
       style="fill:#f9f9f9">
</g><g
       id="g308"
       style="fill:#f9f9f9">
</g><g
       id="g310"
       style="fill:#f9f9f9">
</g><g
       id="g312"
       style="fill:#f9f9f9">
</g><g
       id="g314"
       style="fill:#f9f9f9">
</g><g
       id="g316"
       style="fill:#f9f9f9">
</g><g
       id="g318"
       style="fill:#f9f9f9">
</g><g
       id="g320"
       style="fill:#f9f9f9">
</g></g></svg>
