<?xml version="1.0" encoding="UTF-8" standalone="no"?>
<svg
   width="64"
   height="64"
   viewBox="0 0 64 64"
   version="1.1"
   id="svg10"
   sodipodi:docname="ercfeject.svg"
   inkscape:version="1.2.1 (9c6d41e410, 2022-07-14)"
   xml:space="preserve"
   xmlns:inkscape="http://www.inkscape.org/namespaces/inkscape"
   xmlns:sodipodi="http://sodipodi.sourceforge.net/DTD/sodipodi-0.dtd"
   xmlns="http://www.w3.org/2000/svg"
   xmlns:svg="http://www.w3.org/2000/svg"
   xmlns:rdf="http://www.w3.org/1999/02/22-rdf-syntax-ns#"
   xmlns:cc="http://creativecommons.org/ns#"
   xmlns:dc="http://purl.org/dc/elements/1.1/"><metadata
     id="metadata16"><rdf:RDF><cc:Work
         rdf:about=""><dc:format>image/svg+xml</dc:format><dc:type
           rdf:resource="http://purl.org/dc/dcmitype/StillImage" /><dc:title>folder</dc:title></cc:Work></rdf:RDF></metadata><defs
     id="defs14" /><sodipodi:namedview
     pagecolor="#bfbfbf"
     bordercolor="#666666"
     borderopacity="1"
     objecttolerance="10"
     gridtolerance="10"
     guidetolerance="10"
     inkscape:pageopacity="0"
     inkscape:pageshadow="2"
     inkscape:window-width="1350"
     inkscape:window-height="1230"
     id="namedview12"
     showgrid="false"
     inkscape:pagecheckerboard="false"
     inkscape:zoom="10.827586"
     inkscape:cx="39.390128"
     inkscape:cy="39.759554"
     inkscape:window-x="1971"
     inkscape:window-y="1091"
     inkscape:window-maximized="0"
     inkscape:current-layer="svg10"
     inkscape:snap-bbox="true"
     inkscape:snap-bbox-edge-midpoints="true"
     inkscape:document-rotation="0"
     inkscape:showpageshadow="2"
     inkscape:deskcolor="#bfbfbf" /><!-- Generator: Sketch 52.5 (67469) - http://www.bohemiancoding.com/sketch --><title
     id="title2">folder</title><desc
     id="desc4">Created with Sketch.</desc><g
     id="g590"
     transform="matrix(0.12700703,0,0,0.12700703,-1.6350372,0.53011641)"
     style="fill:#ececec"><path
       fill="var(--ci-primary-color, currentColor)"
       d="m 97.088,286.56 h 317.824 a 24,24 0 0 0 18.432,-39.371 L 274.433,56.63 a 24,24 0 0 0 -36.866,0 v 0 L 78.656,247.189 A 24,24 0 0 0 97.088,286.56 Z M 256,84.491 397.824,254.56 H 114.176 Z"
       class="ci-primary"
       id="path578"
       style="fill:#ececec" /><path
       fill="var(--ci-primary-color, currentColor)"
       d="M 416,328 H 96 a 24.027,24.027 0 0 0 -24,24 v 64 a 24.027,24.027 0 0 0 24,24 h 320 a 24.027,24.027 0 0 0 24,-24 v -64 a 24.027,24.027 0 0 0 -24,-24 z m -8,80 H 104 v -48 h 304 z"
       class="ci-primary"
       id="path580"
       style="fill:#ececec" /></g></svg>
