<?xml version="1.0" standalone="yes"?>
<svg xmlns="http://www.w3.org/2000/svg" width="479" height="443">
<path style="fill:#050505; stroke:none;" d="M215 56L216 57L215 56z"/>
<path style="fill:#ffffff; stroke:none;" d="M211 62C208.221 60.1069 206.048 60.2408 204 63C198.41 62.1571 190.449 64.2964 187 69L180 72C174.042 71.9553 167.636 75.6396 165 81C158.148 80.7375 148.072 89.0337 145 95C139.375 95.9604 132.96 102.375 132 108C127.252 110.222 122.658 114.64 122 120C116.945 122.724 112.134 129.197 112 135L110 135L111 137L107 144L105 144L106 146C99.4005 151.128 92.2542 171.839 94 180C90.9613 181.64 88.6026 191.095 92 193L92 194C88.135 194.832 88.924 198.823 90 202C85.1543 206.253 87.8985 223.673 88.0802 229.91C88.1701 232.993 87.5824 235.903 90 238C89.0222 241.239 88.0581 245.171 92 246L92 247C87.4194 247.916 92.0736 259.615 94 260C92.4876 267.071 98.044 285.618 104 290L105 296L107 296L111 303L112 305C111.92 307.852 112.153 308.681 115 309C115.087 312.988 116.504 315.103 120 317L120 318C114.602 319.747 106.944 327.473 106 333C95.7893 338.006 103.511 349.3 112 345C115.545 349.973 128.101 353.532 134 352C136.87 356.161 144.2 357.68 149 357C152.05 361.061 158.227 361.925 163 361L162 363L165 362C166.618 365.064 169.867 364.529 173 364L173 365L171 365L171 366L184 368L184 363L175 344L173 344L173 343L174 342L171 343L173 340L170 339L171 335L169 335L170 333L168 333L169 331L167 331L164 327L164 326L166 325L162 315L160 316L160 315C160.048 308.567 154.709 296.24 149 293L150 290L140 293L138 298L132 301L125 291C125.041 285.597 121.396 276.843 116 275L116 274C118.576 271.876 116.711 269.791 114 269L114 268C116.45 265.441 114.536 261.905 112 260C112.893 255.95 112.353 250.709 109 248C110.378 242.719 108.194 238.236 107.832 232.996C107.274 224.925 110.833 212.9 106 206L107 203C110.262 200.137 110.985 190.154 110 186C114.538 182.317 118.321 166.817 118 161L121 155L124 149L126 149L125 147L128 146L127 144C130.926 141.618 133.62 137.557 134 133C138.017 130.817 142.232 126.529 143 122L164.285 104.519L176 95L178 96L179 93L183 93L182 91L183 91L222 80L224 76L223 79L265 79L264 76L266 80L307 92C307.929 93.9367 308.665 94.9706 310 93L311 93C313.057 99.6895 327.175 109.003 334 110C334.98 115.741 340.853 120.6 346 123C346.757 127.505 349.995 130.862 354 133L356 136L361 144L360 146L363 147L364 149L367 155L370 161C369.74 165.782 372.098 174.046 376 177L378 186C377.071 190.207 377.634 200.126 381 203L382 206L380.242 221.59L376.436 253.173L374 268L374 269C371.289 269.791 369.424 271.876 372 274L372 275C366.851 276.759 364.204 283.887 364 289L362 289L363 291L361 291L362 293C357.038 295.866 350.742 305.22 351 311C347.66 310.933 346.598 311.701 346 315L340 322C334.815 322.889 328.501 328.913 327 334L326 334L325 332L321 335C322.644 340.387 324.763 344.504 330 347L335 356L335 353L338 354C346.238 345.201 360.724 338.47 364 326C370.932 324.703 382.991 305.036 383 298C385.968 295.991 390.761 289.153 388 286L388 285C392.679 283.372 395.207 276.357 393 272L396 272L398 262L394 260L399 261L401 238C405.732 234.527 403.189 215.755 402.921 210.06C402.784 207.129 403.481 203.733 401 202L399 179L394 180L398 178L396 168L393 168L391 155L389 155L390 153L388 153C388.253 147.453 384.848 139.878 380 137C379.638 131.552 374.551 122.058 369 121C369.002 117.099 367.945 114.742 364 114C361.839 105.774 349.461 92.3746 341 91L336 87C334.136 83.3745 332.095 81.9977 328 82L319 74L316 75L317 73L315 72L313 73L313 71L285 60.6667L275 60C264.61 52.1434 238.506 55.0453 226.424 56.8696C221.273 57.6475 214.015 57.2122 211 62z"/>
<path style="fill:#fbfbfb; stroke:none;" d="M257 56L258 57L257 56M260 56L261 57L260 56z"/>
<path style="fill:#050505; stroke:none;" d="M292 56L293 57L292 56M197 57L198 58L197 57M204 57L205 58L204 57M206 57L207 58L206 57z"/>
<path style="fill:#0a0a0a; stroke:none;" d="M209 57L210 58L209 57z"/>
<path style="fill:#fbfbfb; stroke:none;" d="M226 57L227 58L226 57M228 57L229 58L228 57M231 57L232 58L231 57M259 57L260 58L259 57M264 57L265 58L264 57M266 57L267 58L266 57z"/>
<path style="fill:#050505; stroke:none;" d="M286 57L287 58L286 57M294 57L295 58L294 57M192 58L193 59L192 58M200 58L201 59L200 58M211 58L210 60L211 58M215 58L216 59L215 58z"/>
<path style="fill:#fbfbfb; stroke:none;" d="M218 58L219 59L218 58M222 58L223 59L222 58M256 58L257 59L256 58M263 58L264 59L263 58M268 58L264 60L265 62L263 60L259 59C261.994 62.3425 266.652 63.2812 268 58M274.333 58.6667L274.667 59.3333L274.333 58.6667z"/>
<path style="fill:#050505; stroke:none;" d="M291 58L292 59L291 58z"/>
<path style="fill:#fbfbfb; stroke:none;" d="M211 59L212 60L211 59M219 59L218 64L219 64L219 59M270 59L268 62L270 59M279 59L280 60L279 59z"/>
<path style="fill:#050505; stroke:none;" d="M289 59L290 60L289 59M295 59L296 60L295 59M198 60L199 61L198 60z"/>
<path style="fill:#fbfbfb; stroke:none;" d="M208 60L209 61L208 60M210.333 60.6667L210.667 61.3333L210.333 60.6667M222 60C221.446 62.568 221.384 63.0271 224 63L224 62L222 63L222 60M225 60L226 61L225 60M227 60L226 64L229 64L230 60L227 60M273 60L274 61L273 60M275.333 60.6667L275.667 61.3333L275.333 60.6667M277 60L279 62L277 60z"/>
<path style="fill:#0a0a0a; stroke:none;" d="M290 60L291 61L290 60z"/>
<path style="fill:#fbfbfb; stroke:none;" d="M203 61L202 63L204 63L203 61M207 61L207 64L210 64L207 61M256 61L257 62L256 61M258 61L260 63L258 61M271 61L272 62L271 61M280.667 61.3333L281.333 61.6667L280.667 61.3333M283 61L284 62L283 61z"/>
<path style="fill:#050505; stroke:none;" d="M292 61L293 62L292 61z"/>
<path style="fill:#fbfbfb; stroke:none;" d="M214 62L215 63L214 62M230 62L231 63L230 62M273 62L274 63L273 62M286 62L287 63L286 62M261 63L262 64L261 63M267 63L268 64L267 63M270 63L271 64L270 63M275 63L276 64L275 63z"/>
<path style="fill:#050505; stroke:none;" d="M305 64L304 66L305 64M182 65L183 66L182 65M188 65L189 66L188 65z"/>
<path style="fill:#fbfbfb; stroke:none;" d="M196.333 65.6667L196.667 66.3333L196.333 65.6667M199 65L200 66L199 65M189 66L190 67L189 66M192 66L192 67L192 68L196 69L192 66M298 66L299 67L298 66z"/>
<path style="fill:#050505; stroke:none;" d="M309 66L310 67L309 66M317 66L318 67L317 66M185 67L186 68L185 67z"/>
<path style="fill:#fbfbfb; stroke:none;" d="M199 67L196 71L199 71L200 70L199 67M296 67L297 68L296 67M300 67L305 70L305 69L302 70L300 67z"/>
<path style="fill:#050505; stroke:none;" d="M315 67L316 68L315 67M179 68L180 69L179 68z"/>
<path style="fill:#fbfbfb; stroke:none;" d="M186 68L187 69L186 68M298 68L299 69L298 68z"/>
<path style="fill:#050505; stroke:none;" d="M311 68L312 69L311 68z"/>
<path style="fill:#fbfbfb; stroke:none;" d="M189 69L189 70L192 70L192 69L189 69M193 69L193 72L194 72L193 69z"/>
<path style="fill:#ffffff; stroke:none;" d="M198 69L199 70L198 69z"/>
<path style="fill:#fbfbfb; stroke:none;" d="M306 69L307 70L306 69z"/>
<path style="fill:#050505; stroke:none;" d="M177 70L178 71L177 70z"/>
<path style="fill:#fbfbfb; stroke:none;" d="M182 70L181 72L182 70M186.667 70.3333L187.333 70.6667L186.667 70.3333M297 70L298 71L297 70M299 70L300 71L299 70M308.333 70.6667L308.667 71.3333L308.333 70.6667z"/>
<path style="fill:#050505; stroke:none;" d="M311 70L312 71L311 70z"/>
<path style="fill:#fbfbfb; stroke:none;" d="M179 71L180 72L179 71M184 71L185 72L184 71M311 71L312 72L311 71M222 72L222 75L223 75L222 72M224 72L227 74L227 73L224 72M229 72L230 75L228 74L231 77L232 72L229 72M265 72L265 75L266 75L265 72M313 72L314 73L313 72z"/>
<path style="fill:#050505; stroke:none;" d="M324 72L325 73L324 72z"/>
<path style="fill:#fbfbfb; stroke:none;" d="M217 73L216 77L217 77L217 73M219 73L220 74L219 73M257 73L258 74L257 73M260.667 73.3333L261.333 73.6667L260.667 73.3333M268 73L269 74L268 73M270 73L271 77L272 77L270 73M312 73L312 76L313 76L312 73M315 73L316 74L315 73z"/>
<path style="fill:#050505; stroke:none;" d="M317 73L318 74L317 73z"/>
<path style="fill:#fbfbfb; stroke:none;" d="M316.667 74.3333L317.333 74.6667L316.667 74.3333z"/>
<path style="fill:#050505; stroke:none;" d="M319 74L320 75L319 74M325 74L327 76L325 74z"/>
<path style="fill:#fbfbfb; stroke:none;" d="M174 75L175 76L174 75M220 75L222 77L220 75M260 75L261 76L260 75M267 75L266 77L267 75M319 75L320 76L319 75M172 76L172 79L173 79L172 76M223 76L221 79L223 76M226 76L228 78L226 76M264 76L267 79L264 76M314 76L312 79L314 80L315 80L314 76M316.667 76.3333L317.333 76.6667L316.667 76.3333M322 76L323 77L322 76M219.333 77.6667L219.667 78.3333L219.333 77.6667M231 77L232 78L231 77M256 77L257 78L256 77M258 77L259 78L258 77M262 77L263 78L262 77M268.333 77.6667L268.667 78.3333L268.333 77.6667M321 77L320 79L321 77z"/>
<path style="fill:#050505; stroke:none;" d="M160 78L161 79L160 78z"/>
<path style="fill:#fbfbfb; stroke:none;" d="M165 78L164 81L165 81L165 78M167 78L168 79L167 78M169 78L171 80L169 78M174 78L175 79L174 78M216 78L217 79L216 78M226 78L227 79L226 78M261 78L262 79L261 78M271 78L272 79L271 78M316 78L316 79L319 79L316 78M325 78L326 79L325 78M195 80L194 86L195 86L196 86C196 83.5642 196.786 84.385 199 85L199 84L196 83L196 82L202 83L203 81L203 80L195 80M205 80L204 82L205 80M209 80L210 81L209 80M213.667 80.3333L214.333 80.6667L213.667 80.3333M273.667 80.3333L274.333 80.6667L273.667 80.3333M278 80L279 81L278 80M282 80L284 82L282 80M285 80L285 81L286 83L290 84L291 80L285 80M292 80L293 81L292 80M294 80L295 81L294 80z"/>
<path style="fill:#050505; stroke:none;" d="M155 81L156 82L155 81z"/>
<path style="fill:#fbfbfb; stroke:none;" d="M162 81L161 83L162 81M167 81L168 82L167 81M193 81L194 82L193 81M210 81L211 82L210 81M277 81L278 82L277 81z"/>
<path style="fill:#ffffff; stroke:none;" d="M288 81L289 82L288 81z"/>
<path style="fill:#fbfbfb; stroke:none;" d="M328.667 81.3333L329.333 81.6667L328.667 81.3333z"/>
<path style="fill:#050505; stroke:none;" d="M342 81L344 83L342 81M157 82L158 83L157 82z"/>
<path style="fill:#fbfbfb; stroke:none;" d="M159 82L160 83L159 82M206 82L207 83L206 82M208 82L209 83L208 82M279 82L280 83L279 82M281 82L282 83L281 82M292.667 82.3333L293.333 82.6667L292.667 82.3333M295 82L296 83L295 82z"/>
<path style="fill:#050505; stroke:none;" d="M340 82L341 83L340 82z"/>
<path style="fill:#fbfbfb; stroke:none;" d="M157 83L158 84L157 83M163.667 83.3333L164.333 83.6667L163.667 83.3333M192 83L193 84L192 83z"/>
<path style="fill:#050505; stroke:none;" d="M205 83L206 84L205 83z"/>
<path style="fill:#0a0a0a; stroke:none;" d="M209 83L210 84L209 83M278 83L279 84L278 83z"/>
<path style="fill:#050505; stroke:none;" d="M282 83L283 84L282 83z"/>
<path style="fill:#fbfbfb; stroke:none;" d="M328 84L328 85L330 87L331 87L332 83L328 84z"/>
<path style="fill:#050505; stroke:none;" d="M153 84L152 86L153 84M155 84L156 85L155 84z"/>
<path style="fill:#fbfbfb; stroke:none;" d="M155 86L155 87L163 87L163 86L161 84L155 86M166 84L164 85L164 86L166 84z"/>
<path style="fill:#050505; stroke:none;" d="M211 84L212 85L211 84M213 84L214 85L213 84M274 84L275 85L274 84M276 84L277 85L276 84z"/>
<path style="fill:#fbfbfb; stroke:none;" d="M292 86L295 85L292 86z"/>
<path style="fill:#050505; stroke:none;" d="M341.667 84.3333L342.333 84.6667L341.667 84.3333z"/>
<path style="fill:#ffffff; stroke:none;" d="M158 85L159 86L158 85z"/>
<path style="fill:#050505; stroke:none;" d="M208 85L210 87L208 85M279 85L278 87L279 85z"/>
<path style="fill:#fbfbfb; stroke:none;" d="M289 85L290 86L289 85M167 86L166 88L167 86z"/>
<path style="fill:#050505; stroke:none;" d="M288 86L290 88L288 86z"/>
<path style="fill:#fbfbfb; stroke:none;" d="M294 86L295 87L294 86M336 86L337 87L336 86z"/>
<path style="fill:#050505; stroke:none;" d="M339 86L340 87L339 86M202 87L203 88L202 87M285 87L286 88L285 87z"/>
<path style="fill:#fbfbfb; stroke:none;" d="M295 87L296 88L295 87M332 87L333 88L332 87M334 87L335 88L334 87z"/>
<path style="fill:#050505; stroke:none;" d="M137 88L138 89L137 88z"/>
<path style="fill:#fbfbfb; stroke:none;" d="M180 88L178 92L179 92L180 88M184 88L185 89L184 88M190 88L191 89L190 88M297 88L298 89L297 88M303 88L304 89L303 88M305 88L306 89L305 88M308 88L309 89L308 88M339 88L340 89L339 88z"/>
<path style="fill:#050505; stroke:none;" d="M141 89L142 90L141 89M143 89L144 90L143 89M147 89L148 90L147 89z"/>
<path style="fill:#fbfbfb; stroke:none;" d="M150 89L151 90L150 89M177 89L176 92L177 92L177 89M182 89L181 91L182 89z"/>
<path style="fill:#050505; stroke:none;" d="M190 89L191 90L190 89M297 89L298 90L297 89z"/>
<path style="fill:#fbfbfb; stroke:none;" d="M336 89L337 90L336 89z"/>
<path style="fill:#050505; stroke:none;" d="M341 89L342 90L341 89M138 90L139 91L138 90z"/>
<path style="fill:#fbfbfb; stroke:none;" d="M148 90L149 91L148 90M151 90L152 91L151 90M184 90L185 91L184 90M303.667 90.3333L304.333 90.6667L303.667 90.3333M306 90L306 91L310 93L306 90M338.667 90.3333L339.333 90.6667L338.667 90.3333M341 90L342 91L341 90z"/>
<path style="fill:#050505; stroke:none;" d="M350 90L351 91L350 90z"/>
<path style="fill:#fbfbfb; stroke:none;" d="M149 91L152 96L149 91M182.667 91.3333L183.333 91.6667L182.667 91.3333z"/>
<path style="fill:#050505; stroke:none;" d="M140 92L141 93L140 92z"/>
<path style="fill:#fbfbfb; stroke:none;" d="M181 92L182 93L181 92M306 92L307 93L306 92M311 92L312 93L311 92M336 92L339 95L336 92M339.667 92.3333L340.333 92.6667L339.667 92.3333z"/>
<path style="fill:#050505; stroke:none;" d="M142 93L143 94L142 93z"/>
<path style="fill:#fbfbfb; stroke:none;" d="M147 93L146 95L147 93M176 93L178 95L176 93M179 93L180 94L179 93z"/>
<path style="fill:#050505; stroke:none;" d="M184 93L185 94L184 93M303 93L304 94L303 93z"/>
<path style="fill:#fbfbfb; stroke:none;" d="M310.333 93.6667L310.667 94.3333L310.333 93.6667M340 94L340 95L343 96L343 93L340 94z"/>
<path style="fill:#050505; stroke:none;" d="M136 94L137 95L136 94z"/>
<path style="fill:#fbfbfb; stroke:none;" d="M144 94L145 95L144 94M344.667 94.3333L345.333 94.6667L344.667 94.3333M347 94L348 95L347 94z"/>
<path style="fill:#050505; stroke:none;" d="M348 94L349 95L348 94z"/>
<path style="fill:#fbfbfb; stroke:none;" d="M176 95L177 96L176 95z"/>
<path style="fill:#050505; stroke:none;" d="M129 96L130 97L129 96z"/>
<path style="fill:#fbfbfb; stroke:none;" d="M142 96L144 98L142 96M168 96L169 97L168 96M319 96L320 97L319 96M347 96L348 97L347 96z"/>
<path style="fill:#050505; stroke:none;" d="M353 96L352 98L353 96M356 96L357 97L356 96M133 97L134 98L133 97M135 97L136 98L135 97z"/>
<path style="fill:#fbfbfb; stroke:none;" d="M168 99L169 100L171 97L168 99M172 97L173 98L172 97M315 97L316 98L315 97M317 97L319 100L320 99L317 97M344 97L345 98L344 97M349 97L351 99L349 97z"/>
<path style="fill:#050505; stroke:none;" d="M130 98L131 99L130 98z"/>
<path style="fill:#fbfbfb; stroke:none;" d="M141 98L142 99L141 98M160 98L161 99L160 98M162 98L163 99L162 98M165 98L162 100L162 101L164 102L165 98M322 98L326 101L326 100L322 98M325 98L326 99L325 98M327 98L328 99L327 98M143 99L144 100L143 99M347.667 99.3333L348.333 99.6667L347.667 99.3333M352 99L353 100L352 99z"/>
<path style="fill:#050505; stroke:none;" d="M356 99L357 100L356 99M132 100L133 101L132 100z"/>
<path style="fill:#fbfbfb; stroke:none;" d="M140 100L142 102L140 100M160 100L161 101L160 100M327 100L328 101L327 100M345 100L348 102L348 101L345 100M351 100L349 102L349 103L351 104L354 103L351 100z"/>
<path style="fill:#050505; stroke:none;" d="M134 101L135 102L134 101z"/>
<path style="fill:#fbfbfb; stroke:none;" d="M166 101L167 102L166 101z"/>
<path style="fill:#050505; stroke:none;" d="M171 101L172 102L171 101M316 101L317 102L316 101z"/>
<path style="fill:#fbfbfb; stroke:none;" d="M321 101L322 102L321 101z"/>
<path style="fill:#050505; stroke:none;" d="M357 101L358 102L357 101M128 102L129 103L128 102z"/>
<path style="fill:#fbfbfb; stroke:none;" d="M136 102L138 104L136 102M161 102L162 103L161 102M326 102L327 103L326 102M344 102L346 104L344 102M140 103L141 104L140 103M152 104L154 106L152 104M155 104L155 105L158 105L158 104L155 104M159 104L160 105L159 104M163 104L164 105L163 104M324 104L325 105L324 104M331 104L332 105L331 104M334 104L335 105L334 104M355 104L356 105L355 104z"/>
<path style="fill:#050505; stroke:none;" d="M130 105L131 106L130 105z"/>
<path style="fill:#fbfbfb; stroke:none;" d="M329 105L328 107L329 105M352 105L353 106L352 105M357 105L359 107L357 105z"/>
<path style="fill:#050505; stroke:none;" d="M366 105L367 106L366 105M122 106L123 107L122 106z"/>
<path style="fill:#fbfbfb; stroke:none;" d="M331 106L332 107L331 106M334.667 106.333L335.333 106.667L334.667 106.333z"/>
<path style="fill:#050505; stroke:none;" d="M362 106L363 107L362 106M124 107L125 108L124 107z"/>
<path style="fill:#fbfbfb; stroke:none;" d="M131 107L132 108L131 107M152 107L153 108L152 107M157.667 107.333L158.333 107.667L157.667 107.333z"/>
<path style="fill:#050505; stroke:none;" d="M162 107L161 109L162 107M165 107L166 108L165 107M322 107L323 108L322 107M325 107L327 109L325 107z"/>
<path style="fill:#fbfbfb; stroke:none;" d="M355.667 107.333L356.333 107.667L355.667 107.333z"/>
<path style="fill:#050505; stroke:none;" d="M467 107L467 109L469 109L469 107L467 107z"/>
<path style="fill:#fbfbfb; stroke:none;" d="M155 108L153 111L157 110L155 108M330 108L331 109L330 108M332 108L333 109L332 108M353 108L356 110L356 109L353 108M359 108L357 110L357 111L361 112L359 108z"/>
<path style="fill:#050505; stroke:none;" d="M366 108L367 109L366 108z"/>
<path style="fill:#fbfbfb; stroke:none;" d="M132 109L132 111L131 111L130 110L130 111L135 112L135 109L132 109z"/>
<path style="fill:#050505; stroke:none;" d="M158 109L159 110L158 109M363 109L364 110L363 109M163 110L164 111L163 110M165.667 110.333L166.333 110.667L165.667 110.333M321.667 110.333L322.333 110.667L321.667 110.333M324 110L325 111L324 110M329 110L330 111L329 110z"/>
<path style="fill:#fbfbfb; stroke:none;" d="M332.667 110.333L333.333 110.667L332.667 110.333M335 110L334 112L335 110M352 110L354 112L352 110M362 110L363 111L362 110z"/>
<path style="fill:#050505; stroke:none;" d="M366 110L367 111L366 110z"/>
<path style="fill:#fbfbfb; stroke:none;" d="M128 111L127 113L128 111M147 112L148 113L147 112M150 112L152 114L150 112M337 112L336 114L337 112M340 112L341 113L340 112M362 112L360 115L364 117L360 117L360 118L364 120L365 117L365 116L362 112M364.333 112.667L364.667 113.333L364.333 112.667M146 114L148 116L146 114z"/>
<path style="fill:#050505; stroke:none;" d="M153 114L154 115L153 114M334 114L335 115L334 114z"/>
<path style="fill:#fbfbfb; stroke:none;" d="M341 114L340 116L341 114M365 114L366 115L365 114M126 115L127 116L126 115z"/>
<path style="fill:#050505; stroke:none;" d="M155 115L156 116L155 115M332 115L333 116L332 115M370 115L371 116L370 115z"/>
<path style="fill:#fbfbfb; stroke:none;" d="M123 116L124 117L123 116M144 116L145 117L144 116M343 116L344 117L343 116M125 117L126 118L125 117M127 117L128 118L127 117M146 117L147 118L146 117z"/>
<path style="fill:#050505; stroke:none;" d="M157 117L158 118L157 117M330 117L331 118L330 117z"/>
<path style="fill:#fbfbfb; stroke:none;" d="M341 117L342 118L341 117z"/>
<path style="fill:#050505; stroke:none;" d="M372 117L373 118L372 117M375 117L376 118L375 117z"/>
<path style="fill:#fbfbfb; stroke:none;" d="M144 118L146 120L144 118z"/>
<path style="fill:#050505; stroke:none;" d="M152 118L153 119L152 118M154 118L155 119L154 118M333 118L334 119L333 118M335 118L336 119L335 118z"/>
<path style="fill:#fbfbfb; stroke:none;" d="M343 118L342 120L343 118M365.333 118.667L365.667 119.333L365.333 118.667M367.667 118.333L368.333 118.667L367.667 118.333M121 119L122 120L121 119M123 119L124 120L123 119M125 119L126 120L125 119z"/>
<path style="fill:#050505; stroke:none;" d="M158 119L159 120L158 119M329 119L330 120L329 119z"/>
<path style="fill:#fbfbfb; stroke:none;" d="M369.333 119.667L369.667 120.333L369.333 119.667M140 120L142 123L140 120M143 120L144 121L143 120M351 120L349 121L349 122L351 120M347 121L346 123L347 121M368 121L369 122L368 121z"/>
<path style="fill:#050505; stroke:none;" d="M117 122L118 123L117 122z"/>
<path style="fill:#fbfbfb; stroke:none;" d="M143 122L144 123L143 122z"/>
<path style="fill:#050505; stroke:none;" d="M145 122L146 123L145 122M342 122L343 123L342 122z"/>
<path style="fill:#fbfbfb; stroke:none;" d="M368 125L373 125L373 124L372 123L368 125z"/>
<path style="fill:#050505; stroke:none;" d="M375 122L376 123L375 122z"/>
<path style="fill:#fbfbfb; stroke:none;" d="M136 123L136 124L140 124L140 123L136 123z"/>
<path style="fill:#050505; stroke:none;" d="M147 123L148 124L147 123M340 123L341 124L340 123z"/>
<path style="fill:#fbfbfb; stroke:none;" d="M345 123L346 124L345 123M348 123L349 124L348 123M141 124L139 125L139 126L141 124M346 124L349 126L349 125L346 124M350 124L351 125L350 124M118 128L119 128L120 126L118 128z"/>
<path style="fill:#050505; stroke:none;" d="M149 125L150 126L149 125M338 125L339 126L338 125z"/>
<path style="fill:#fbfbfb; stroke:none;" d="M374.333 125.667L374.667 126.333L374.333 125.667z"/>
<path style="fill:#050505; stroke:none;" d="M142 126L143 127L142 126M144 126L145 127L144 126M146 126L147 127L146 126M341 126L342 127L341 126M343 126L344 127L343 126z"/>
<path style="fill:#fbfbfb; stroke:none;" d="M349 127L349 128L352 128L349 127z"/>
<path style="fill:#050505; stroke:none;" d="M113 127L114 128L113 127z"/>
<path style="fill:#fbfbfb; stroke:none;" d="M139 127L140 128L139 127z"/>
<path style="fill:#050505; stroke:none;" d="M140 127L141 128L140 127M150 127L151 128L150 127M337 127L338 128L337 127z"/>
<path style="fill:#fbfbfb; stroke:none;" d="M131 129L129 130L129 131L131 129M356 129L359 131L359 130L356 129M114 130L115 131L114 130M116 130L114 132L113 134L113 135L120 136L120 135L116 135L120 133L120 130L116 130M135 130L136 131L135 130M137 130L138 131L137 130z"/>
<path style="fill:#050505; stroke:none;" d="M138 130L139 131L138 130M142 130L144 133L142 130M345 130L344 133L345 130M349 130L350 131L349 130z"/>
<path style="fill:#fbfbfb; stroke:none;" d="M350 130L351 131L350 130M352 130L353 131L352 130M376 130L376 133L377 133L376 130z"/>
<path style="fill:#050505; stroke:none;" d="M380 130L381 131L380 130z"/>
<path style="fill:#fbfbfb; stroke:none;" d="M132 131L133 132L132 131M355 131L356 132L355 131M129 132L129 133L134 135L134 134L129 132M354 134L354 135L359 133L354 134M378 132L380 134L378 132z"/>
<path style="fill:#050505; stroke:none;" d="M110 133L111 134L110 133z"/>
<path style="fill:#fbfbfb; stroke:none;" d="M134 133L135 134L134 133M353 133L354 134L353 133M111 134L112 135L111 134M128 134L129 135L128 134M359 134L360 135L359 134M376 134L376 135L380 136L380 135L376 134M110 136L111 137L110 136M128.333 136.667L128.667 137.333L128.333 136.667z"/>
<path style="fill:#050505; stroke:none;" d="M353 136L354 137L353 136z"/>
<path style="fill:#fbfbfb; stroke:none;" d="M355 136L356 137L355 136M380 136L381 137L380 136z"/>
<path style="fill:#050505; stroke:none;" d="M107 137L108 138L107 137z"/>
<path style="fill:#fbfbfb; stroke:none;" d="M131 137L132 138L131 137z"/>
<path style="fill:#050505; stroke:none;" d="M133 137L134 138L133 137z"/>
<path style="fill:#fbfbfb; stroke:none;" d="M358 137L359 138L358 137M379 137L381 139L379 137z"/>
<path style="fill:#050505; stroke:none;" d="M388 137L390 139L388 137z"/>
<path style="fill:#fbfbfb; stroke:none;" d="M356 138L357 139L356 138M129 139L130 140L129 139z"/>
<path style="fill:#050505; stroke:none;" d="M133 139L134 140L133 139z"/>
<path style="fill:#fbfbfb; stroke:none;" d="M359 139L360 140L359 139M376 140L376 141L379 141L376 140M111 140L107 142L107 145L111 140M383 140L384 141L383 140z"/>
<path style="fill:#050505; stroke:none;" d="M390 140L391 141L390 140z"/>
<path style="fill:#fbfbfb; stroke:none;" d="M128 141L129 142L128 141z"/>
<path style="fill:#050505; stroke:none;" d="M357 141L358 142L357 141z"/>
<path style="fill:#fbfbfb; stroke:none;" d="M358 141L359 142L358 141M380 141L381 142L380 141M382.333 141.667L382.667 142.333L382.333 141.667M377 142L379 144L377 142M106 143L107 144L106 143M380 143L381 144L380 143z"/>
<path style="fill:#050505; stroke:none;" d="M100 144L101 145L100 144M102 144L103 145L102 144z"/>
<path style="fill:#fbfbfb; stroke:none;" d="M121 145L121 146L123 147L124 147L123 144L121 145M125 144L127 146L125 144M127 144L128 145L127 144M360 144L361 145L360 144M362 144L361 146L362 144M364 147L365 147L367 146C365.188 144.499 364.978 144.842 364 147M105 145L106 146L105 145M109 145L111 149L112 149L112 145L109 145M107 146L109 148L107 146M386 146L387 147L386 146M121 147L122 148L121 147M125 147L126 148L125 147M362 147L363 148L362 147M366 147L367 148L366 147M384 147L385 151L386 151L384 147z"/>
<path style="fill:#050505; stroke:none;" d="M101 148L102 149L101 148z"/>
<path style="fill:#fbfbfb; stroke:none;" d="M103.333 148.667L103.667 149.333L103.333 148.667z"/>
<path style="fill:#050505; stroke:none;" d="M96 149L97 150L96 149M99 149L100 150L99 149z"/>
<path style="fill:#fbfbfb; stroke:none;" d="M109 149L106 150L106 151L111 151L111 150L109 149M122 149L121 151L122 149M124 149L125 150L124 149z"/>
<path style="fill:#050505; stroke:none;" d="M126 149L127 150L126 149M361 149L362 150L361 149z"/>
<path style="fill:#fbfbfb; stroke:none;" d="M363 149L364 150L363 149M365 149L367 151L365 149z"/>
<path style="fill:#ffffff; stroke:none;" d="M109 150L110 151L109 150z"/>
<path style="fill:#fbfbfb; stroke:none;" d="M388 150L389 151L388 150M104 151C102.391 153.642 101.375 155.019 104 157L104 156L102 155L104 151M120 152L122 154L120 152M367 152L366 154L367 152M385 152L386 153L385 152M388 152L389 153L388 152z"/>
<path style="fill:#050505; stroke:none;" d="M98 154L99 155L98 154z"/>
<path style="fill:#fbfbfb; stroke:none;" d="M386.667 154.333L387.333 154.667L386.667 154.333M389 154L390 155L389 154z"/>
<path style="fill:#050505; stroke:none;" d="M96 155L97 156L96 155z"/>
<path style="fill:#fbfbfb; stroke:none;" d="M121 155L122 156L121 155M366 155L367 156L366 155M384 155L385 156L384 155z"/>
<path style="fill:#050505; stroke:none;" d="M391 155L392 156L391 155z"/>
<path style="fill:#fbfbfb; stroke:none;" d="M387 156L391 159L391 158L387 156M390 156L391 157L390 156M99 157L100 158L99 157M384 157L385 158L384 157M102 158L103 159L102 158M120 158L121 159L120 158z"/>
<path style="fill:#050505; stroke:none;" d="M122 158L123 159L122 158M365 158L366 159L365 158z"/>
<path style="fill:#fbfbfb; stroke:none;" d="M367 158L368 159L367 158M385 159L385 160L388 160L385 159M101 160L99 163L101 160M103 160L104 161L103 160M98 161L99 162L98 161M115 161L113 164L116 163L112 165L112 168C114.685 165.912 116.551 164.317 115 161M118 161L119 162L118 161M369 161L370 162L369 161M372 161L374 169L375 169L376 165L372 163L375 164L372 161M102 162L103 163L102 162z"/>
<path style="fill:#050505; stroke:none;" d="M396 162L397 163L396 162M399 163L400 164L399 163z"/>
<path style="fill:#fbfbfb; stroke:none;" d="M98 164L104 168L104 167L100 166L100 165L102 165L102 164L98 164M103 164L104 165L103 164z"/>
<path style="fill:#050505; stroke:none;" d="M396 165L397 166L396 165M399 165L400 166L399 165z"/>
<path style="fill:#fbfbfb; stroke:none;" d="M96 167L97 168L96 167M98 167L99 168L98 167M116 167L117 168L116 167M371 167L372 168L371 167M393 167L395 169L395 167L393 167z"/>
<path style="fill:#050505; stroke:none;" d="M396 167L397 168L396 167M398 167L399 168L398 167M90 168L91 169L90 168z"/>
<path style="fill:#fbfbfb; stroke:none;" d="M114 168L112 172L112 173L115 172L114 168M372 168L373 169L372 168z"/>
<path style="fill:#050505; stroke:none;" d="M94 169L95 170L94 169z"/>
<path style="fill:#fbfbfb; stroke:none;" d="M393 169L396 173L396 172L393 169M395 169L396 170L395 169z"/>
<path style="fill:#050505; stroke:none;" d="M89 170L90 171L89 170M92 170L94 172L92 170z"/>
<path style="fill:#fbfbfb; stroke:none;" d="M372.333 170.667L372.667 171.333L372.333 170.667M375 170L376 171L375 170z"/>
<path style="fill:#050505; stroke:none;" d="M371 172L372 173L371 172M397 172L398 173L397 172M90 174L90 175L93 175L90 174z"/>
<path style="fill:#fbfbfb; stroke:none;" d="M95 173L96 174L95 173M392 173L392 176L393 176L392 173M112.667 174.333L113.333 174.667L112.667 174.333M375 174L376 175L375 174z"/>
<path style="fill:#050505; stroke:none;" d="M370 175L371 176L370 175z"/>
<path style="fill:#fbfbfb; stroke:none;" d="M395 175L396 176L395 175M94 177L95 178L94 177M112 177L113 178L112 177z"/>
<path style="fill:#050505; stroke:none;" d="M119 177L120 178L119 177M371 177L372 178L371 177z"/>
<path style="fill:#fbfbfb; stroke:none;" d="M375 177L376 178L375 177M393.333 177.667L393.667 178.333L393.333 177.667M395 177L396 178L395 177M394 180L398 178L394 180M93 179L94 180L93 179M112 180L113 181L112 180z"/>
<path style="fill:#050505; stroke:none;" d="M399 180L400 181L399 180z"/>
<path style="fill:#fbfbfb; stroke:none;" d="M92 181L93 182L92 181M93 182L93 183L96 183L93 182z"/>
<path style="fill:#050505; stroke:none;" d="M372 181L373 182L372 181z"/>
<path style="fill:#fbfbfb; stroke:none;" d="M394 181L394 182L397 182L397 181L394 181z"/>
<path style="fill:#0a0a0a; stroke:none;" d="M371 182L372 183L371 182z"/>
<path style="fill:#050505; stroke:none;" d="M374 182L375 183L374 182z"/>
<path style="fill:#fbfbfb; stroke:none;" d="M397.667 183.333L398.333 183.667L397.667 183.333M93 184L94 185L93 184M105 184L106 185L105 184M108 184L107 188L108 188L108 184M110 184L111 185L110 184M377 184L378 185L377 184M379 184L380 188L381 188L382 186L379 184M382 184L383 185L382 184M91 185L92 186L91 185M92 186L93 187L92 186M110 186L111 187L110 186M377 186L378 187L377 186z"/>
<path style="fill:#050505; stroke:none;" d="M405 187L406 188L405 187z"/>
<path style="fill:#fbfbfb; stroke:none;" d="M92 188L93 189L92 188M104 188L105 192L106 192L104 188M110 188L111 189L110 188M377 188L378 189L377 188M383 188L382 192L383 192L383 188M90 189L91 190L90 189M108 189L109 190L108 189M379 189L380 190L379 189M92 191L93 192L92 191M95 192L96 193L95 192M107 192L108 193L107 192M380 192L381 193L380 192M90.6667 193.333L91.3333 193.667L90.6667 193.333M95 194L96 195L95 194M109 194L110 195L109 194M378 194L379 195L378 194M107 195L108 196L107 195M380 195L381 196L380 195M400 195L401 196L400 195M90 196L90 197L91 201L95 197L90 196M89 197L90 198L89 197M107 197L108 198L107 197M380 197L381 198L380 197M401 197L402 198L401 197z"/>
<path style="fill:#ffffff; stroke:none;" d="M92 198L93 199L92 198z"/>
<path style="fill:#fbfbfb; stroke:none;" d="M108 198L109 199L108 198M379 198L380 199L379 198z"/>
<path style="fill:#050505; stroke:none;" d="M404 198L405 199L404 198z"/>
<path style="fill:#fbfbfb; stroke:none;" d="M89 199L90 200L89 199M106 199L107 200L106 199M381 199L382 200L381 199M401 199L402 200L401 199M104 200L105 201L104 200M383 200L384 201L383 200M89 201L90 202L89 201M93 201L95 205L96 205L96 201L93 201M107 201L108 202L107 201z"/>
<path style="fill:#050505; stroke:none;" d="M109 201L110 202L109 201M378 201L379 202L378 201z"/>
<path style="fill:#fbfbfb; stroke:none;" d="M380 201L381 202L380 201M401 201L402 202L401 201z"/>
<path style="fill:#050505; stroke:none;" d="M402.667 201.333L403.333 201.667L402.667 201.333z"/>
<path style="fill:#fbfbfb; stroke:none;" d="M91 202L93 204L91 202M104.667 202.333L105.333 202.667L104.667 202.333M382.667 202.333L383.333 202.667L382.667 202.333M107 203L108 204L107 203M380 203L381 204L380 203M104.667 204.333L105.333 204.667L104.667 204.333M382.667 204.333L383.333 204.667L382.667 204.333M401 204L402 205L401 204z"/>
<path style="fill:#050505; stroke:none;" d="M404 204L405 205L404 204z"/>
<path style="fill:#fbfbfb; stroke:none;" d="M93 205L90 206L90 207L95 207L95 206L93 205M107 205L106 207L108 207L107 205z"/>
<path style="fill:#050505; stroke:none;" d="M110 205L111 206L110 205M377 205L378 206L377 205z"/>
<path style="fill:#fbfbfb; stroke:none;" d="M380 205L380 207L382 207L380 205M402 205L403 206L402 205z"/>
<path style="fill:#ffffff; stroke:none;" d="M93 206L94 207L93 206z"/>
<path style="fill:#fbfbfb; stroke:none;" d="M401 206L402 207L401 206M88 207L89 208L88 207M104 207L105 208L104 207M383 207L384 208L383 207M402 207L403 208L402 207M380 216L381 217L380 216M381 217L381 221L384 222L381 217M380 221L381 222L380 221M381 223L382 224L381 223M88 232L89 233L88 232M90 233L90 234L94 235L95 234L95 233L94 232L90 233M107 232L108 233L107 232M402 232L403 233L402 232z"/>
<path style="fill:#ffffff; stroke:none;" d="M93 233L94 234L93 233z"/>
<path style="fill:#fbfbfb; stroke:none;" d="M104 233L105 234L104 233z"/>
<path style="fill:#050505; stroke:none;" d="M110 233L111 234L110 233z"/>
<path style="fill:#fbfbfb; stroke:none;" d="M401 233L402 234L401 233M107 234L109 236L107 234M382 234L383 235L382 234M402 234L403 235L402 234M95 235L93 239L96 239L95 235M104.667 235.333L105.333 235.667L104.667 235.333M401 235L402 236L401 235z"/>
<path style="fill:#050505; stroke:none;" d="M404 235L405 236L404 235z"/>
<path style="fill:#fbfbfb; stroke:none;" d="M92 236L91 238L92 236M107 236L106 238L107 236z"/>
<path style="fill:#050505; stroke:none;" d="M378 236L379 237L378 236z"/>
<path style="fill:#fbfbfb; stroke:none;" d="M381.667 236.333L382.333 236.667L381.667 236.333M89 238L90 239L89 238M104 238L106 240L104 238M108 238L109 239L108 238M382 238L383 239L382 238M401 238L402 239L401 238z"/>
<path style="fill:#050505; stroke:none;" d="M402.667 238.333L403.333 238.667L402.667 238.333z"/>
<path style="fill:#fbfbfb; stroke:none;" d="M91 239L90 243L90 244L95 243L91 239M89 240L90 241L89 240M401 240L402 241L401 240z"/>
<path style="fill:#ffffff; stroke:none;" d="M92 241L93 242L92 241z"/>
<path style="fill:#fbfbfb; stroke:none;" d="M104 241L104 244L108 242L107 244L108 244L109 244L109 242L104 241z"/>
<path style="fill:#050505; stroke:none;" d="M109 241L110 242L109 241M378 241L379 242L378 241z"/>
<path style="fill:#fbfbfb; stroke:none;" d="M379 244L380 244L381 244L380 242L381 242L384 244L384 241L379 244z"/>
<path style="fill:#050505; stroke:none;" d="M404 241L405 242L404 241z"/>
<path style="fill:#fbfbfb; stroke:none;" d="M89 242L90 243L89 242M401 242L402 243L401 242M400 244L401 245L400 244M95 245L96 246L95 245M109 245L110 246L109 245z"/>
<path style="fill:#050505; stroke:none;" d="M110 245L111 246L110 245M377 245L378 246L377 245z"/>
<path style="fill:#fbfbfb; stroke:none;" d="M378 245L379 246L378 245M90.6667 246.333L91.3333 246.667L90.6667 246.333M105 246L106 247L105 246M108 246L109 247L108 246M379 246L380 247L379 246M382 246L383 247L382 246M95 247L96 248L95 247M109 247L110 248L109 247M378 247L379 248L378 247M92 248L93 249L92 248M382 248L383 249L382 248M105 249L106 250L105 249M380 249L381 250L380 249M90 250L91 251L90 250M377 250L378 251L377 250M92 251L93 252L92 251M105 251L105 254L108 251L105 251M109 251L108 253L108 254C110.158 253.022 110.501 252.812 109 251M380 251L380 252L383 252L380 251z"/>
<path style="fill:#050505; stroke:none;" d="M405 252L406 253L405 252z"/>
<path style="fill:#fbfbfb; stroke:none;" d="M92 253L93 254L92 253M377 254L377 255L381 255L377 254M382 253L383 254L382 253M91 254L92 255L91 254M93 255L94 256L93 255M110 255L111 256L110 255M382 255L383 256L382 255M397.667 256.333L398.333 256.667L397.667 256.333M95 257L94 259L95 257M112 257L113 258L112 257M394 258L394 259L397 259L394 258M92 258L93 259L92 258z"/>
<path style="fill:#050505; stroke:none;" d="M113 258L114 259L113 258M116 258L117 259L116 258M372 258L371 260L372 258z"/>
<path style="fill:#fbfbfb; stroke:none;" d="M112 259L113 260L112 259M375 259L376 260L375 259M394 260L398 262L396 259L394 260z"/>
<path style="fill:#050505; stroke:none;" d="M399 259L400 260L399 259z"/>
<path style="fill:#fbfbfb; stroke:none;" d="M93 260L94 261L93 260z"/>
<path style="fill:#050505; stroke:none;" d="M372 261L371 263L372 261z"/>
<path style="fill:#fbfbfb; stroke:none;" d="M374 261L375 262L374 261M393.333 261.667L393.667 262.333L393.333 261.667M94 262L95 263L94 262z"/>
<path style="fill:#050505; stroke:none;" d="M118 262L119 263L118 262M369 262L370 263L369 262z"/>
<path style="fill:#fbfbfb; stroke:none;" d="M395 262L396 263L395 262M113.333 263.667L113.667 264.333L113.333 263.667M374 264L375 265L374 264M392 264L392 267L393 267L392 264M395 264L396 265L395 264z"/>
<path style="fill:#050505; stroke:none;" d="M90 265L90 266L93 266L93 265L90 265M117 265L118 266L117 265M370 265L371 266L370 265z"/>
<path style="fill:#fbfbfb; stroke:none;" d="M95 266L96 267L95 266M112 268L115 267L112 268M373 266L373 267L376 268L373 266M394 267L393 271L394 271L396 268L394 267z"/>
<path style="fill:#050505; stroke:none;" d="M397 267L398 268L397 267M93 268L92 270L93 268z"/>
<path style="fill:#fbfbfb; stroke:none;" d="M114.667 268.333L115.333 268.667L114.667 268.333M372.667 268.333L373.333 268.667L372.667 268.333z"/>
<path style="fill:#050505; stroke:none;" d="M89 269L90 270L89 269M94 270L95 271L94 270z"/>
<path style="fill:#fbfbfb; stroke:none;" d="M112 271L112 272L116 271L112 271M372 270L372 271L376 272L376 271L372 270M395 270L396 271L395 270z"/>
<path style="fill:#050505; stroke:none;" d="M90 271L91 272L90 271z"/>
<path style="fill:#fbfbfb; stroke:none;" d="M394 271L393 273L395 273L394 271M96 272L97 273L96 272M98 272L99 273L98 272M103 272L98 276L102 276L102 275L100 275L100 274L104 273L103 272z"/>
<path style="fill:#050505; stroke:none;" d="M396 272L397 273L396 272M398 272L399 273L398 272z"/>
<path style="fill:#fbfbfb; stroke:none;" d="M113 273L118 278L118 277L116 273L113 273z"/>
<path style="fill:#050505; stroke:none;" d="M119 273L120 274L119 273M368 273L369 274L368 273z"/>
<path style="fill:#fbfbfb; stroke:none;" d="M372 273L370 277L370 278L375 273L372 273M116.667 274.333L117.333 274.667L116.667 274.333z"/>
<path style="fill:#050505; stroke:none;" d="M125 274L126 275L125 274M362 274L363 275L362 274z"/>
<path style="fill:#fbfbfb; stroke:none;" d="M370.667 274.333L371.333 274.667L370.667 274.333z"/>
<path style="fill:#050505; stroke:none;" d="M396 274L397 275L396 274M399 274L400 275L399 274z"/>
<path style="fill:#fbfbfb; stroke:none;" d="M103 275L104 276L103 275z"/>
<path style="fill:#050505; stroke:none;" d="M123 275L124 276L123 275M364 275L365 276L364 275z"/>
<path style="fill:#fbfbfb; stroke:none;" d="M112 276L113 277L112 276M375 276L376 277L375 276z"/>
<path style="fill:#050505; stroke:none;" d="M399 276L400 277L399 276z"/>
<path style="fill:#fbfbfb; stroke:none;" d="M99 277L102 280L99 277M102 277L103 278L102 277M98 278L99 279L98 278M114 278L116 280L114 278M373 278L372 280L373 278M103 279L104 280L103 279M117 279L118 280L117 279M370 279L371 280L370 279M387 280L386 282L387 280M389 280L390 281L389 280M102 281L103 282L102 281z"/>
<path style="fill:#050505; stroke:none;" d="M126 281L125 283L126 281z"/>
<path style="fill:#fbfbfb; stroke:none;" d="M367.333 281.667L367.667 282.333L367.333 281.667M99 282L100 283L99 282z"/>
<path style="fill:#050505; stroke:none;" d="M361 282L363 284L361 282z"/>
<path style="fill:#fbfbfb; stroke:none;" d="M385 287L388 287L390 283L385 287M102 283L101 284L105 289L104 284L102 283M384 283L385 284L384 283z"/>
<path style="fill:#050505; stroke:none;" d="M96 284L97 285L96 284z"/>
<path style="fill:#fbfbfb; stroke:none;" d="M120 284L121 285L120 284z"/>
<path style="fill:#050505; stroke:none;" d="M124 284L125 285L124 284M98 285L99 286L98 285M364 285L365 286L364 285z"/>
<path style="fill:#fbfbfb; stroke:none;" d="M367 285L364 287L364 288L367 289L367 285M388.667 285.333L389.333 285.667L388.667 285.333M121 286L121 287L124 288L121 286z"/>
<path style="fill:#050505; stroke:none;" d="M126 286L127 287L126 286M391 286L392 287L391 286z"/>
<path style="fill:#ffffff; stroke:none;" d="M366 287L367 288L366 287z"/>
<path style="fill:#fbfbfb; stroke:none;" d="M106 289L106 290L110 291L111 290L111 289L110 288L106 289z"/>
<path style="fill:#050505; stroke:none;" d="M150 288L151 289L150 288z"/>
<path style="fill:#fbfbfb; stroke:none;" d="M363 288L364 289L363 288z"/>
<path style="fill:#050505; stroke:none;" d="M100 289L99 291L100 289z"/>
<path style="fill:#ffffff; stroke:none;" d="M109 289L110 290L109 289z"/>
<path style="fill:#050505; stroke:none;" d="M132 289L134 291L132 289z"/>
<path style="fill:#fbfbfb; stroke:none;" d="M145 289L146 290L145 289z"/>
<path style="fill:#050505; stroke:none;" d="M355 289L354 291L355 289z"/>
<path style="fill:#fbfbfb; stroke:none;" d="M385 289L384 293L385 293L385 289M388 289L389 290L388 289M103 290L104 291L103 290M121 290L120 293L121 290M125 290L126 291L125 290M362 290L363 291L362 290M364.667 290.333L365.333 290.667L364.667 290.333M111 291L109 295L112 295L111 291M124 291L126 293L124 291z"/>
<path style="fill:#050505; stroke:none;" d="M139 291L141 293L139 291z"/>
<path style="fill:#fbfbfb; stroke:none;" d="M145 291L145 292L149 292L149 291L145 291z"/>
<path style="fill:#050505; stroke:none;" d="M360 291L361 292L360 291z"/>
<path style="fill:#fbfbfb; stroke:none;" d="M367 291L368 292L367 291z"/>
<path style="fill:#050505; stroke:none;" d="M101 292L102 293L101 292z"/>
<path style="fill:#fbfbfb; stroke:none;" d="M108 292L107 294L108 292M127 292L128 293L127 292z"/>
<path style="fill:#050505; stroke:none;" d="M134 292L135 293L134 292z"/>
<path style="fill:#fbfbfb; stroke:none;" d="M141.333 292.667L141.667 293.333L141.333 292.667M143 292L144 293L143 292M149.667 292.333L150.333 292.667L149.667 292.333z"/>
<path style="fill:#050505; stroke:none;" d="M353 292L354 293L353 292z"/>
<path style="fill:#fbfbfb; stroke:none;" d="M361 292L362 293L361 292M364 292L361 294L361 295L364 292M148 293L147 295L148 293M367 293L368 294L367 293M386 293L387 294L386 293M105 294L106 295L105 294M122 294L122 296L124 296L122 294M126 294L125 296L126 294M139.667 294.333L140.333 294.667L139.667 294.333M142 294L143 295L142 294M150 294L151 295L150 294M364 295L364 296L367 296L364 295M107 295L107 298L110 297L111 300L112 300L107 295M106 296L107 297L106 296z"/>
<path style="fill:#050505; stroke:none;" d="M131 296L132 297L131 296z"/>
<path style="fill:#fbfbfb; stroke:none;" d="M139 296L140 297L139 296M377 296L377 297L380 297L380 296L377 296M382 296L381 298L382 296M137 297L138 298L137 297M141 297L143 301L144 301L144 297L141 297z"/>
<path style="fill:#050505; stroke:none;" d="M354 297L355 298L354 297M357 297L358 298L357 297z"/>
<path style="fill:#fbfbfb; stroke:none;" d="M128 299L128 300L131 300L128 299M139 298L141 300L139 298M357 298L356 301L357 301L357 298M383 298L384 299L383 298M152 299L155 303L152 299M359 299L360 300L359 299M379 299L377 301L377 302L381 303L382 299L379 299z"/>
<path style="fill:#050505; stroke:none;" d="M390 299L391 300L390 299z"/>
<path style="fill:#fbfbfb; stroke:none;" d="M132 300L133 301L132 300M128.667 301.333L129.333 301.667L128.667 301.333M134 301L135 302L134 301M141 301L138 302L138 303L143 303L143 302L141 301M358 301L359 302L358 301z"/>
<path style="fill:#ffffff; stroke:none;" d="M380 301L381 302L380 301z"/>
<path style="fill:#050505; stroke:none;" d="M389 301L388 303L389 301M107 302L108 303L107 302z"/>
<path style="fill:#fbfbfb; stroke:none;" d="M131 302L132 303L131 302z"/>
<path style="fill:#ffffff; stroke:none;" d="M141 302L142 303L141 302z"/>
<path style="fill:#fbfbfb; stroke:none;" d="M355 302L357 306L355 302M110 303L111 304L110 303M129 303L130 304L129 303M136 303L137 304L136 303M376 303L377 304L376 303M113 305L113 306L114 308L117 308L116 310L117 311L118 311L117 309L120 310L120 307L116 305L119 306L113 305M152 304L153 309L154 309L157 308L156 305L152 304M358 304L359 305L358 304M379 304L377 305L377 306L379 304M111 305L112 306L111 305z"/>
<path style="fill:#050505; stroke:none;" d="M348 305L349 306L348 305M110 306L111 307L110 306M344 306L345 307L344 306z"/>
<path style="fill:#fbfbfb; stroke:none;" d="M352 306L353 307L352 306M359 306L360 307L359 306M379 306L378 308L379 306M356 307L353 308L351 312L356 307M376 307L376 310L377 310L376 307M114.333 309.667L114.667 310.333L114.333 309.667M349 309L351 311L351 309L349 309M357 309L356 311L357 309M359 309L360 310L359 309z"/>
<path style="fill:#050505; stroke:none;" d="M380 309L381 310L380 309z"/>
<path style="fill:#fbfbfb; stroke:none;" d="M152 310L154 312L154 310L152 310M157 310L158 311L157 310z"/>
<path style="fill:#050505; stroke:none;" d="M382 310L383 311L382 310z"/>
<path style="fill:#fbfbfb; stroke:none;" d="M348 311L349 312L348 311M354 311L355 312L354 311M116 312L118 314L116 312z"/>
<path style="fill:#050505; stroke:none;" d="M165 312L167 314L165 312z"/>
<path style="fill:#fbfbfb; stroke:none;" d="M119 313L120 314L119 313M346 313L346 314L351 316L351 315L346 313M351 313L352 314L351 313M374.333 313.667L374.667 314.333L374.333 313.667M116 314L117 315L116 314M160.333 314.667L160.667 315.333L160.333 314.667z"/>
<path style="fill:#050505; stroke:none;" d="M341 314L342 315L341 314z"/>
<path style="fill:#fbfbfb; stroke:none;" d="M345 314L346 315L345 314M371 314L368 315L372 318L372 317L370 316L373 316L371 314M118 315L119 316L118 315z"/>
<path style="fill:#050505; stroke:none;" d="M166 315L167 316L166 315M339 315L340 316L339 315z"/>
<path style="fill:#fbfbfb; stroke:none;" d="M161 316L163 318L161 316z"/>
<path style="fill:#050505; stroke:none;" d="M341 316L342 317L341 316z"/>
<path style="fill:#fbfbfb; stroke:none;" d="M347 316L348 317L347 316M118.667 317.333L119.333 317.667L118.667 317.333M344 317L345 318L344 317M348 319L351 318L348 319z"/>
<path style="fill:#050505; stroke:none;" d="M375 317L376 318L375 317z"/>
<path style="fill:#fbfbfb; stroke:none;" d="M160 318L161 321L162 321L160 318M342 318L343 319L342 318M368 318L370 320L368 318M116 319L115 321L116 319M118 319L120 321L118 319M340 319L339 322L340 322L340 319M163 320L164 321L163 320M341 320L339 324L339 325L340 328L344 326L344 325L340 325L344 323L341 320M363 320L364 323L364 324L360 325L363 328L366 324L366 323L363 320M365 320L366 321L365 320M116 321L116 324L117 324L116 321M367.667 321.333L368.333 321.667L367.667 321.333z"/>
<path style="fill:#050505; stroke:none;" d="M107 322L108 323L107 322z"/>
<path style="fill:#fbfbfb; stroke:none;" d="M118 322L118 324L120 322L118 322M160 322L161 323L160 322M162 322L162 325L163 325L162 322z"/>
<path style="fill:#050505; stroke:none;" d="M333 322L334 323L333 322z"/>
<path style="fill:#fbfbfb; stroke:none;" d="M338 322L339 323L338 322M360 322L361 323L360 322z"/>
<path style="fill:#050505; stroke:none;" d="M372 322L373 323L372 322M375 322L376 323L375 322z"/>
<path style="fill:#0a0a0a; stroke:none;" d="M108 323L109 324L108 323z"/>
<path style="fill:#fbfbfb; stroke:none;" d="M113 323L114 324L113 323z"/>
<path style="fill:#050505; stroke:none;" d="M331 323L332 324L331 323z"/>
<path style="fill:#fbfbfb; stroke:none;" d="M114 324L115 325L114 324M164 324L165 325L164 324z"/>
<path style="fill:#050505; stroke:none;" d="M167 324L168 325L167 324M333 324L334 325L333 324M370 324L371 325L370 324M109 325L110 326L109 325z"/>
<path style="fill:#fbfbfb; stroke:none;" d="M112 325L113 326L112 325M118 325L120 328L118 325M365 325L366 326L365 325M115 326L116 327L115 326M161 326L161 329L162 329L161 326M164.667 326.333L165.333 326.667L164.667 326.333M334 326L335 327L334 326M336 326L337 327L336 326M338.333 326.667L338.667 327.333L338.333 326.667M364.333 326.667L364.667 327.333L364.333 326.667M113 327L114 328L113 327M332 327L333 328L332 327z"/>
<path style="fill:#050505; stroke:none;" d="M97 328L98 329L97 328z"/>
<path style="fill:#fbfbfb; stroke:none;" d="M109 328L109 329L112 329L112 328L109 328M164 328L163 330L164 328M353 328L352 330L353 328M357 329L357 330L359 332L360 332L361 330L359 328L357 329z"/>
<path style="fill:#050505; stroke:none;" d="M101 329L102 330L101 329M103 329L104 330L103 329z"/>
<path style="fill:#fbfbfb; stroke:none;" d="M334 329L335 330L334 329M362 329L363 330L362 329z"/>
<path style="fill:#050505; stroke:none;" d="M366 329L367 330L366 329M98 330L99 331L98 330z"/>
<path style="fill:#fbfbfb; stroke:none;" d="M106 332L109 331L106 332M160 330L161 331L160 330M167 330L168 331L167 330z"/>
<path style="fill:#050505; stroke:none;" d="M171 330L172 331L171 330z"/>
<path style="fill:#fbfbfb; stroke:none;" d="M329 330L330 331L329 330M332 330L330 334L331 334L334 332L332 330M353 332L356 331L353 332z"/>
<path style="fill:#050505; stroke:none;" d="M363 330L364 331L363 330z"/>
<path style="fill:#fbfbfb; stroke:none;" d="M110 331L111 332L110 331M163 331L168 335L167 332L163 331z"/>
<path style="fill:#050505; stroke:none;" d="M169 331L170 332L169 331z"/>
<path style="fill:#fbfbfb; stroke:none;" d="M335 331L336 332L335 331z"/>
<path style="fill:#050505; stroke:none;" d="M100 332L101 333L100 332z"/>
<path style="fill:#fbfbfb; stroke:none;" d="M105 332L106 333L105 332M108 332L106 333L112 336L112 335L108 332M168 332L169 333L168 332M326.333 332.667L326.667 333.333L326.333 332.667M355.667 332.333L356.333 332.667L355.667 332.333z"/>
<path style="fill:#050505; stroke:none;" d="M102 333L103 334L102 333z"/>
<path style="fill:#fbfbfb; stroke:none;" d="M160 333L161 334L160 333M162 333L164 335L162 333z"/>
<path style="fill:#050505; stroke:none;" d="M322 333L323 334L322 333z"/>
<path style="fill:#fbfbfb; stroke:none;" d="M333 333L334 334L333 333M335 333L336 334L335 333M358 333L357 335L358 333z"/>
<path style="fill:#050505; stroke:none;" d="M362 333L363 334L362 333M96 334L97 335L96 334z"/>
<path style="fill:#ffffff; stroke:none;" d="M108 334L109 335L108 334z"/>
<path style="fill:#fbfbfb; stroke:none;" d="M169 334L170 335L169 334M325.333 334.667L325.667 335.333L325.333 334.667M327 334L328 335L327 334M352 334L353 335L352 334z"/>
<path style="fill:#0a0a0a; stroke:none;" d="M366 334L367 335L366 334z"/>
<path style="fill:#fbfbfb; stroke:none;" d="M165 335L166 336L165 335M101 336L102 337L101 336M103 336L101 339L103 336M170 336L170 339L171 339L172 339L170 336M327.667 336.333L328.333 336.667L327.667 336.333z"/>
<path style="fill:#ffffff; stroke:none;" d="M331 336L332 338L331 336z"/>
<path style="fill:#fbfbfb; stroke:none;" d="M333 336L334 337L333 336M345 336L344 338L345 336M349 337L349 338L351 340L354 337L351 336L349 337M323 337L324 338L323 337M331 337L332 338L331 337M328.667 338.333L329.333 338.667L328.667 338.333M345 340L348 339L345 340z"/>
<path style="fill:#050505; stroke:none;" d="M357 338L358 339L357 338z"/>
<path style="fill:#fbfbfb; stroke:none;" d="M169 339L172 341L172 340L169 339z"/>
<path style="fill:#050505; stroke:none;" d="M172 339L173 340L172 339z"/>
<path style="fill:#fbfbfb; stroke:none;" d="M324 341L325 342L327 342L328 342L327 339L324 341M331 339L332 340L331 339M334 339L332 342L335 340L333 345L333 346L338 346L338 345L334 339M100 340L101 341L100 340z"/>
<path style="fill:#050505; stroke:none;" d="M320 340L321 341L320 340z"/>
<path style="fill:#fbfbfb; stroke:none;" d="M329 340L330 341L329 340M347.667 340.333L348.333 340.667L347.667 340.333M352 340L353 341L352 340z"/>
<path style="fill:#050505; stroke:none;" d="M356 340L357 341L356 340z"/>
<path style="fill:#fbfbfb; stroke:none;" d="M101 341L102 342L101 341M103 341L104 342L103 341M172 341L171 343L173 343L172 341M350 341L349 343L350 341M169 342L171 344L169 342M328 343L328 344L331 344L328 343M344 342L345 343L344 342z"/>
<path style="fill:#050505; stroke:none;" d="M352 342L354 344L352 342z"/>
<path style="fill:#fbfbfb; stroke:none;" d="M173 343L174 344L173 343z"/>
<path style="fill:#050505; stroke:none;" d="M356 343L357 344L356 343z"/>
<path style="fill:#fbfbfb; stroke:none;" d="M109 344L110 345L109 344M113 344L114 345L113 344M122 344L123 345L122 344M124 344L123 346L123 347L127 346L127 345L124 344M172 344L173 345L172 344M340 344L341 345L340 344M342 345L342 346L345 345L344 347L348 345L342 345M111 345L111 347L113 347L111 345M168 345L168 349L169 349L171 345L168 345M174 345L175 346L174 345M331 345L330 347L331 345z"/>
<path style="fill:#050505; stroke:none;" d="M105 346L106 347L105 346z"/>
<path style="fill:#fbfbfb; stroke:none;" d="M114 346L115 347L114 346M116 346L117 347L116 346M172 346L171 348L172 346z"/>
<path style="fill:#050505; stroke:none;" d="M326 346L327 347L326 346z"/>
<path style="fill:#fbfbfb; stroke:none;" d="M339 346L337 349L339 346M118 347L119 348L118 347M121 347L123 349L121 347M127 347L128 348L127 347z"/>
<path style="fill:#050505; stroke:none;" d="M178 347L179 348L178 347M324 347L325 348L324 347z"/>
<path style="fill:#fbfbfb; stroke:none;" d="M329 347L330 348L329 347M332 347L333 348L332 347M342 347L341 349L342 347z"/>
<path style="fill:#050505; stroke:none;" d="M106 348L107 349L106 348M114 348L117 351L114 348z"/>
<path style="fill:#fbfbfb; stroke:none;" d="M117 348L118 349L117 348M124 349L124 350L128 350L124 349M330 348L333 350L333 349L330 348M334 348L335 349L334 348M343 348L344 349L343 348M120 349L121 350L120 349M170 349L169 350L169 351L170 352L174 351L174 350L170 349z"/>
<path style="fill:#050505; stroke:none;" d="M322 349L323 350L322 349z"/>
<path style="fill:#fbfbfb; stroke:none;" d="M339 349L340 350L339 349z"/>
<path style="fill:#050505; stroke:none;" d="M345 349L346 350L345 349M108 350L109 351L108 350M113 350L114 351L113 350z"/>
<path style="fill:#ffffff; stroke:none;" d="M170 350L171 351L170 350z"/>
<path style="fill:#050505; stroke:none;" d="M179 350L180 351L179 350M325 350L326 351L325 350M327 350L328 351L327 350z"/>
<path style="fill:#fbfbfb; stroke:none;" d="M333 351L333 352L338 351L333 351M175 351L176 352L175 351z"/>
<path style="fill:#050505; stroke:none;" d="M321 351L322 352L321 351z"/>
<path style="fill:#fbfbfb; stroke:none;" d="M339 351L340 352L339 351z"/>
<path style="fill:#050505; stroke:none;" d="M342 351L343 352L342 351z"/>
<path style="fill:#fbfbfb; stroke:none;" d="M130 352L131 353L130 352M133.333 352.667L133.667 353.333L133.333 352.667M138 352L140 354L138 352M141 352L141 353L142 355L147 356L146 352L141 352M177 352L176 357L177 357L177 352z"/>
<path style="fill:#050505; stroke:none;" d="M128 353L129 354L128 353z"/>
<path style="fill:#fbfbfb; stroke:none;" d="M147 353L148 354L147 353M178 353L179 354L178 353M335.667 353.333L336.333 353.667L335.667 353.333M137 354L138 355L137 354M149 355L149 356L151 355L150 358L151 358L152 354L149 355z"/>
<path style="fill:#050505; stroke:none;" d="M332 354L333 355L332 354M132 355L133 356L132 355M135 355L136 356L135 355M138 355L139 356L138 355M342 355L340 358L342 355z"/>
<path style="fill:#fbfbfb; stroke:none;" d="M144 356L145 357L144 356M179 356L181 358L179 356z"/>
<path style="fill:#0a0a0a; stroke:none;" d="M330 356L331 357L330 356z"/>
<path style="fill:#050505; stroke:none;" d="M133 357L134 358L133 357z"/>
<path style="fill:#fbfbfb; stroke:none;" d="M148 357L149 358L148 357M178 357L179 358L178 357z"/>
<path style="fill:#050505; stroke:none;" d="M334 357L335 358L334 357M343 357L342 359L343 357M182 358L184 360L182 358M329 358L330 359L329 358M130 359L131 360L130 359M141 359L142 360L141 359z"/>
<path style="fill:#fbfbfb; stroke:none;" d="M177 359L178 360L177 359M179 359L180 360L179 359M158 360L159 361L158 360M160 360L161 361L160 360M169 360L170 363L168 361L167 361L168 364L170 364L169 360z"/>
<path style="fill:#050505; stroke:none;" d="M156 361L157 362L156 361z"/>
<path style="fill:#fbfbfb; stroke:none;" d="M159 361L160 362L159 361M161.667 361.333L162.333 361.667L161.667 361.333M172 361L173 362L172 361M176 361L177 362L176 361M177 363L177 364L182 362L177 363M164 362L165 363L164 362M174 362L173 364L174 362M182 362L183 363L182 362z"/>
<path style="fill:#050505; stroke:none;" d="M153 363L154 364L153 363M156 363L157 364L156 363z"/>
<path style="fill:#fbfbfb; stroke:none;" d="M166 363L167 364L166 363z"/>
<path style="fill:#050505; stroke:none;" d="M161 364L162 365L161 364M163 364L164 365L163 364z"/>
<path style="fill:#fbfbfb; stroke:none;" d="M170 364L170 365L173 365L170 364M180 364L181 365L180 364z"/>
<path style="fill:#050505; stroke:none;" d="M157 365L158 366L157 365z"/>
<path style="fill:#fbfbfb; stroke:none;" d="M174 365L175 366L174 365M177 365L177 366L180 367L177 365M183 365L184 366L183 365z"/>
<path style="fill:#050505; stroke:none;" d="M153 366L154 367L153 366M155 366L156 367L155 366M159 366L160 367L159 366M169 366L170 367L169 366M157 367L158 368L157 367M162 367L163 368L162 367z"/>
<path style="fill:#fbfbfb; stroke:none;" d="M181 368L182 369L181 368z"/>
<path style="fill:#050505; stroke:none;" d="M182 370L183 371L182 370M178 372L179 373L178 372M176 373L177 374L176 373M178 374L179 375L178 374M182 374L183 375L182 374M416 417L420 417C418.444 415.187 417.556 415.187 416 417M378 416L379 417L378 416z"/>
<path style="fill:#0a0a0a; stroke:none;" d="M380 416L381 417L380 416M422 416L423 417L422 416M377 417L378 418L377 417z"/>
<path style="fill:#050505; stroke:none;" d="M379 418L379 419L384 417L383 417L382 419L379 418z"/>
<path style="fill:#0a0a0a; stroke:none;" d="M417 417L416 420L419 420L417 417M420 417L421 418L420 417z"/>
<path style="fill:#050505; stroke:none;" d="M377 418L376 420L377 418M420 418L421 419L420 418z"/>
<path style="fill:#0a0a0a; stroke:none;" d="M379 419L380 420L379 419M381 419L382 420L381 419z"/>
<path style="fill:#050505; stroke:none;" d="M422.667 419.333L423.333 419.667L422.667 419.333M416 420L417 421L416 420M418 420L419 421L418 420M418 423L419 424L418 423z"/>
</svg>
